<svg width="32" height="32" viewBox="0 0 32 32" fill="none" xmlns="http://www.w3.org/2000/svg">
<g clip-path="url(#clip0_1_45)">
<path d="M16 0C7.136 0 0 7.136 0 16C0 24.864 7.136 32 16 32C24.864 32 32 24.864 32 16C32 7.136 24.864 0 16 0ZM19.7333 5.77733C19.9067 5.772 20.064 5.95867 19.9613 6.148L15.9027 13.588C15.8821 13.6259 15.8718 13.6685 15.8727 13.7117C15.8735 13.7548 15.8856 13.797 15.9076 13.834C15.9296 13.8711 15.9609 13.9018 15.9984 13.9232C16.0358 13.9446 16.0782 13.9559 16.1213 13.956H23.1347C23.3613 13.956 23.4707 14.232 23.3053 14.3867L11.012 25.86C10.792 26.0653 10.4653 25.776 10.6413 25.532L16.46 17.504C16.4867 17.4668 16.5026 17.423 16.506 17.3774C16.5095 17.3318 16.5003 17.2861 16.4795 17.2454C16.4587 17.2046 16.4271 17.1704 16.3882 17.1464C16.3492 17.1224 16.3044 17.1096 16.2587 17.1093H8.836C8.78661 17.1092 8.73838 17.0944 8.6974 17.0669C8.65643 17.0393 8.62457 17.0002 8.60586 16.9545C8.58715 16.9088 8.58243 16.8585 8.59231 16.8101C8.60218 16.7617 8.62621 16.7174 8.66133 16.6827L19.568 5.852C19.6117 5.80636 19.6702 5.77957 19.7333 5.77733Z" fill="#319795"/>
</g>
<defs>
<clipPath id="clip0_1_45">
<rect width="32" height="32" fill="white"/>
</clipPath>
</defs>
</svg>
