<svg width="72" height="20" viewBox="0 0 72 20" fill="none" xmlns="http://www.w3.org/2000/svg">
<path d="M9.25317 6.45869C9.41286 6.22331 9.58767 6.19337 9.72948 6.19337C9.8713 6.19337 10.1075 6.22331 10.2673 6.45869C11.526 8.18762 13.6038 11.6317 15.1365 14.1723C16.136 15.8291 16.9037 17.1016 17.0612 17.2636C17.6524 17.8715 18.4633 17.4926 18.9345 16.8031C19.3984 16.1242 19.5271 15.6475 19.5271 15.1389C19.5271 14.7926 12.8067 2.29378 12.1299 1.25341C11.479 0.252754 11.267 0 10.153 0H9.31936C8.20867 0 8.04817 0.252754 7.39723 1.25341C6.72048 2.29378 0 14.7926 0 15.1389C0 15.6475 0.128778 16.1242 0.592663 16.8031C1.06385 17.4926 1.87472 17.8715 2.46595 17.2636C2.62347 17.1016 3.39115 15.8291 4.39067 14.1723C5.92333 11.6317 7.99442 8.18762 9.25317 6.45869Z" fill="#000020"/>
<path d="M53.8218 5.46697C56.5898 5.46697 58.791 7.96586 58.791 11.0566C58.791 14.1474 56.5898 16.6682 53.8218 16.6682C52.3398 16.6682 51.1847 16.0544 50.4437 14.9365V20H47.3707V5.68618H50.4437V7.19867C51.1847 6.08074 52.3398 5.46697 53.8218 5.46697ZM65.4942 5.46697C68.6323 5.46697 71.0517 7.87817 71.0517 11.0785C71.0517 14.2789 68.6323 16.6682 65.4942 16.6682C62.3339 16.6682 59.9364 14.2789 59.9364 11.0785C59.9364 7.87817 62.3339 5.46697 65.4942 5.46697ZM33.5485 1.10486V4.21752H27.4243V6.97948H32.8729V10.0921H27.4243V13.3363H33.5485V16.449H24.1987V1.10486H33.5485ZM38.5489 5.68618L40.3142 8.22892L42.1014 5.68618H45.7629L42.145 10.8812L46.0244 16.449H42.3193L40.2924 13.5336L38.2655 16.449H34.6041L38.4617 10.9032L34.8438 5.68618H38.5489ZM53.1245 8.4043C51.6206 8.4043 50.4437 9.56605 50.4437 11.0566C50.4437 12.5691 51.6206 13.709 53.1245 13.709C54.6065 13.709 55.8052 12.5472 55.8052 11.0566C55.8052 9.58798 54.6065 8.4043 53.1245 8.4043ZM65.4942 8.42617C64.0335 8.42617 62.9442 9.54411 62.9442 11.0785C62.9442 12.5691 64.0335 13.709 65.4942 13.709C66.9323 13.709 68.0442 12.5691 68.0442 11.0785C68.0442 9.54411 66.9323 8.42617 65.4942 8.42617Z" fill="#000020"/>
</svg>
