<svg width="40" height="40" viewBox="0 0 40 40" fill="none" xmlns="http://www.w3.org/2000/svg">
<path d="M7.25 30.75L7.4625 30.4537L17.4875 11.4362L17.5087 11.235L13.09 2.93499C13.0091 2.78321 12.8825 2.66071 12.7282 2.58482C12.5738 2.50893 12.3996 2.48349 12.23 2.5121C12.0604 2.54071 11.9041 2.62192 11.7832 2.74425C11.6623 2.86657 11.5829 3.02382 11.5562 3.19374L7.25 30.75Z" fill="#FFC24A"/>
<path d="M7.375 30.525L7.535 30.2125L17.4563 11.3925L13.0487 3.05998C12.9761 2.91508 12.8584 2.79762 12.7133 2.72521C12.5683 2.6528 12.4037 2.62934 12.2442 2.65834C12.0847 2.68734 11.9389 2.76724 11.8286 2.88607C11.7183 3.0049 11.6495 3.15627 11.6325 3.31748L7.375 30.525Z" fill="#FFA712"/>
<path d="M20.73 17.5125L24.02 14.1375L20.7288 7.86126C20.6563 7.72619 20.5486 7.61329 20.4171 7.53458C20.2856 7.45587 20.1352 7.41431 19.9819 7.41431C19.8286 7.41431 19.6782 7.45587 19.5467 7.53458C19.4152 7.61329 19.3074 7.72619 19.235 7.86126L17.4763 11.2138V11.5L20.73 17.5125Z" fill="#F4BD62"/>
<path d="M20.6712 17.375L23.87 14.1L20.6712 8.00003C20.6189 7.86799 20.5294 7.75391 20.4137 7.67156C20.298 7.5892 20.1609 7.54207 20.019 7.53586C19.8771 7.52965 19.7364 7.56462 19.614 7.63656C19.4915 7.70849 19.3924 7.81432 19.3287 7.94128L17.5612 11.3525L17.5087 11.5263L20.6712 17.375Z" fill="#FFA50E"/>
<path d="M7.2525 30.7512L7.34875 30.6537L7.6975 30.5124L20.5225 17.7349L20.685 17.2924L17.4863 11.1949L7.2525 30.7512Z" fill="#F6820C"/>
<path d="M21.14 37.195L32.75 30.7213L29.4325 10.3075C29.4087 10.1636 29.3457 10.0291 29.2505 9.91859C29.1552 9.80813 29.0314 9.72605 28.8926 9.68136C28.7537 9.63667 28.6052 9.63111 28.4634 9.66527C28.3216 9.69943 28.192 9.77201 28.0887 9.87503L7.25 30.75L18.7912 37.1938C19.1501 37.394 19.5541 37.4991 19.965 37.4991C20.3759 37.4991 20.7799 37.394 21.1387 37.1938" fill="#FDE068"/>
<path d="M32.6437 30.6675L29.3538 10.4075C29.3479 10.2698 29.3014 10.137 29.2201 10.0258C29.1388 9.91463 29.0263 9.83006 28.8969 9.78282C28.7675 9.73557 28.6269 9.72779 28.4931 9.76044C28.3593 9.79309 28.2381 9.86471 28.145 9.96624L7.375 30.7112L18.7888 37.0862C19.1447 37.2848 19.5455 37.3891 19.9531 37.3891C20.3607 37.3891 20.7615 37.2848 21.1175 37.0862L32.6437 30.6675Z" fill="#FCCA3F"/>
<path d="M21.14 37C20.7812 37.2002 20.3771 37.3053 19.9662 37.3053C19.5554 37.3053 19.1513 37.2002 18.7925 37L7.345 30.6525L7.25 30.75L18.7912 37.1938C19.1501 37.394 19.5541 37.4991 19.965 37.4991C20.3759 37.4991 20.7799 37.394 21.1387 37.1938L32.75 30.7213L32.7212 30.5463L21.14 37Z" fill="#EEAB37"/>
</svg>
