<svg width="64" height="64" viewBox="0 0 64 64" fill="none" xmlns="http://www.w3.org/2000/svg">
<circle cx="32" cy="32" r="32" fill="#2C2E39"/>
<path d="M26.4795 20.4397C21.1503 19.4559 16.9416 20.4944 15.2472 23.3913C13.9901 25.5503 14.3454 28.4472 16.1218 31.5081C16.2584 31.7814 16.6137 31.8633 16.8596 31.6994C17.1329 31.5627 17.2149 31.2074 17.0509 30.9615C15.4659 28.2012 15.1652 25.7143 16.1764 23.9379C17.5702 21.5329 21.3416 20.6037 26.2609 21.5056C26.5615 21.5602 26.8348 21.3689 26.8895 21.0683C26.9441 20.7677 26.7801 20.4944 26.4795 20.4397ZM18.9093 35.2522C21.2754 37.8014 24.0228 39.968 27.0534 41.6745C34.7876 46.1292 43.0137 47.3317 47.0857 44.5714C47.3317 44.4074 47.3864 44.0522 47.2224 43.8062C47.0584 43.5602 46.7031 43.5056 46.4572 43.6696C42.8224 46.1565 35.0062 45.0087 27.6 40.7453C24.6625 39.0869 21.9985 36.9851 19.7019 34.5143C19.6033 34.4104 19.468 34.3493 19.3249 34.3442C19.1818 34.3391 19.0424 34.3904 18.9367 34.4869C18.8328 34.5855 18.7717 34.7209 18.7666 34.864C18.7615 35.0071 18.8127 35.1465 18.9093 35.2522Z" fill="#D6F6FE"/>
<path d="M45.7739 34.5963C49.2721 30.4696 50.4746 26.3155 48.8075 23.4186C47.5777 21.287 44.9541 20.1665 41.5106 20.1118C41.21 20.1118 40.964 20.3578 40.964 20.6584C40.964 20.959 41.21 21.205 41.5106 21.205C44.6261 21.2323 46.8671 22.2162 47.8783 23.9652C49.2721 26.3702 48.1789 30.087 44.9541 33.8857C44.8609 33.9949 44.8144 34.1364 44.8246 34.2795C44.8348 34.4227 44.901 34.5561 45.0087 34.6509C45.1179 34.7441 45.2593 34.7906 45.4025 34.7804C45.5457 34.7702 45.6791 34.7041 45.7739 34.5963ZM36.81 20.6037C33.3899 21.3863 30.1091 22.6857 27.0808 24.4572C19.0733 29.0758 13.8808 35.8808 14.5913 40.8C14.618 40.9425 14.6977 41.0697 14.8143 41.1559C14.9309 41.242 15.0758 41.2809 15.2199 41.2646C15.3624 41.2379 15.4896 41.1582 15.5757 41.0416C15.6619 40.925 15.7008 40.7801 15.6845 40.636C15.0286 36.2634 19.9752 29.841 27.6274 25.4137C30.5623 23.6951 33.7415 22.4326 37.0559 21.6696C37.1259 21.6535 37.1921 21.6237 37.2506 21.582C37.3091 21.5403 37.3588 21.4875 37.3969 21.4266C37.4349 21.3657 37.4606 21.2979 37.4725 21.227C37.4843 21.1562 37.4821 21.0837 37.4659 21.0137C37.3839 20.7404 37.1106 20.5491 36.81 20.6037Z" fill="#D6F6FE"/>
<path d="M23.8832 44.2162C25.7143 49.2994 28.6932 52.4423 32.0547 52.4423C34.5143 52.4423 36.7553 50.7752 38.5317 47.8236C38.6956 47.5777 38.6137 47.2224 38.3404 47.0857C38.0944 46.9218 37.7391 47.0037 37.6025 47.277C36.0174 49.928 34.077 51.3491 32.0547 51.3491C29.2671 51.3491 26.6161 48.5615 24.9217 43.8336C24.8974 43.7648 24.8595 43.7016 24.8104 43.6478C24.7612 43.5939 24.7018 43.5504 24.6356 43.5198C24.5694 43.4893 24.4977 43.4723 24.4248 43.4698C24.3519 43.4674 24.2793 43.4795 24.2112 43.5056C24.1424 43.53 24.0793 43.5678 24.0254 43.617C23.9715 43.6661 23.928 43.7255 23.8974 43.7918C23.8669 43.858 23.8499 43.9296 23.8474 44.0025C23.845 44.0754 23.8572 44.1481 23.8832 44.2162ZM40.554 43.2323C41.5477 39.9455 42.0361 36.5268 42.0025 33.0932C42.0025 24.0472 38.8323 16.2311 34.323 14.236C34.0497 14.1267 33.7217 14.236 33.6124 14.5093C33.5031 14.7826 33.6124 15.1106 33.8857 15.2199C37.9031 16.9963 40.9093 24.4025 40.9093 33.0932C40.932 36.4145 40.4623 39.7208 39.5155 42.9044C39.4726 43.0421 39.4859 43.1912 39.5524 43.3192C39.619 43.4472 39.7334 43.5436 39.8708 43.5876C40.1441 43.6696 40.4447 43.5056 40.554 43.2323ZM50.8298 42.6857C50.8298 41.9899 50.5534 41.3226 50.0614 40.8306C49.5694 40.3385 48.902 40.0621 48.2062 40.0621C47.5104 40.0621 46.8431 40.3385 46.351 40.8306C45.859 41.3226 45.5826 41.9899 45.5826 42.6857C45.5826 43.3816 45.859 44.0489 46.351 44.5409C46.8431 45.0329 47.5104 45.3093 48.2062 45.3093C48.902 45.3093 49.5694 45.0329 50.0614 44.5409C50.5534 44.0489 50.8298 43.3816 50.8298 42.6857ZM49.7366 42.6857C49.7366 43.0916 49.5754 43.4809 49.2884 43.7679C49.0014 44.0549 48.6121 44.2162 48.2062 44.2162C47.8003 44.2162 47.411 44.0549 47.124 43.7679C46.837 43.4809 46.6758 43.0916 46.6758 42.6857C46.6758 42.2798 46.837 41.8906 47.124 41.6036C47.411 41.3165 47.8003 41.1553 48.2062 41.1553C48.6121 41.1553 49.0014 41.3165 49.2884 41.6036C49.5754 41.8906 49.7366 42.2798 49.7366 42.6857ZM15.8211 45.3093C16.5169 45.3093 17.1843 45.0329 17.6763 44.5409C18.1683 44.0489 18.4447 43.3816 18.4447 42.6857C18.4447 41.9899 18.1683 41.3226 17.6763 40.8306C17.1843 40.3385 16.5169 40.0621 15.8211 40.0621C15.1253 40.0621 14.458 40.3385 13.9659 40.8306C13.4739 41.3226 13.1975 41.9899 13.1975 42.6857C13.1975 43.3816 13.4739 44.0489 13.9659 44.5409C14.458 45.0329 15.1253 45.3093 15.8211 45.3093ZM15.8211 44.2162C15.4152 44.2162 15.0259 44.0549 14.7389 43.7679C14.4519 43.4809 14.2907 43.0916 14.2907 42.6857C14.2907 42.2798 14.4519 41.8906 14.7389 41.6036C15.0259 41.3165 15.4152 41.1553 15.8211 41.1553C16.227 41.1553 16.6163 41.3165 16.9033 41.6036C17.1903 41.8906 17.3515 42.2798 17.3515 42.6857C17.3515 43.0916 17.1903 43.4809 16.9033 43.7679C16.6163 44.0549 16.227 44.2162 15.8211 44.2162Z" fill="#D6F6FE"/>
<path d="M32.0546 16.887C32.7505 16.887 33.4178 16.6106 33.9098 16.1185C34.4018 15.6265 34.6782 14.9592 34.6782 14.2634C34.6782 13.5676 34.4018 12.9002 33.9098 12.4082C33.4178 11.9162 32.7505 11.6398 32.0546 11.6398C31.3588 11.6398 30.6915 11.9162 30.1995 12.4082C29.7074 12.9002 29.431 13.5676 29.431 14.2634C29.431 14.9592 29.7074 15.6265 30.1995 16.1185C30.6915 16.6106 31.3588 16.887 32.0546 16.887ZM32.0546 15.7938C31.6487 15.7938 31.2595 15.6326 30.9725 15.3456C30.6854 15.0585 30.5242 14.6693 30.5242 14.2634C30.5242 13.8575 30.6854 13.4682 30.9725 13.1812C31.2595 12.8942 31.6487 12.7329 32.0546 12.7329C32.4605 12.7329 32.8498 12.8942 33.1368 13.1812C33.4238 13.4682 33.5851 13.8575 33.5851 14.2634C33.5851 14.6693 33.4238 15.0585 33.1368 15.3456C32.8498 15.6326 32.4605 15.7938 32.0546 15.7938ZM32.4372 34.9516C31.9486 35.0496 31.4411 34.9531 31.0225 34.6826C30.604 34.412 30.3075 33.9889 30.1962 33.5031C30.0982 33.0145 30.1947 32.5069 30.4653 32.0884C30.7358 31.6699 31.1589 31.3734 31.6447 31.2621C32.1333 31.1641 32.6409 31.2606 33.0594 31.5311C33.4779 31.8017 33.7744 32.2248 33.8857 32.7106C33.9379 32.9528 33.9418 33.203 33.8972 33.4468C33.8527 33.6906 33.7605 33.9232 33.626 34.1313C33.4914 34.3394 33.3172 34.519 33.1132 34.6598C32.9093 34.8005 32.6796 34.8997 32.4372 34.9516Z" fill="#D6F6FE"/>
</svg>
