<svg width="32" height="32" viewBox="0 0 32 32" fill="none" xmlns="http://www.w3.org/2000/svg">
<g clip-path="url(#clip0_1_93)">
<path d="M0.148625 13.6929C0.0723941 14.2272 0.0227911 14.765 0 15.3042H24.3062C24.2213 15.1384 24.1073 14.9889 23.9923 14.8425C19.837 9.47407 17.6017 9.93954 14.4042 9.80317C13.3382 9.75932 12.6152 9.7417 8.37181 9.7417C6.10066 9.7417 3.63156 9.74748 1.22719 9.75389C0.915938 10.594 0.61575 11.4083 0.469594 12.0708H12.9249V13.6929H0.148625ZM24.4978 16.9279H0.0124687C0.0380937 17.3608 0.0784687 17.7879 0.136781 18.2092H22.7427C23.7505 18.2092 24.3146 17.6374 24.4978 16.9279ZM1.40678 22.6345C1.40678 22.6345 5.15441 31.8365 15.9831 32C22.4554 32 28.0166 28.156 30.5427 22.6345H1.40678Z" fill="#100F13"/>
<path d="M15.9829 0C9.99851 0 4.79095 3.28625 2.04092 8.14412C4.19001 8.13962 8.37542 8.13706 8.37542 8.13706H8.37639V8.13547C13.3235 8.13547 13.5074 8.15756 14.4738 8.19791L15.0722 8.21997C17.1566 8.28947 19.7186 8.51322 21.7344 10.0384C22.8286 10.8656 24.4085 12.6914 25.3503 13.9922C26.221 15.1952 26.4714 16.5783 25.8795 17.9033C25.3346 19.1212 24.1622 19.8476 22.7425 19.8476H0.521545C0.521545 19.8476 0.653827 20.4083 0.85217 21.0273H31.1844C31.7231 19.4082 31.9984 17.7132 32 16.0068C32.0003 7.16734 24.8291 0 15.9829 0Z" fill="#100F13"/>
</g>
<defs>
<clipPath id="clip0_1_93">
<rect width="32" height="32" fill="white"/>
</clipPath>
</defs>
</svg>
