<svg width="512" height="512" viewBox="0 0 512 512" fill="none" xmlns="http://www.w3.org/2000/svg">
<path d="M396 56H116C82.8629 56 56 82.8629 56 116V396C56 429.137 82.8629 456 116 456H396C429.137 456 456 429.137 456 396V116C456 82.8629 429.137 56 396 56Z" fill="#3178C6"/>
<path d="M238.031 277.875H288.031V245.844H148.188V277.875H198.188V420.844H238.031V277.875ZM303.656 413.031C309.984 416.312 317.719 418.734 326.312 420.375C334.906 422.016 344.281 422.797 353.656 422.797C363.031 422.797 371.625 421.938 380.219 420.141C388.812 418.344 395.844 415.375 402.094 411.547C408.422 407.406 413.812 402.172 416.938 395.141C420.062 388.109 422.484 380.297 422.484 370.141C422.484 363.031 421.391 356.859 419.281 351.391C417.172 345.922 414.125 341.234 409.906 337.328C405.922 333.188 401.312 329.516 395.844 326.391C390.375 323.266 384.125 319.984 377.094 317.016C371.938 314.906 367.719 312.875 363.031 310.844C358.969 308.813 355.453 306.781 352.875 304.75C349.984 302.641 347.797 300.453 346.234 298.187C344.672 295.844 343.891 293.266 343.891 290.375C343.891 287.719 344.586 285.297 346 283.109C347.414 280.922 349.359 279.125 351.859 277.563C354.359 276 357.484 274.828 361.234 273.969C364.906 273.109 368.969 272.719 373.734 272.719C377.016 272.719 380.453 272.961 383.891 273.453C387.484 273.945 391.156 274.703 394.828 275.719C398.5 276.734 402.094 277.984 405.766 279.547C409.203 281.109 412.406 282.906 415.141 284.938V248.219C409.203 245.953 402.641 244.234 395.609 243.141C388.578 242.047 380.766 241.5 371.391 241.5C362.016 241.5 353.422 242.516 344.828 244.469C336.234 246.422 329.203 249.547 322.953 253.844C316.625 258.063 312.016 263.219 308.109 270.25C304.438 276.812 302.641 284.312 302.641 293.687C302.641 305.406 306 315.562 312.797 323.375C319.516 331.969 329.984 338.219 343.266 344.469C348.656 346.656 353.422 348.844 358.109 350.953C362.797 353.063 366.703 355.25 369.828 357.516C373.188 359.781 375.844 362.281 377.641 364.938C379.594 367.594 380.609 370.719 380.609 374.312C380.609 376.813 380 379.156 378.813 381.344C377.625 383.531 375.766 385.406 373.266 386.969C370.766 388.531 367.719 389.781 363.891 390.719C360.219 391.578 356.078 392.047 350.609 392.047C342.016 392.047 333.422 390.562 325.609 387.594C317.016 384.625 309.203 380.172 303.656 375.531V413.031Z" fill="white"/>
</svg>
