<svg width="250" height="120" viewBox="0 0 250 120" fill="none" xmlns="http://www.w3.org/2000/svg">
<rect width="250" height="120" rx="20" fill="#1F1F1F"/>
<path d="M176.971 47.5988H168.779H151.548C151.221 47.5988 150.956 47.863 150.956 48.19C150.956 48.517 151.221 48.7813 151.548 48.7813H168.487L172.406 53.8719C172.518 54.0168 172.691 54.1025 172.875 54.1025C173.058 54.1025 173.231 54.0168 173.343 53.8719L177.262 48.7813H179.336C179.663 48.7813 179.928 48.517 179.928 48.19C179.928 47.863 179.663 47.5988 179.336 47.5988H176.971Z" fill="#F6E05E"/>
<path d="M151.327 46.4162H179.556C179.737 46.4162 179.906 46.3341 180.019 46.1933C180.131 46.0526 180.173 45.8682 180.132 45.6926C178.552 38.808 172.511 34 165.442 34C158.372 34 152.332 38.808 150.751 45.6926C150.711 45.8682 150.752 46.052 150.865 46.1933C150.977 46.3346 151.147 46.4162 151.327 46.4162ZM172.341 40.7669C172.522 40.4949 172.888 40.4216 173.161 40.6031L174.934 41.7856C175.206 41.9671 175.279 42.3337 175.098 42.6056C174.984 42.7765 174.797 42.8687 174.606 42.8687C174.493 42.8687 174.379 42.8362 174.278 42.7694L172.504 41.5869C172.233 41.4054 172.16 41.0388 172.341 40.7669ZM168.756 42.6045L169.347 41.422C169.493 41.1299 169.847 41.0122 170.141 41.1577C170.433 41.3037 170.551 41.659 170.405 41.9511L169.814 43.1336C169.71 43.3412 169.501 43.4606 169.284 43.4606C169.195 43.4606 169.105 43.4405 169.02 43.3985C168.729 43.2513 168.61 42.8965 168.756 42.6045ZM167.247 38.2008C167.54 38.056 167.894 38.1736 168.04 38.4651L168.632 39.6476C168.778 39.9397 168.659 40.295 168.367 40.4411C168.282 40.4831 168.192 40.5032 168.104 40.5032C167.887 40.5032 167.678 40.3837 167.574 40.1762L166.983 38.9937C166.836 38.7022 166.955 38.3469 167.247 38.2008ZM163.435 37.8745L164.026 36.692C164.172 36.4005 164.527 36.2828 164.819 36.4277C165.111 36.5737 165.23 36.9291 165.084 37.2211L164.492 38.4036C164.389 38.6112 164.18 38.7306 163.963 38.7306C163.874 38.7306 163.783 38.7105 163.699 38.6685C163.407 38.5213 163.289 38.1665 163.435 37.8745ZM162.843 43.1957L163.435 42.0132C163.581 41.7217 163.935 41.6035 164.228 41.7489C164.52 41.895 164.638 42.2503 164.492 42.5424L163.901 43.7249C163.798 43.9324 163.589 44.0518 163.371 44.0518C163.283 44.0518 163.192 44.0317 163.108 43.9898C162.816 43.8425 162.697 43.4878 162.843 43.1957ZM159.561 39.3833C159.853 39.2379 160.208 39.3555 160.354 39.6476L160.945 40.8301C161.091 41.1222 160.973 41.4775 160.681 41.6236C160.596 41.6656 160.506 41.6857 160.417 41.6857C160.2 41.6857 159.992 41.5662 159.888 41.3587L159.296 40.1762C159.15 39.8847 159.269 39.5294 159.561 39.3833ZM156.34 43.1957L156.931 42.0132C157.077 41.7217 157.431 41.6035 157.724 41.7489C158.016 41.895 158.135 42.2503 157.989 42.5424L157.397 43.7249C157.294 43.9324 157.085 44.0518 156.868 44.0518C156.779 44.0518 156.688 44.0317 156.604 43.9898C156.312 43.8425 156.194 43.4878 156.34 43.1957Z" fill="#D69E2E"/>
<path d="M179.32 57.0587H151.548C151.358 57.0587 151.179 57.1498 151.068 57.3035C150.957 57.4578 150.926 57.6559 150.986 57.8356L152.478 62.3403C153.08 64.159 154.772 65.3811 156.688 65.3811H174.189C176.109 65.3811 177.802 64.1561 178.402 62.3321L179.882 57.835C179.942 57.6547 179.91 57.4572 179.799 57.3041C179.688 57.1509 179.51 57.0587 179.32 57.0587ZM159.134 61.5256C159.02 61.6965 158.833 61.7887 158.642 61.7887C158.53 61.7887 158.416 61.7562 158.314 61.6894L156.541 60.5069C156.269 60.3254 156.196 59.9588 156.377 59.6868C156.558 59.4148 156.924 59.3415 157.197 59.523L158.971 60.7055C159.242 60.8871 159.315 61.2536 159.134 61.5256ZM162.719 60.2793L162.128 61.4618C162.024 61.6693 161.816 61.7887 161.598 61.7887C161.51 61.7887 161.419 61.7686 161.335 61.7266C161.042 61.5806 160.924 61.2253 161.07 60.9332L161.661 59.7507C161.808 59.4586 162.162 59.3409 162.455 59.4864C162.746 59.6318 162.865 59.9872 162.719 60.2793ZM165.411 63.4998C165.325 63.5418 165.236 63.5619 165.147 63.5619C164.93 63.5619 164.721 63.4424 164.617 63.2349L164.026 62.0524C163.88 61.7603 163.998 61.405 164.29 61.259C164.583 61.1135 164.938 61.2312 165.084 61.5232L165.675 62.7057C165.822 62.999 165.703 63.3537 165.411 63.4998ZM168.632 59.688L168.04 60.8705C167.937 61.078 167.728 61.1975 167.511 61.1975C167.422 61.1975 167.332 61.1774 167.247 61.1354C166.955 60.9893 166.837 60.634 166.983 60.3419L167.574 59.1594C167.72 58.8679 168.074 58.7503 168.367 58.8951C168.659 59.0406 168.778 59.3959 168.632 59.688ZM171.914 62.9085C171.829 62.9505 171.739 62.9706 171.651 62.9706C171.434 62.9706 171.225 62.8512 171.121 62.6437L170.53 61.4612C170.384 61.1691 170.502 60.8137 170.794 60.6677C171.087 60.5228 171.441 60.6405 171.587 60.932L172.179 62.1145C172.325 62.4078 172.206 62.7625 171.914 62.9085ZM175.135 59.688L174.544 60.8705C174.441 61.078 174.232 61.1975 174.014 61.1975C173.926 61.1975 173.835 61.1774 173.751 61.1354C173.459 60.9893 173.34 60.634 173.486 60.3419L174.078 59.1594C174.224 58.8679 174.578 58.7503 174.871 58.8951C175.163 59.0406 175.281 59.3959 175.135 59.688Z" fill="#D69E2E"/>
<path d="M179.927 49.9637H177.845L174.28 54.5932C173.945 55.0266 173.42 55.285 172.875 55.285C172.33 55.285 171.804 55.0266 171.471 54.595L167.906 49.9637H150.956C149.326 49.9637 148 51.2899 148 52.92C148 54.5501 149.326 55.8762 150.956 55.8762H179.927C181.558 55.8762 182.884 54.5501 182.884 52.92C182.884 51.2899 181.558 49.9637 179.927 49.9637ZM169.112 53.338C168.763 53.6868 168.299 53.879 167.807 53.879C167.314 53.879 166.851 53.6868 166.502 53.338C166.243 53.079 165.823 53.079 165.564 53.338C164.845 54.0576 163.674 54.0576 162.954 53.338C162.703 53.0873 162.268 53.0873 162.017 53.338C161.297 54.0576 160.127 54.0576 159.407 53.338C159.156 53.0873 158.721 53.0873 158.469 53.338C157.75 54.0576 156.579 54.0576 155.859 53.338C155.601 53.079 155.181 53.079 154.922 53.338C154.202 54.0576 153.032 54.0576 152.312 53.338C152.053 53.079 151.633 53.079 151.374 53.338C151.143 53.5692 150.769 53.5692 150.538 53.338C150.307 53.1068 150.307 52.7332 150.538 52.502C151.236 51.8043 152.45 51.8043 153.148 52.502C153.407 52.7609 153.827 52.7609 154.086 52.502C154.805 51.7824 155.976 51.7824 156.696 52.502C156.947 52.7527 157.382 52.7527 157.633 52.502C158.353 51.7824 159.523 51.7824 160.243 52.502C160.494 52.7527 160.929 52.7527 161.181 52.502C161.9 51.7824 163.071 51.7824 163.791 52.502C164.049 52.7609 164.469 52.7609 164.728 52.502C165.448 51.7824 166.618 51.7824 167.338 52.502C167.597 52.7609 168.017 52.7609 168.276 52.502C168.507 52.2708 168.881 52.2708 169.112 52.502C169.343 52.7332 169.343 53.1068 169.112 53.338ZM180.345 53.338C179.986 53.6975 179.513 53.8778 179.041 53.8778C178.568 53.8778 178.095 53.6975 177.736 53.338C177.484 53.0873 177.049 53.0873 176.798 53.338C176.567 53.5692 176.193 53.5692 175.962 53.338C175.731 53.1068 175.731 52.7332 175.962 52.502C176.682 51.7824 177.852 51.7824 178.572 52.502C178.823 52.7527 179.258 52.7527 179.509 52.502C179.741 52.2708 180.114 52.2708 180.345 52.502C180.577 52.7332 180.577 53.1068 180.345 53.338Z" fill="#7C5B06"/>
<ellipse cx="174.199" cy="70.4502" rx="2.32558" ry="1.93798" transform="rotate(-7 174.199 70.4502)" fill="#9B2C2C"/>
<ellipse cx="189.387" cy="70.1083" rx="2.32558" ry="1.93798" transform="rotate(-7 189.387 70.1083)" fill="#9B2C2C"/>
<ellipse cx="186.335" cy="61.15" rx="2.32558" ry="1.93798" transform="rotate(-7 186.335 61.15)" fill="#9B2C2C"/>
<rect x="179.788" y="65.0779" width="16.2791" height="3.87597" transform="rotate(-7 179.788 65.0779)" fill="#276749"/>
<path d="M210.528 68.1854C209.544 63.6171 207.335 58.9751 204.863 55.1682L204.107 55.6598L204.862 55.1683C203.625 53.264 202.321 51.5739 201.05 50.2046C200.075 49.1588 199.129 48.3038 198.198 47.679L198.241 47.6126L197.378 47.1806L197.269 47.1107C197.197 47.0628 197.104 47.0033 197.002 46.9397L196.995 46.9352C196.634 46.7137 196.08 46.4006 195.384 46.1812C194.691 45.9632 193.837 45.8411 192.912 46.0336L192.907 46.0351C192.397 46.1439 191.885 46.3592 191.398 46.6769L191.385 46.6794L191.238 46.7789L191.218 46.7901L190.449 47.3296L190.446 47.3326L190.425 47.3466C189.493 48.0282 188.817 48.8575 188.441 49.773L188.443 49.771C188.063 50.687 188.004 51.6584 188.198 52.5572C188.272 52.8983 188.388 53.2243 188.525 53.538L165.625 72.3313C165.105 72.7576 164.804 73.3255 164.678 73.8797C164.554 74.4195 164.578 74.9413 164.662 75.406C164.713 75.6904 164.775 76.0426 164.854 76.414C164.969 76.9413 165.109 77.5082 165.345 78.0411L165.345 78.0438C165.462 78.3015 165.617 78.5935 165.865 78.8635C166.004 79.0148 166.176 79.1604 166.397 79.2768C166.615 79.3917 166.887 79.4736 167.186 79.4759L167.187 79.4775C167.263 79.4788 177.271 79.6077 187.413 79.7104C192.5 79.762 197.62 79.8069 201.533 79.8262C203.489 79.8342 205.144 79.8383 206.348 79.8314C206.95 79.8292 207.44 79.8233 207.802 79.8151C207.98 79.811 208.131 79.8067 208.262 79.7993L208.319 79.7959L208.27 79.7984C208.359 79.7927 208.492 79.7906 208.666 79.7568L208.708 79.7481L208.815 79.7173L208.873 79.7004L209.004 79.6409L209.057 79.6174L209.109 79.5854C209.118 79.5808 209.197 79.5356 209.277 79.4672C209.36 79.3986 209.443 79.3094 209.513 79.2149L209.526 79.1964L209.557 79.1501L209.573 79.1251L209.603 79.0709L209.63 79.0215L209.606 79.0652C211.32 75.863 211.345 72.0154 210.528 68.1854ZM190.62 68.4115C191.095 68.6535 191.471 69.0762 191.586 69.6186C191.703 70.1608 191.534 70.7 191.2 71.116C190.865 71.5356 190.363 71.8462 189.77 71.9739C189.177 72.1009 188.592 72.0229 188.116 71.7782C187.64 71.5353 187.265 71.1117 187.15 70.571C187.033 70.0289 187.202 69.4888 187.536 69.0729C187.871 68.6551 188.371 68.3438 188.964 68.2169C189.558 68.0898 190.143 68.1678 190.62 68.4115ZM184.832 60.0773C185.124 59.7118 185.561 59.4401 186.076 59.3307C186.592 59.2203 187.101 59.2872 187.518 59.5021C187.933 59.7132 188.264 60.0847 188.367 60.5632C188.469 61.0407 188.321 61.5152 188.028 61.879C187.736 62.2456 187.299 62.5181 186.783 62.6285C186.268 62.7379 185.758 62.6701 185.341 62.4555C184.925 62.2442 184.595 61.8718 184.493 61.3943C184.39 60.9167 184.539 60.442 184.832 60.0773ZM181.94 65.8375L183.557 67.7057L181.814 68.4585L180.548 66.8219L180.366 66.5873L181.94 65.8375ZM172.551 69.5285C172.871 69.1284 173.351 68.8313 173.917 68.7094C174.484 68.5876 175.042 68.6635 175.497 68.8965C175.952 69.1286 176.311 69.5347 176.422 70.0546C176.534 70.5726 176.373 71.0905 176.054 71.4877C175.733 71.8868 175.255 72.1849 174.689 72.3076C174.122 72.4285 173.562 72.3536 173.107 72.1197C172.653 71.8875 172.294 71.4823 172.183 70.9633C172.071 70.4443 172.232 69.9274 172.551 69.5285ZM208.002 78.0074C207.965 78.0084 207.917 78.009 207.877 78.0103C207.838 78.0115 207.805 78.013 207.761 78.014C207.414 78.021 206.934 78.0267 206.339 78.0308C205.173 78.0374 203.561 78.0333 201.662 78.0255C201.49 78.0252 201.311 78.0242 201.134 78.0229C200.841 78.0217 200.547 78.0197 200.241 78.0173C200.058 78.0177 199.87 78.0151 199.682 78.0152C199.268 78.0128 198.853 78.0097 198.421 78.0059C198.41 78.0056 198.399 78.0061 198.389 78.0074C195.067 77.9827 191.24 77.9465 187.431 77.9083C178.336 77.8161 169.345 77.7024 167.544 77.6807C167.366 77.6778 167.245 77.6758 167.225 77.6755L167.218 77.6693C167.212 77.6648 167.204 77.6587 167.19 77.6453C167.166 77.6182 167.138 77.579 167.111 77.5363C167.07 77.4748 167.029 77.3983 166.989 77.3066C166.923 77.1578 166.862 76.9756 166.805 76.7806C166.792 76.7397 166.78 76.6952 166.767 76.6489C166.713 76.4534 166.661 76.2472 166.615 76.0356C166.544 75.7031 166.485 75.3728 166.435 75.0908C166.42 75.0094 166.423 74.9346 166.416 74.8555L201.712 74.6676L202.087 74.6552L202.176 74.2261L202.234 74.0327C202.518 73.2588 203.305 72.5949 204.27 72.3914C205.086 72.2194 206 72.3561 206.853 73.0031C207.253 73.2934 207.632 74.0843 207.83 75.0419C208.038 76.0029 208.082 77.1043 208.002 78.0074ZM191.505 65.8214L191.486 64.5609L191.482 64.2839L195.03 63.9281L194.998 65.5511L191.505 65.8214ZM209.056 75.0944C209.008 75.3722 208.951 75.6443 208.884 75.913C208.882 75.9248 208.88 75.9374 208.877 75.9502C208.838 75.5784 208.787 75.2097 208.711 74.8522C208.477 73.7979 208.107 72.842 207.399 72.2873C206.342 71.4794 205.131 71.2825 204.081 71.5107C203.225 71.6955 202.462 72.1508 201.936 72.7826C200.576 67.1571 198.332 62.7392 196.142 59.5554C194.976 57.8622 193.829 56.5125 192.844 55.5026C191.906 54.5436 191.13 53.906 190.588 53.5498C190.46 53.3714 190.359 53.1845 190.265 52.9975C190.236 52.9408 190.204 52.8862 190.18 52.8308C190.085 52.6163 190.007 52.399 189.96 52.1798C189.929 52.0356 189.909 51.8917 189.899 51.7486C189.897 51.7133 189.9 51.6775 189.9 51.6421C189.895 51.5345 189.893 51.425 189.9 51.3158C189.924 51.0293 189.991 50.741 190.108 50.4574L190.109 50.4563C190.225 50.1736 190.393 49.8906 190.62 49.6119C190.846 49.3351 191.131 49.0644 191.483 48.8057L192.043 48.4135L192.112 48.3661L192.12 48.3643L192.268 48.2583C192.344 48.2028 192.419 48.1705 192.496 48.1258C192.762 47.9689 193.027 47.8513 193.282 47.797C193.289 47.7952 193.296 47.7953 193.302 47.7945C193.458 47.7612 193.614 47.7492 193.767 47.7445C193.824 47.7429 193.879 47.7449 193.934 47.7471C194.053 47.7511 194.169 47.7608 194.284 47.7769C194.325 47.7833 194.366 47.7871 194.407 47.7945C194.562 47.8241 194.714 47.8605 194.86 47.9064C195.077 47.9754 195.28 48.0622 195.467 48.1526C195.513 48.1744 195.556 48.1966 195.599 48.2188C195.627 48.2322 195.649 48.2472 195.676 48.2616L195.641 48.3155L196.527 48.7722C196.976 48.9997 197.482 49.3462 198.02 49.7941C198.562 50.2434 199.139 50.7946 199.731 51.4311C199.754 51.4574 199.778 51.4863 199.803 51.5117C200.048 51.7784 200.296 52.06 200.546 52.3546C200.618 52.4405 200.692 52.5298 200.765 52.6174C200.981 52.879 201.199 53.1492 201.417 53.4289C201.482 53.5132 201.548 53.5972 201.614 53.6831C202.17 54.4123 202.726 55.1994 203.27 56.0285C203.343 56.1401 203.415 56.2537 203.487 56.3653C203.684 56.6725 203.879 56.9862 204.072 57.3037C204.155 57.4414 204.238 57.5775 204.322 57.717C204.555 58.1103 204.783 58.5094 205.007 58.9152C205.048 58.99 205.089 59.0664 205.131 59.142C205.353 59.5499 205.567 59.9639 205.777 60.3822C205.853 60.5325 205.926 60.6848 206.001 60.837C206.164 61.1723 206.324 61.5099 206.479 61.8506C206.543 61.9942 206.61 62.1376 206.674 62.2821C207.096 63.2406 207.48 64.2144 207.816 65.1905C207.859 65.3165 207.899 65.4409 207.94 65.567C208.066 65.9468 208.183 66.3269 208.293 66.706C208.33 66.8369 208.368 66.9662 208.404 67.0963C208.538 67.5869 208.662 68.0768 208.766 68.5629C208.853 68.9627 208.923 69.3581 208.987 69.7508C209.007 69.876 209.024 69.9998 209.042 70.126C209.082 70.3986 209.114 70.6702 209.142 70.9389C209.157 71.0788 209.173 71.2168 209.184 71.3555C209.212 71.6924 209.229 72.0253 209.238 72.3556C209.242 72.5289 209.239 72.6994 209.237 72.8697C209.236 73.0755 209.233 73.2807 209.223 73.4829C209.215 73.6701 209.201 73.8561 209.184 74.0407C209.172 74.2053 209.152 74.3664 209.133 74.5274C209.109 74.7166 209.087 74.9079 209.056 75.0944Z" fill="#ED8936"/>
<path d="M42.56 63C42.12 63 41.75 62.85 41.45 62.55C41.15 62.25 41 61.88 41 61.44V41.13C41 40.67 41.15 40.3 41.45 40.02C41.75 39.72 42.12 39.57 42.56 39.57H48.56C50.06 39.57 51.39 39.9 52.55 40.56C53.71 41.22 54.61 42.14 55.25 43.32C55.91 44.48 56.24 45.82 56.24 47.34C56.24 48.8 55.91 50.1 55.25 51.24C54.61 52.38 53.71 53.27 52.55 53.91C51.39 54.55 50.06 54.87 48.56 54.87H44.12V61.44C44.12 61.88 43.97 62.25 43.67 62.55C43.39 62.85 43.02 63 42.56 63ZM44.12 51.99H48.56C49.48 51.99 50.29 51.79 50.99 51.39C51.69 50.99 52.24 50.44 52.64 49.74C53.04 49.04 53.24 48.24 53.24 47.34C53.24 46.38 53.04 45.54 52.64 44.82C52.24 44.08 51.69 43.5 50.99 43.08C50.29 42.66 49.48 42.45 48.56 42.45H44.12V51.99ZM61.2214 63C60.7814 63 60.4114 62.86 60.1114 62.58C59.8314 62.28 59.6914 61.91 59.6914 61.47V48.12C59.6914 47.66 59.8314 47.29 60.1114 47.01C60.4114 46.73 60.7814 46.59 61.2214 46.59C61.6814 46.59 62.0514 46.73 62.3314 47.01C62.6114 47.29 62.7514 47.66 62.7514 48.12V61.47C62.7514 61.91 62.6114 62.28 62.3314 62.58C62.0514 62.86 61.6814 63 61.2214 63ZM61.2214 43.92C60.6814 43.92 60.2114 43.73 59.8114 43.35C59.4314 42.95 59.2414 42.48 59.2414 41.94C59.2414 41.4 59.4314 40.94 59.8114 40.56C60.2114 40.16 60.6814 39.96 61.2214 39.96C61.7614 39.96 62.2214 40.16 62.6014 40.56C63.0014 40.94 63.2014 41.4 63.2014 41.94C63.2014 42.48 63.0014 42.95 62.6014 43.35C62.2214 43.73 61.7614 43.92 61.2214 43.92ZM70.0041 62.43L67.9641 60.63L78.1641 47.16L80.1741 48.96L70.0041 62.43ZM69.1041 63C68.1641 63 67.6941 62.53 67.6941 61.59C67.6941 60.65 68.1641 60.18 69.1041 60.18H79.3341C80.2741 60.18 80.7441 60.65 80.7441 61.59C80.7441 62.53 80.2741 63 79.3341 63H69.1041ZM68.8041 49.41C67.8641 49.41 67.3941 48.94 67.3941 48C67.3941 47.06 67.8641 46.59 68.8041 46.59H79.0341C79.9741 46.59 80.4441 47.06 80.4441 48C80.4441 48.94 79.9741 49.41 79.0341 49.41H68.8041ZM86.2053 62.43L84.1653 60.63L94.3653 47.16L96.3753 48.96L86.2053 62.43ZM85.3053 63C84.3653 63 83.8953 62.53 83.8953 61.59C83.8953 60.65 84.3653 60.18 85.3053 60.18H95.5353C96.4753 60.18 96.9453 60.65 96.9453 61.59C96.9453 62.53 96.4753 63 95.5353 63H85.3053ZM85.0053 49.41C84.0653 49.41 83.5953 48.94 83.5953 48C83.5953 47.06 84.0653 46.59 85.0053 46.59H95.2353C96.1753 46.59 96.6453 47.06 96.6453 48C96.6453 48.94 96.1753 49.41 95.2353 49.41H85.0053ZM107.101 63.12C105.641 63.12 104.331 62.76 103.171 62.04C102.011 61.3 101.091 60.31 100.411 59.07C99.7505 57.81 99.4205 56.39 99.4205 54.81C99.4205 53.23 99.7805 51.81 100.501 50.55C101.241 49.29 102.231 48.3 103.471 47.58C104.731 46.84 106.141 46.47 107.701 46.47C109.261 46.47 110.661 46.84 111.901 47.58C113.141 48.3 114.121 49.29 114.841 50.55C115.581 51.81 115.951 53.23 115.951 54.81H114.781C114.781 56.39 114.441 57.81 113.761 59.07C113.101 60.31 112.191 61.3 111.031 62.04C109.871 62.76 108.561 63.12 107.101 63.12ZM107.701 60.42C108.721 60.42 109.631 60.18 110.431 59.7C111.231 59.2 111.861 58.53 112.321 57.69C112.781 56.83 113.011 55.87 113.011 54.81C113.011 53.73 112.781 52.77 112.321 51.93C111.861 51.07 111.231 50.4 110.431 49.92C109.631 49.42 108.721 49.17 107.701 49.17C106.701 49.17 105.791 49.42 104.971 49.92C104.171 50.4 103.531 51.07 103.051 51.93C102.591 52.77 102.361 53.73 102.361 54.81C102.361 55.87 102.591 56.83 103.051 57.69C103.531 58.53 104.171 59.2 104.971 59.7C105.791 60.18 106.701 60.42 107.701 60.42ZM114.421 63.03C113.981 63.03 113.611 62.89 113.311 62.61C113.031 62.31 112.891 61.94 112.891 61.5V56.91L113.461 53.73L115.951 54.81V61.5C115.951 61.94 115.801 62.31 115.501 62.61C115.221 62.89 114.861 63.03 114.421 63.03Z" fill="#ED8936"/>
<path d="M48.208 77.12C46.96 77.12 45.832 76.832 44.824 76.256C43.832 75.68 43.04 74.896 42.448 73.904C41.872 72.896 41.576 71.768 41.56 70.52V59.192C41.56 58.904 41.64 58.68 41.8 58.52C41.976 58.344 42.208 58.256 42.496 58.256C42.768 58.256 42.984 58.344 43.144 58.52C43.32 58.68 43.408 58.904 43.408 59.192V66.248C43.936 65.496 44.632 64.896 45.496 64.448C46.376 63.984 47.352 63.752 48.424 63.752C49.656 63.752 50.76 64.048 51.736 64.64C52.712 65.216 53.48 66.008 54.04 67.016C54.616 68.024 54.904 69.16 54.904 70.424C54.904 71.704 54.608 72.848 54.016 73.856C53.44 74.864 52.648 75.664 51.64 76.256C50.632 76.832 49.488 77.12 48.208 77.12ZM48.208 75.44C49.136 75.44 49.968 75.224 50.704 74.792C51.44 74.344 52.016 73.744 52.432 72.992C52.864 72.24 53.08 71.384 53.08 70.424C53.08 69.48 52.864 68.632 52.432 67.88C52.016 67.112 51.44 66.512 50.704 66.08C49.968 65.648 49.136 65.432 48.208 65.432C47.296 65.432 46.472 65.648 45.736 66.08C45 66.512 44.424 67.112 44.008 67.88C43.592 68.632 43.384 69.48 43.384 70.424C43.384 71.384 43.592 72.24 44.008 72.992C44.424 73.744 45 74.344 45.736 74.792C46.472 75.224 47.296 75.44 48.208 75.44ZM64.2408 77.144C63.1048 77.144 62.0888 76.912 61.1928 76.448C60.2968 75.968 59.5848 75.272 59.0568 74.36C58.5448 73.448 58.2888 72.336 58.2888 71.024V64.784C58.2888 64.528 58.3768 64.312 58.5528 64.136C58.7288 63.96 58.9448 63.872 59.2008 63.872C59.4728 63.872 59.6968 63.96 59.8728 64.136C60.0488 64.312 60.1368 64.528 60.1368 64.784V71.024C60.1368 72.016 60.3208 72.832 60.6888 73.472C61.0728 74.112 61.5848 74.592 62.2248 74.912C62.8808 75.232 63.6168 75.392 64.4328 75.392C65.2168 75.392 65.9208 75.24 66.5448 74.936C67.1848 74.632 67.6888 74.216 68.0568 73.688C68.4248 73.16 68.6088 72.56 68.6088 71.888H69.9288C69.8808 72.896 69.6008 73.8 69.0888 74.6C68.5928 75.384 67.9208 76.008 67.0728 76.472C66.2248 76.92 65.2808 77.144 64.2408 77.144ZM69.5208 77C69.2488 77 69.0248 76.92 68.8488 76.76C68.6888 76.584 68.6088 76.352 68.6088 76.064V64.784C68.6088 64.512 68.6888 64.296 68.8488 64.136C69.0248 63.96 69.2488 63.872 69.5208 63.872C69.7928 63.872 70.0168 63.96 70.1928 64.136C70.3688 64.296 70.4568 64.512 70.4568 64.784V76.064C70.4568 76.352 70.3688 76.584 70.1928 76.76C70.0168 76.92 69.7928 77 69.5208 77ZM75.539 68.912C75.587 67.92 75.843 67.032 76.307 66.248C76.787 65.464 77.403 64.848 78.155 64.4C78.923 63.952 79.771 63.728 80.699 63.728C81.435 63.728 82.003 63.832 82.403 64.04C82.803 64.248 82.955 64.552 82.859 64.952C82.795 65.192 82.683 65.352 82.523 65.432C82.379 65.512 82.195 65.544 81.971 65.528C81.763 65.512 81.523 65.496 81.251 65.48C80.355 65.4 79.555 65.496 78.851 65.768C78.163 66.024 77.611 66.424 77.195 66.968C76.795 67.512 76.595 68.16 76.595 68.912H75.539ZM75.683 77C75.395 77 75.171 76.92 75.011 76.76C74.851 76.6 74.771 76.376 74.771 76.088V64.784C74.771 64.496 74.851 64.272 75.011 64.112C75.171 63.952 75.395 63.872 75.683 63.872C75.971 63.872 76.195 63.952 76.355 64.112C76.515 64.272 76.595 64.496 76.595 64.784V76.088C76.595 76.376 76.515 76.6 76.355 76.76C76.195 76.92 75.971 77 75.683 77ZM90.5862 77.12C89.3222 77.12 88.2022 76.84 87.2262 76.28C86.2502 75.704 85.4822 74.912 84.9222 73.904C84.3782 72.896 84.1062 71.744 84.1062 70.448C84.1062 69.136 84.3942 67.976 84.9702 66.968C85.5462 65.96 86.3382 65.176 87.3462 64.616C88.3542 64.04 89.4982 63.752 90.7782 63.752C92.0742 63.752 93.2182 64.04 94.2102 64.616C95.2182 65.176 96.0022 65.96 96.5622 66.968C97.1382 67.976 97.4342 69.136 97.4502 70.448L96.3702 71.024C96.3702 72.208 96.1222 73.264 95.6262 74.192C95.1302 75.104 94.4422 75.824 93.5622 76.352C92.6982 76.864 91.7062 77.12 90.5862 77.12ZM90.8262 82.184C89.5622 82.184 88.4502 81.944 87.4902 81.464C86.5302 81 85.7382 80.36 85.1142 79.544C84.9382 79.352 84.8582 79.144 84.8742 78.92C84.9062 78.696 85.0262 78.512 85.2342 78.368C85.4422 78.224 85.6742 78.176 85.9302 78.224C86.1862 78.272 86.3862 78.392 86.5302 78.584C86.9942 79.16 87.5862 79.624 88.3062 79.976C89.0422 80.328 89.8902 80.504 90.8502 80.504C91.7462 80.504 92.5542 80.288 93.2742 79.856C93.9942 79.424 94.5622 78.816 94.9782 78.032C95.4102 77.248 95.6262 76.328 95.6262 75.272V71.624L96.3222 70.232L97.4502 70.448V75.344C97.4502 76.64 97.1622 77.8 96.5862 78.824C96.0102 79.864 95.2262 80.68 94.2342 81.272C93.2422 81.88 92.1062 82.184 90.8262 82.184ZM90.7782 75.44C91.7222 75.44 92.5542 75.232 93.2742 74.816C94.0102 74.384 94.5862 73.792 95.0022 73.04C95.4182 72.288 95.6262 71.424 95.6262 70.448C95.6262 69.472 95.4182 68.608 95.0022 67.856C94.5862 67.088 94.0102 66.496 93.2742 66.08C92.5542 65.648 91.7222 65.432 90.7782 65.432C89.8342 65.432 88.9942 65.648 88.2582 66.08C87.5222 66.496 86.9462 67.088 86.5302 67.856C86.1142 68.608 85.9062 69.472 85.9062 70.448C85.9062 71.424 86.1142 72.288 86.5302 73.04C86.9462 73.792 87.5222 74.384 88.2582 74.816C88.9942 75.232 89.8342 75.44 90.7782 75.44ZM106.756 77.144C105.62 77.144 104.604 76.912 103.708 76.448C102.812 75.968 102.1 75.272 101.572 74.36C101.06 73.448 100.804 72.336 100.804 71.024V64.784C100.804 64.528 100.892 64.312 101.068 64.136C101.244 63.96 101.46 63.872 101.716 63.872C101.988 63.872 102.212 63.96 102.388 64.136C102.564 64.312 102.652 64.528 102.652 64.784V71.024C102.652 72.016 102.836 72.832 103.204 73.472C103.588 74.112 104.1 74.592 104.74 74.912C105.396 75.232 106.132 75.392 106.948 75.392C107.732 75.392 108.436 75.24 109.06 74.936C109.7 74.632 110.204 74.216 110.572 73.688C110.94 73.16 111.124 72.56 111.124 71.888H112.444C112.396 72.896 112.116 73.8 111.604 74.6C111.108 75.384 110.436 76.008 109.588 76.472C108.74 76.92 107.796 77.144 106.756 77.144ZM112.036 77C111.764 77 111.54 76.92 111.364 76.76C111.204 76.584 111.124 76.352 111.124 76.064V64.784C111.124 64.512 111.204 64.296 111.364 64.136C111.54 63.96 111.764 63.872 112.036 63.872C112.308 63.872 112.532 63.96 112.708 64.136C112.884 64.296 112.972 64.512 112.972 64.784V76.064C112.972 76.352 112.884 76.584 112.708 76.76C112.532 76.92 112.308 77 112.036 77ZM123.239 77.12C121.943 77.12 120.791 76.84 119.783 76.28C118.791 75.704 118.007 74.912 117.431 73.904C116.871 72.896 116.591 71.744 116.591 70.448C116.591 69.136 116.855 67.984 117.383 66.992C117.927 65.984 118.671 65.192 119.615 64.616C120.559 64.04 121.647 63.752 122.879 63.752C124.095 63.752 125.151 64.032 126.047 64.592C126.959 65.136 127.663 65.896 128.159 66.872C128.655 67.848 128.903 68.96 128.903 70.208C128.903 70.464 128.823 70.672 128.663 70.832C128.503 70.976 128.295 71.048 128.039 71.048H117.839V69.512H128.231L127.199 70.256C127.215 69.328 127.047 68.496 126.695 67.76C126.343 67.024 125.839 66.448 125.183 66.032C124.543 65.616 123.775 65.408 122.879 65.408C121.967 65.408 121.167 65.624 120.479 66.056C119.791 66.488 119.255 67.088 118.871 67.856C118.503 68.608 118.319 69.472 118.319 70.448C118.319 71.424 118.527 72.288 118.943 73.04C119.375 73.792 119.959 74.384 120.695 74.816C121.431 75.248 122.279 75.464 123.239 75.464C123.815 75.464 124.391 75.368 124.967 75.176C125.559 74.968 126.031 74.712 126.383 74.408C126.559 74.264 126.759 74.192 126.983 74.192C127.207 74.176 127.399 74.232 127.559 74.36C127.767 74.552 127.871 74.76 127.871 74.984C127.887 75.208 127.799 75.4 127.607 75.56C127.079 76.008 126.407 76.384 125.591 76.688C124.775 76.976 123.991 77.12 123.239 77.12ZM132.797 68.912C132.845 67.92 133.101 67.032 133.565 66.248C134.045 65.464 134.661 64.848 135.413 64.4C136.181 63.952 137.029 63.728 137.957 63.728C138.693 63.728 139.261 63.832 139.661 64.04C140.061 64.248 140.213 64.552 140.117 64.952C140.053 65.192 139.941 65.352 139.781 65.432C139.637 65.512 139.453 65.544 139.229 65.528C139.021 65.512 138.781 65.496 138.509 65.48C137.613 65.4 136.813 65.496 136.109 65.768C135.421 66.024 134.869 66.424 134.453 66.968C134.053 67.512 133.853 68.16 133.853 68.912H132.797ZM132.941 77C132.653 77 132.429 76.92 132.269 76.76C132.109 76.6 132.029 76.376 132.029 76.088V64.784C132.029 64.496 132.109 64.272 132.269 64.112C132.429 63.952 132.653 63.872 132.941 63.872C133.229 63.872 133.453 63.952 133.613 64.112C133.773 64.272 133.853 64.496 133.853 64.784V76.088C133.853 76.376 133.773 76.6 133.613 76.76C133.453 76.92 133.229 77 132.941 77Z" fill="#EDF2F7"/>
</svg>
