<svg width="250" height="120" viewBox="0 0 250 120" fill="none" xmlns="http://www.w3.org/2000/svg">
<g clip-path="url(#clip0_206_2)">
<path d="M22 1H228C239.598 1 249 10.402 249 22V98C249 109.598 239.598 119 228 119H22C10.402 119 1 109.598 1 98V22C1 10.402 10.402 1 22 1Z" fill="white" stroke="#53C1DE" stroke-width="2"/>
<circle cx="212" cy="20" r="75" fill="#53C1DE"/>
<path d="M22.644 53.22C21.544 53.22 20.5907 53.0367 19.784 52.67C18.992 52.2887 18.3687 51.7607 17.914 51.086C17.474 50.3967 17.254 49.59 17.254 48.666H20.004C20.004 49.326 20.246 49.854 20.73 50.25C21.214 50.6313 21.8593 50.822 22.666 50.822C23.458 50.822 24.074 50.6313 24.514 50.25C24.9687 49.8687 25.196 49.348 25.196 48.688C25.196 48.1453 25.042 47.6833 24.734 47.302C24.426 46.906 24.0007 46.6347 23.458 46.488L21.522 45.96C20.2753 45.6227 19.3073 45.0433 18.618 44.222C17.9287 43.386 17.584 42.3813 17.584 41.208C17.584 39.844 18.0387 38.7587 18.948 37.952C19.8573 37.1307 21.082 36.72 22.622 36.72C24.1767 36.72 25.4087 37.1233 26.318 37.93C27.242 38.722 27.704 39.7927 27.704 41.142H24.954C24.954 40.526 24.7413 40.0347 24.316 39.668C23.9053 39.3013 23.3333 39.118 22.6 39.118C21.8813 39.118 21.3167 39.3013 20.906 39.668C20.51 40.02 20.312 40.5187 20.312 41.164C20.312 41.6627 20.4587 42.0953 20.752 42.462C21.06 42.8287 21.5 43.0853 22.072 43.232L24.03 43.782C25.2767 44.1193 26.2373 44.706 26.912 45.542C27.6013 46.3633 27.946 47.3827 27.946 48.6C27.946 49.524 27.726 50.338 27.286 51.042C26.846 51.7313 26.23 52.2667 25.438 52.648C24.646 53.0293 23.7147 53.22 22.644 53.22ZM30.8634 53V50.514H34.9994V43.386H31.3034V40.9H37.7494V50.514H41.4674V53H30.8634ZM36.1874 38.876C35.6301 38.876 35.1901 38.7367 34.8674 38.458C34.5447 38.1647 34.3834 37.776 34.3834 37.292C34.3834 36.808 34.5447 36.4267 34.8674 36.148C35.1901 35.8547 35.6301 35.708 36.1874 35.708C36.7447 35.708 37.1847 35.8547 37.5074 36.148C37.8301 36.4267 37.9914 36.808 37.9914 37.292C37.9914 37.776 37.8301 38.1647 37.5074 38.458C37.1847 38.7367 36.7447 38.876 36.1874 38.876ZM50.3028 53C49.1735 53 48.2715 52.6773 47.5968 52.032C46.9368 51.372 46.6068 50.4847 46.6068 49.37V43.386H43.3288V40.9H46.6068V37.49H49.3788V40.9H54.0208V43.386H49.3788V49.304C49.3788 49.656 49.4741 49.9493 49.6648 50.184C49.8701 50.404 50.1488 50.514 50.5008 50.514H53.8008V53H50.3028ZM62.1962 53.22C61.1696 53.22 60.2749 53.022 59.5122 52.626C58.7496 52.23 58.1556 51.68 57.7302 50.976C57.3196 50.2573 57.1142 49.4213 57.1142 48.468V45.432C57.1142 44.4787 57.3196 43.65 57.7302 42.946C58.1556 42.2273 58.7496 41.67 59.5122 41.274C60.2749 40.878 61.1696 40.68 62.1962 40.68C63.2082 40.68 64.0882 40.878 64.8362 41.274C65.5989 41.67 66.1856 42.2273 66.5962 42.946C67.0216 43.65 67.2342 44.4787 67.2342 45.432V47.61H59.7762V48.468C59.7762 50.184 60.5902 51.042 62.2182 51.042C63.4796 51.042 64.2202 50.624 64.4402 49.788H67.1462C66.9409 50.8293 66.3836 51.6653 65.4742 52.296C64.5796 52.912 63.4869 53.22 62.1962 53.22ZM59.7762 45.432V45.894L64.5722 45.872V45.41C64.5722 44.574 64.3742 43.936 63.9782 43.496C63.5822 43.0413 62.9882 42.814 62.1962 42.814C61.3896 42.814 60.7809 43.0413 60.3702 43.496C59.9742 43.9507 59.7762 44.596 59.7762 45.432ZM17.694 82V65.94H23.04C24.1107 65.94 25.042 66.1453 25.834 66.556C26.6407 66.9667 27.264 67.546 27.704 68.294C28.144 69.0273 28.364 69.8927 28.364 70.89C28.364 71.8873 28.144 72.76 27.704 73.508C27.264 74.2413 26.6407 74.8133 25.834 75.224C25.042 75.6347 24.1107 75.84 23.04 75.84H20.444V82H17.694ZM20.444 73.42H23.04C23.8173 73.42 24.4333 73.1853 24.888 72.716C25.3427 72.2467 25.57 71.638 25.57 70.89C25.57 70.142 25.3427 69.5333 24.888 69.064C24.4333 68.5947 23.8173 68.36 23.04 68.36H20.444V73.42ZM35.7914 82.198C34.2367 82.198 33.0047 81.7727 32.0954 80.922C31.1861 80.0567 30.7314 78.898 30.7314 77.446V74.454C30.7314 73.002 31.1861 71.8507 32.0954 71C33.0047 70.1347 34.2367 69.702 35.7914 69.702C37.3461 69.702 38.5781 70.1347 39.4874 71C40.3967 71.8507 40.8514 72.9947 40.8514 74.432V77.446C40.8514 78.898 40.3967 80.0567 39.4874 80.922C38.5781 81.7727 37.3461 82.198 35.7914 82.198ZM35.7914 79.8C36.5247 79.8 37.0894 79.602 37.4854 79.206C37.8961 78.7953 38.1014 78.2087 38.1014 77.446V74.454C38.1014 73.6913 37.8961 73.112 37.4854 72.716C37.0894 72.3053 36.5247 72.1 35.7914 72.1C35.0581 72.1 34.4861 72.3053 34.0754 72.716C33.6794 73.112 33.4814 73.6913 33.4814 74.454V77.446C33.4814 78.2087 33.6794 78.7953 34.0754 79.206C34.4861 79.602 35.0581 79.8 35.7914 79.8ZM44.4288 82V69.9H47.1128V72.21H47.1788C47.2961 71.418 47.6481 70.802 48.2348 70.362C48.8215 69.9073 49.5695 69.68 50.4788 69.68C51.7255 69.68 52.7228 70.0907 53.4708 70.912C54.2188 71.7187 54.5928 72.826 54.5928 74.234V75.224H51.7108V74.432C51.7108 73.684 51.5128 73.1047 51.1168 72.694C50.7355 72.2687 50.1781 72.056 49.4448 72.056C47.9341 72.056 47.1788 72.8993 47.1788 74.586V82H44.4288ZM63.4942 82C62.3649 82 61.4629 81.6773 60.7882 81.032C60.1282 80.372 59.7982 79.4847 59.7982 78.37V72.386H56.5202V69.9H59.7982V66.49H62.5702V69.9H67.2122V72.386H62.5702V78.304C62.5702 78.656 62.6656 78.9493 62.8562 79.184C63.0616 79.404 63.3402 79.514 63.6922 79.514H66.9922V82H63.4942ZM73.2756 82V73.728H69.9536V71.242H73.2756V69.416C73.2756 68.36 73.6276 67.5167 74.3316 66.886C75.0356 66.2553 75.967 65.94 77.1256 65.94H80.6676V68.36H77.1916C76.8396 68.36 76.5536 68.4627 76.3336 68.668C76.1283 68.8587 76.0256 69.1227 76.0256 69.46V71.242H80.6676V73.728H76.0256V82H73.2756ZM88.557 82.198C87.0024 82.198 85.7704 81.7727 84.861 80.922C83.9517 80.0567 83.497 78.898 83.497 77.446V74.454C83.497 73.002 83.9517 71.8507 84.861 71C85.7704 70.1347 87.0024 69.702 88.557 69.702C90.1117 69.702 91.3437 70.1347 92.253 71C93.1624 71.8507 93.617 72.9947 93.617 74.432V77.446C93.617 78.898 93.1624 80.0567 92.253 80.922C91.3437 81.7727 90.1117 82.198 88.557 82.198ZM88.557 79.8C89.2904 79.8 89.855 79.602 90.251 79.206C90.6617 78.7953 90.867 78.2087 90.867 77.446V74.454C90.867 73.6913 90.6617 73.112 90.251 72.716C89.855 72.3053 89.2904 72.1 88.557 72.1C87.8237 72.1 87.2517 72.3053 86.841 72.716C86.445 73.112 86.247 73.6913 86.247 74.454V77.446C86.247 78.2087 86.445 78.7953 86.841 79.206C87.2517 79.602 87.8237 79.8 88.557 79.8ZM103.706 82C102.504 82 101.536 81.6407 100.802 80.922C100.084 80.2033 99.7244 79.2573 99.7244 78.084V68.426H95.7424V65.94H102.474V78.018C102.474 78.4727 102.599 78.8393 102.848 79.118C103.112 79.382 103.464 79.514 103.904 79.514H107.446V82H103.706ZM110.012 82V79.514H114.148V72.386H110.452V69.9H116.898V79.514H120.616V82H110.012ZM115.336 67.876C114.779 67.876 114.339 67.7367 114.016 67.458C113.693 67.1647 113.532 66.776 113.532 66.292C113.532 65.808 113.693 65.4267 114.016 65.148C114.339 64.8547 114.779 64.708 115.336 64.708C115.893 64.708 116.333 64.8547 116.656 65.148C116.979 65.4267 117.14 65.808 117.14 66.292C117.14 66.776 116.979 67.1647 116.656 67.458C116.333 67.7367 115.893 67.876 115.336 67.876ZM128.131 82.198C126.577 82.198 125.345 81.7727 124.435 80.922C123.526 80.0567 123.071 78.898 123.071 77.446V74.454C123.071 73.002 123.526 71.8507 124.435 71C125.345 70.1347 126.577 69.702 128.131 69.702C129.686 69.702 130.918 70.1347 131.827 71C132.737 71.8507 133.191 72.9947 133.191 74.432V77.446C133.191 78.898 132.737 80.0567 131.827 80.922C130.918 81.7727 129.686 82.198 128.131 82.198ZM128.131 79.8C128.865 79.8 129.429 79.602 129.825 79.206C130.236 78.7953 130.441 78.2087 130.441 77.446V74.454C130.441 73.6913 130.236 73.112 129.825 72.716C129.429 72.3053 128.865 72.1 128.131 72.1C127.398 72.1 126.826 72.3053 126.415 72.716C126.019 73.112 125.821 73.6913 125.821 74.454V77.446C125.821 78.2087 126.019 78.7953 126.415 79.206C126.826 79.602 127.398 79.8 128.131 79.8Z" fill="black"/>
<g filter="url(#filter0_d_206_2)">
<rect x="148" y="20" width="80" height="80" rx="10" fill="white"/>
</g>
<path d="M192.353 59.9608C192.353 57.6299 190.404 55.74 188 55.74C185.596 55.74 183.647 57.6299 183.647 59.9608C183.647 62.292 185.596 64.1817 188 64.1817C190.404 64.1817 192.353 62.292 192.353 59.9608Z" fill="#53C1DE"/>
<path fill-rule="evenodd" clip-rule="evenodd" d="M202.138 52.1248C203.057 48.5028 204.213 41.7862 200.139 39.509C196.085 37.2418 190.809 41.5862 188.023 44.1939C185.245 41.6122 179.82 37.2863 175.75 39.5707C171.697 41.8455 172.947 48.4508 173.887 52.0955C170.106 53.1366 163.625 55.3791 163.625 59.9608C163.625 64.5295 170.099 66.9693 173.858 68.0095C172.914 71.6743 171.727 78.1852 175.785 80.455C179.871 82.7389 185.278 78.5161 188.09 75.8798C190.894 78.5029 196.119 82.7534 200.175 80.4773C204.243 78.194 203.183 71.5674 202.244 67.9016C205.887 66.8591 212.375 64.4725 212.375 59.9608C212.375 55.4232 205.859 53.1625 202.138 52.1248ZM201.676 65.9589C201.059 64.0651 200.227 62.0512 199.208 59.9709C200.18 57.9397 200.981 55.9518 201.58 54.0702C204.308 54.837 210.293 56.5896 210.293 59.9608C210.293 63.3637 204.55 65.1329 201.676 65.9589ZM199.131 78.7297C196.106 80.4279 191.611 76.3631 189.54 74.4315C190.914 72.9746 192.287 71.2811 193.627 69.4005C195.983 69.1978 198.21 68.8663 200.229 68.4138C200.89 71.0068 202.17 77.024 199.131 78.7297ZM176.826 78.7055C173.8 77.0137 175.183 71.2037 175.877 68.5041C177.874 68.9325 180.084 69.2406 182.446 69.4263C183.795 71.2664 185.208 72.9579 186.631 74.4393C184.872 76.0888 179.866 80.4051 176.826 78.7055ZM165.707 59.9608C165.707 56.5452 171.656 54.8054 174.446 54.0405C175.056 55.9643 175.856 57.9759 176.822 60.0101C175.844 62.0745 175.032 64.1179 174.416 66.0645C171.756 65.3261 165.707 63.3785 165.707 59.9608ZM176.794 41.3183C179.832 39.613 184.546 43.766 186.563 45.6352C185.147 47.1098 183.748 48.7885 182.41 50.6181C180.118 50.8241 177.923 51.155 175.905 51.5983C175.148 48.6587 173.758 43.0217 176.794 41.3183ZM195.116 52.8128C196.672 53.0031 198.162 53.2562 199.561 53.566C199.141 54.8715 198.618 56.2367 198.001 57.6361C197.107 55.9916 196.148 54.3801 195.116 52.8128ZM188.023 47.0782C188.984 48.0871 189.946 49.2137 190.892 50.4361C188.973 50.348 187.05 50.3477 185.13 50.4348C186.077 49.2238 187.048 48.0988 188.023 47.0782ZM178.017 57.6346C177.41 56.2401 176.891 54.8689 176.468 53.5447C177.859 53.2429 179.342 52.9962 180.887 52.809C179.853 54.3729 178.895 55.9838 178.017 57.6346ZM180.932 67.2568C179.335 67.084 177.83 66.8499 176.439 66.5564C176.869 65.2089 177.4 63.8082 178.019 62.3835C178.91 64.0516 179.882 65.6781 180.932 67.2568ZM188.081 72.9862C187.094 71.9535 186.109 70.8113 185.148 69.5828C187.078 69.6562 189.013 69.6564 190.943 69.5729C189.994 70.8238 189.035 71.9676 188.081 72.9862ZM198.021 62.3111C198.673 63.7511 199.222 65.1443 199.658 66.469C198.244 66.7818 196.718 67.0336 195.111 67.2207C196.149 65.6236 197.124 63.9871 198.021 62.3111ZM192.464 67.4654C189.511 67.67 186.54 67.6677 183.586 67.4821C181.908 65.1049 180.414 62.6049 179.124 60.0094C180.407 57.4193 181.891 54.9241 183.561 52.5507C186.517 52.3341 189.491 52.3334 192.447 52.552C194.104 54.9253 195.585 57.414 196.898 59.9807C195.6 62.5694 194.109 65.0697 192.464 67.4654ZM199.099 41.2582C202.138 42.9579 200.786 48.9943 200.122 51.6192C198.099 51.1667 195.903 50.83 193.603 50.6207C192.264 48.7713 190.876 47.0897 189.483 45.6342C191.525 43.7247 196.089 39.5752 199.099 41.2582Z" fill="#53C1DE"/>
</g>
<defs>
<filter id="filter0_d_206_2" x="140" y="18" width="90" height="90" filterUnits="userSpaceOnUse" color-interpolation-filters="sRGB">
<feFlood flood-opacity="0" result="BackgroundImageFix"/>
<feColorMatrix in="SourceAlpha" type="matrix" values="0 0 0 0 0 0 0 0 0 0 0 0 0 0 0 0 0 0 127 0" result="hardAlpha"/>
<feOffset dx="-3" dy="3"/>
<feGaussianBlur stdDeviation="2.5"/>
<feComposite in2="hardAlpha" operator="out"/>
<feColorMatrix type="matrix" values="0 0 0 0 0 0 0 0 0 0 0 0 0 0 0 0 0 0 0.25 0"/>
<feBlend mode="normal" in2="BackgroundImageFix" result="effect1_dropShadow_206_2"/>
<feBlend mode="normal" in="SourceGraphic" in2="effect1_dropShadow_206_2" result="shape"/>
</filter>
<clipPath id="clip0_206_2">
<rect width="250" height="120" rx="22" fill="white"/>
</clipPath>
</defs>
</svg>
