<svg width="250" height="120" viewBox="0 0 250 120" fill="none" xmlns="http://www.w3.org/2000/svg">
<g clip-path="url(#clip0_206_2)">
<path d="M22 0.5H228C239.874 0.5 249.5 10.1259 249.5 22V98C249.5 109.874 239.874 119.5 228 119.5H22C10.1259 119.5 0.5 109.874 0.5 98V22C0.5 10.1259 10.1259 0.5 22 0.5Z" fill="white" stroke="#E1E1E1"/>
<circle cx="212" cy="20" r="75" fill="#53C1DE"/>
<path d="M22.644 55.22C21.544 55.22 20.5907 55.0367 19.784 54.67C18.992 54.2887 18.3687 53.7607 17.914 53.086C17.474 52.3967 17.254 51.59 17.254 50.666H20.004C20.004 51.326 20.246 51.854 20.73 52.25C21.214 52.6313 21.8593 52.822 22.666 52.822C23.458 52.822 24.074 52.6313 24.514 52.25C24.9687 51.8687 25.196 51.348 25.196 50.688C25.196 50.1453 25.042 49.6833 24.734 49.302C24.426 48.906 24.0007 48.6347 23.458 48.488L21.522 47.96C20.2753 47.6227 19.3073 47.0433 18.618 46.222C17.9287 45.386 17.584 44.3813 17.584 43.208C17.584 41.844 18.0387 40.7587 18.948 39.952C19.8573 39.1307 21.082 38.72 22.622 38.72C24.1767 38.72 25.4087 39.1233 26.318 39.93C27.242 40.722 27.704 41.7927 27.704 43.142H24.954C24.954 42.526 24.7413 42.0347 24.316 41.668C23.9053 41.3013 23.3333 41.118 22.6 41.118C21.8813 41.118 21.3167 41.3013 20.906 41.668C20.51 42.02 20.312 42.5187 20.312 43.164C20.312 43.6627 20.4587 44.0953 20.752 44.462C21.06 44.8287 21.5 45.0853 22.072 45.232L24.03 45.782C25.2767 46.1193 26.2373 46.706 26.912 47.542C27.6013 48.3633 27.946 49.3827 27.946 50.6C27.946 51.524 27.726 52.338 27.286 53.042C26.846 53.7313 26.23 54.2667 25.438 54.648C24.646 55.0293 23.7147 55.22 22.644 55.22ZM30.8634 55V52.514H34.9994V45.386H31.3034V42.9H37.7494V52.514H41.4674V55H30.8634ZM36.1874 40.876C35.6301 40.876 35.1901 40.7367 34.8674 40.458C34.5447 40.1647 34.3834 39.776 34.3834 39.292C34.3834 38.808 34.5447 38.4267 34.8674 38.148C35.1901 37.8547 35.6301 37.708 36.1874 37.708C36.7447 37.708 37.1847 37.8547 37.5074 38.148C37.8301 38.4267 37.9914 38.808 37.9914 39.292C37.9914 39.776 37.8301 40.1647 37.5074 40.458C37.1847 40.7367 36.7447 40.876 36.1874 40.876ZM50.3028 55C49.1735 55 48.2715 54.6773 47.5968 54.032C46.9368 53.372 46.6068 52.4847 46.6068 51.37V45.386H43.3288V42.9H46.6068V39.49H49.3788V42.9H54.0208V45.386H49.3788V51.304C49.3788 51.656 49.4741 51.9493 49.6648 52.184C49.8701 52.404 50.1488 52.514 50.5008 52.514H53.8008V55H50.3028ZM62.1962 55.22C61.1696 55.22 60.2749 55.022 59.5122 54.626C58.7496 54.23 58.1556 53.68 57.7302 52.976C57.3196 52.2573 57.1142 51.4213 57.1142 50.468V47.432C57.1142 46.4787 57.3196 45.65 57.7302 44.946C58.1556 44.2273 58.7496 43.67 59.5122 43.274C60.2749 42.878 61.1696 42.68 62.1962 42.68C63.2082 42.68 64.0882 42.878 64.8362 43.274C65.5989 43.67 66.1856 44.2273 66.5962 44.946C67.0216 45.65 67.2342 46.4787 67.2342 47.432V49.61H59.7762V50.468C59.7762 52.184 60.5902 53.042 62.2182 53.042C63.4796 53.042 64.2202 52.624 64.4402 51.788H67.1462C66.9409 52.8293 66.3836 53.6653 65.4742 54.296C64.5796 54.912 63.4869 55.22 62.1962 55.22ZM59.7762 47.432V47.894L64.5722 47.872V47.41C64.5722 46.574 64.3742 45.936 63.9782 45.496C63.5822 45.0413 62.9882 44.814 62.1962 44.814C61.3896 44.814 60.7809 45.0413 60.3702 45.496C59.9742 45.9507 59.7762 46.596 59.7762 47.432ZM17.694 84V67.94H23.04C24.1107 67.94 25.042 68.1453 25.834 68.556C26.6407 68.9667 27.264 69.546 27.704 70.294C28.144 71.0273 28.364 71.8927 28.364 72.89C28.364 73.8873 28.144 74.76 27.704 75.508C27.264 76.2413 26.6407 76.8133 25.834 77.224C25.042 77.6347 24.1107 77.84 23.04 77.84H20.444V84H17.694ZM20.444 75.42H23.04C23.8173 75.42 24.4333 75.1853 24.888 74.716C25.3427 74.2467 25.57 73.638 25.57 72.89C25.57 72.142 25.3427 71.5333 24.888 71.064C24.4333 70.5947 23.8173 70.36 23.04 70.36H20.444V75.42ZM35.7914 84.198C34.2367 84.198 33.0047 83.7727 32.0954 82.922C31.1861 82.0567 30.7314 80.898 30.7314 79.446V76.454C30.7314 75.002 31.1861 73.8507 32.0954 73C33.0047 72.1347 34.2367 71.702 35.7914 71.702C37.3461 71.702 38.5781 72.1347 39.4874 73C40.3967 73.8507 40.8514 74.9947 40.8514 76.432V79.446C40.8514 80.898 40.3967 82.0567 39.4874 82.922C38.5781 83.7727 37.3461 84.198 35.7914 84.198ZM35.7914 81.8C36.5247 81.8 37.0894 81.602 37.4854 81.206C37.8961 80.7953 38.1014 80.2087 38.1014 79.446V76.454C38.1014 75.6913 37.8961 75.112 37.4854 74.716C37.0894 74.3053 36.5247 74.1 35.7914 74.1C35.0581 74.1 34.4861 74.3053 34.0754 74.716C33.6794 75.112 33.4814 75.6913 33.4814 76.454V79.446C33.4814 80.2087 33.6794 80.7953 34.0754 81.206C34.4861 81.602 35.0581 81.8 35.7914 81.8ZM44.4288 84V71.9H47.1128V74.21H47.1788C47.2961 73.418 47.6481 72.802 48.2348 72.362C48.8215 71.9073 49.5695 71.68 50.4788 71.68C51.7255 71.68 52.7228 72.0907 53.4708 72.912C54.2188 73.7187 54.5928 74.826 54.5928 76.234V77.224H51.7108V76.432C51.7108 75.684 51.5128 75.1047 51.1168 74.694C50.7355 74.2687 50.1781 74.056 49.4448 74.056C47.9341 74.056 47.1788 74.8993 47.1788 76.586V84H44.4288ZM63.4942 84C62.3649 84 61.4629 83.6773 60.7882 83.032C60.1282 82.372 59.7982 81.4847 59.7982 80.37V74.386H56.5202V71.9H59.7982V68.49H62.5702V71.9H67.2122V74.386H62.5702V80.304C62.5702 80.656 62.6656 80.9493 62.8562 81.184C63.0616 81.404 63.3402 81.514 63.6922 81.514H66.9922V84H63.4942ZM73.2756 84V75.728H69.9536V73.242H73.2756V71.416C73.2756 70.36 73.6276 69.5167 74.3316 68.886C75.0356 68.2553 75.967 67.94 77.1256 67.94H80.6676V70.36H77.1916C76.8396 70.36 76.5536 70.4627 76.3336 70.668C76.1283 70.8587 76.0256 71.1227 76.0256 71.46V73.242H80.6676V75.728H76.0256V84H73.2756ZM88.557 84.198C87.0024 84.198 85.7704 83.7727 84.861 82.922C83.9517 82.0567 83.497 80.898 83.497 79.446V76.454C83.497 75.002 83.9517 73.8507 84.861 73C85.7704 72.1347 87.0024 71.702 88.557 71.702C90.1117 71.702 91.3437 72.1347 92.253 73C93.1624 73.8507 93.617 74.9947 93.617 76.432V79.446C93.617 80.898 93.1624 82.0567 92.253 82.922C91.3437 83.7727 90.1117 84.198 88.557 84.198ZM88.557 81.8C89.2904 81.8 89.855 81.602 90.251 81.206C90.6617 80.7953 90.867 80.2087 90.867 79.446V76.454C90.867 75.6913 90.6617 75.112 90.251 74.716C89.855 74.3053 89.2904 74.1 88.557 74.1C87.8237 74.1 87.2517 74.3053 86.841 74.716C86.445 75.112 86.247 75.6913 86.247 76.454V79.446C86.247 80.2087 86.445 80.7953 86.841 81.206C87.2517 81.602 87.8237 81.8 88.557 81.8ZM103.706 84C102.504 84 101.536 83.6407 100.802 82.922C100.084 82.2033 99.7244 81.2573 99.7244 80.084V70.426H95.7424V67.94H102.474V80.018C102.474 80.4727 102.599 80.8393 102.848 81.118C103.112 81.382 103.464 81.514 103.904 81.514H107.446V84H103.706ZM110.012 84V81.514H114.148V74.386H110.452V71.9H116.898V81.514H120.616V84H110.012ZM115.336 69.876C114.779 69.876 114.339 69.7367 114.016 69.458C113.693 69.1647 113.532 68.776 113.532 68.292C113.532 67.808 113.693 67.4267 114.016 67.148C114.339 66.8547 114.779 66.708 115.336 66.708C115.893 66.708 116.333 66.8547 116.656 67.148C116.979 67.4267 117.14 67.808 117.14 68.292C117.14 68.776 116.979 69.1647 116.656 69.458C116.333 69.7367 115.893 69.876 115.336 69.876ZM128.131 84.198C126.577 84.198 125.345 83.7727 124.435 82.922C123.526 82.0567 123.071 80.898 123.071 79.446V76.454C123.071 75.002 123.526 73.8507 124.435 73C125.345 72.1347 126.577 71.702 128.131 71.702C129.686 71.702 130.918 72.1347 131.827 73C132.737 73.8507 133.191 74.9947 133.191 76.432V79.446C133.191 80.898 132.737 82.0567 131.827 82.922C130.918 83.7727 129.686 84.198 128.131 84.198ZM128.131 81.8C128.865 81.8 129.429 81.602 129.825 81.206C130.236 80.7953 130.441 80.2087 130.441 79.446V76.454C130.441 75.6913 130.236 75.112 129.825 74.716C129.429 74.3053 128.865 74.1 128.131 74.1C127.398 74.1 126.826 74.3053 126.415 74.716C126.019 75.112 125.821 75.6913 125.821 76.454V79.446C125.821 80.2087 126.019 80.7953 126.415 81.206C126.826 81.602 127.398 81.8 128.131 81.8Z" fill="black"/>
<g filter="url(#filter0_d_206_2)">
<rect x="148" y="20" width="80" height="80" rx="10" fill="white"/>
</g>
<path d="M192.353 59.9608C192.353 57.6299 190.404 55.74 188 55.74C185.596 55.74 183.647 57.6299 183.647 59.9608C183.647 62.292 185.596 64.1817 188 64.1817C190.404 64.1817 192.353 62.292 192.353 59.9608Z" fill="#53C1DE"/>
<path fill-rule="evenodd" clip-rule="evenodd" d="M202.138 52.1248C203.057 48.5028 204.213 41.7862 200.139 39.509C196.085 37.2418 190.809 41.5862 188.023 44.1939C185.245 41.6122 179.82 37.2863 175.75 39.5707C171.697 41.8455 172.947 48.4508 173.887 52.0955C170.106 53.1366 163.625 55.3791 163.625 59.9608C163.625 64.5295 170.099 66.9693 173.858 68.0095C172.914 71.6743 171.727 78.1852 175.785 80.455C179.871 82.7389 185.278 78.5161 188.09 75.8798C190.894 78.5029 196.119 82.7534 200.175 80.4773C204.243 78.194 203.183 71.5674 202.244 67.9016C205.887 66.8591 212.375 64.4725 212.375 59.9608C212.375 55.4232 205.859 53.1625 202.138 52.1248ZM201.676 65.9589C201.059 64.0651 200.227 62.0512 199.208 59.9709C200.18 57.9397 200.981 55.9518 201.58 54.0702C204.308 54.837 210.293 56.5896 210.293 59.9608C210.293 63.3637 204.55 65.1329 201.676 65.9589ZM199.131 78.7297C196.106 80.4279 191.611 76.3631 189.54 74.4315C190.914 72.9746 192.287 71.2811 193.627 69.4005C195.983 69.1978 198.21 68.8663 200.229 68.4138C200.89 71.0068 202.17 77.024 199.131 78.7297ZM176.826 78.7055C173.8 77.0137 175.183 71.2037 175.877 68.5041C177.874 68.9325 180.084 69.2406 182.446 69.4263C183.795 71.2664 185.208 72.9579 186.631 74.4393C184.872 76.0888 179.866 80.4051 176.826 78.7055ZM165.707 59.9608C165.707 56.5452 171.656 54.8054 174.446 54.0405C175.056 55.9643 175.856 57.9759 176.822 60.0101C175.844 62.0745 175.032 64.1179 174.416 66.0645C171.756 65.3261 165.707 63.3785 165.707 59.9608ZM176.794 41.3183C179.832 39.613 184.546 43.766 186.563 45.6352C185.147 47.1098 183.748 48.7885 182.41 50.6181C180.118 50.8241 177.923 51.155 175.905 51.5983C175.148 48.6587 173.758 43.0217 176.794 41.3183ZM195.116 52.8128C196.672 53.0031 198.162 53.2562 199.561 53.566C199.141 54.8715 198.618 56.2367 198.001 57.6361C197.107 55.9916 196.148 54.3801 195.116 52.8128ZM188.023 47.0782C188.984 48.0871 189.946 49.2137 190.892 50.4361C188.973 50.348 187.05 50.3477 185.13 50.4348C186.077 49.2238 187.048 48.0988 188.023 47.0782ZM178.017 57.6346C177.41 56.2401 176.891 54.8689 176.468 53.5447C177.859 53.2429 179.342 52.9962 180.887 52.809C179.853 54.3729 178.895 55.9838 178.017 57.6346ZM180.932 67.2568C179.335 67.084 177.83 66.8499 176.439 66.5564C176.869 65.2089 177.4 63.8082 178.019 62.3835C178.91 64.0516 179.882 65.6781 180.932 67.2568ZM188.081 72.9862C187.094 71.9535 186.109 70.8113 185.148 69.5828C187.078 69.6562 189.013 69.6564 190.943 69.5729C189.994 70.8238 189.035 71.9676 188.081 72.9862ZM198.021 62.3111C198.673 63.7511 199.222 65.1443 199.658 66.469C198.244 66.7818 196.718 67.0336 195.111 67.2207C196.149 65.6236 197.124 63.9871 198.021 62.3111ZM192.464 67.4654C189.511 67.67 186.54 67.6677 183.586 67.4821C181.908 65.1049 180.414 62.6049 179.124 60.0094C180.407 57.4193 181.891 54.9241 183.561 52.5507C186.517 52.3341 189.491 52.3334 192.447 52.552C194.104 54.9253 195.585 57.414 196.898 59.9807C195.6 62.5694 194.109 65.0697 192.464 67.4654ZM199.099 41.2582C202.138 42.9579 200.786 48.9943 200.122 51.6192C198.099 51.1667 195.903 50.83 193.603 50.6207C192.264 48.7713 190.876 47.0897 189.483 45.6342C191.525 43.7247 196.089 39.5752 199.099 41.2582Z" fill="#53C1DE"/>
</g>
<defs>
<filter id="filter0_d_206_2" x="140" y="18" width="90" height="90" filterUnits="userSpaceOnUse" color-interpolation-filters="sRGB">
<feFlood flood-opacity="0" result="BackgroundImageFix"/>
<feColorMatrix in="SourceAlpha" type="matrix" values="0 0 0 0 0 0 0 0 0 0 0 0 0 0 0 0 0 0 127 0" result="hardAlpha"/>
<feOffset dx="-3" dy="3"/>
<feGaussianBlur stdDeviation="2.5"/>
<feComposite in2="hardAlpha" operator="out"/>
<feColorMatrix type="matrix" values="0 0 0 0 0 0 0 0 0 0 0 0 0 0 0 0 0 0 0.25 0"/>
<feBlend mode="normal" in2="BackgroundImageFix" result="effect1_dropShadow_206_2"/>
<feBlend mode="normal" in="SourceGraphic" in2="effect1_dropShadow_206_2" result="shape"/>
</filter>
<clipPath id="clip0_206_2">
<rect width="250" height="120" rx="22" fill="white"/>
</clipPath>
</defs>
</svg>
