<svg width="250" height="120" viewBox="0 0 250 120" fill="none" xmlns="http://www.w3.org/2000/svg">
<g clip-path="url(#clip0_104_34)">
<path d="M250 0H0V120H250V0Z" fill="#E5EEF2"/>
<circle cx="212" r="75" fill="#E4D6F4"/>
<path d="M224 20H160C155.582 20 152 23.5817 152 28V92C152 96.4183 155.582 100 160 100H224C228.418 100 232 96.4183 232 92V28C232 23.5817 228.418 20 224 20Z" fill="#A27CCD"/>
<path d="M213.571 41.6761C212.957 40.2641 211.897 39.0482 210.553 38.0001C208.53 36.429 205.833 35.2028 202.677 34.3412C199.522 33.4825 195.905 33 192.056 33C186.19 33.0038 180.869 34.1125 176.885 35.9926C174.892 36.9375 173.226 38.0766 172 39.4428C171.39 40.1262 170.891 40.871 170.541 41.6762C170.193 42.4813 169.999 43.3495 170 44.238V75.7612C169.999 76.6496 170.193 77.5189 170.541 78.3231C171.155 79.7351 172.215 80.9508 173.559 82C175.582 83.5711 178.279 84.7974 181.435 85.659C184.59 86.5175 188.207 86.9992 192.056 87C197.923 86.9951 203.243 85.8877 207.227 84.0065C209.22 83.0617 210.886 81.9234 212.112 80.5564C212.723 79.8738 213.221 79.129 213.571 78.323C213.919 77.5189 214.113 76.6495 214.112 75.7611V44.2379C214.113 43.3494 213.919 42.4812 213.571 41.6761ZM211.07 75.7612C211.069 76.214 210.976 76.6554 210.778 77.1158C210.434 77.917 209.739 78.7786 208.683 79.599C207.105 80.833 204.742 81.9465 201.878 82.7237C199.014 83.5029 195.65 83.9586 192.056 83.9576C186.581 83.9625 181.634 82.8941 178.186 81.257C176.461 80.4433 175.121 79.4879 174.269 78.5296C173.84 78.051 173.532 77.5743 173.334 77.1157C173.136 76.6552 173.043 76.2139 173.042 75.7611V70.5552C174.801 72.1636 177.272 73.4482 180.227 74.398C183.634 75.4864 187.693 76.1115 192.056 76.1125C197.874 76.1096 203.147 75.0058 207.065 73.1563C208.639 72.4096 209.985 71.5354 211.07 70.5409V75.7612ZM211.07 66.8764C210.854 67.3406 210.545 67.806 210.127 68.2759C208.779 69.7942 206.339 71.2236 203.191 72.2249C200.043 73.2319 196.199 73.8312 192.056 73.8303C186.532 73.8332 181.538 72.7609 178.024 71.0934C176.265 70.2634 174.885 69.286 173.985 68.2759C173.568 67.806 173.258 67.3406 173.042 66.8774V60.0479C174.802 61.6562 177.272 62.9409 180.227 63.8905C183.635 64.978 187.694 65.6031 192.056 65.6042C197.874 65.6012 203.148 64.4976 207.065 62.6479C208.64 61.9012 209.986 61.0282 211.07 60.0335V66.8764ZM211.07 56.3689C210.854 56.8332 210.545 57.2984 210.127 57.7675C208.779 59.2858 206.339 60.716 203.191 61.7164C200.043 62.7235 196.199 63.3228 192.056 63.3218C186.532 63.3248 181.538 62.2526 178.024 60.5859C176.265 59.7558 174.885 58.7775 173.985 57.7675C173.568 57.2984 173.258 56.8332 173.042 56.3689V49.5394C174.802 51.1486 177.272 52.4324 180.227 53.383C183.635 54.4714 187.694 55.0965 192.056 55.0965C197.874 55.0937 203.148 53.9908 207.065 52.1404C208.64 51.3936 209.986 50.5206 211.07 49.5259V56.3689ZM211.07 45.8604C210.854 46.3248 210.545 46.791 210.127 47.2601C208.779 48.7794 206.339 50.2086 203.191 51.21C200.043 52.217 196.199 52.8163 192.056 52.8155C186.532 52.8183 181.538 51.746 178.024 50.0786C176.265 49.2476 174.885 48.2701 173.985 47.2602C173.568 46.7911 173.258 46.3249 173.042 45.8615V44.2379C173.043 43.785 173.136 43.3447 173.334 42.8842C173.679 42.0819 174.373 41.2214 175.429 40.4C177.007 39.166 179.37 38.0527 182.234 37.2763C185.098 36.4961 188.462 36.0414 192.056 36.0424C197.531 36.0375 202.478 37.106 205.926 38.743C207.651 39.5557 208.99 40.5112 209.843 41.4704C210.272 41.949 210.58 42.4249 210.778 42.8843C210.976 43.3448 211.069 43.7851 211.07 44.238V45.8604Z" fill="#F9FBFC"/>
<path d="M19.1543 70.9727V51.4492H28.041C32.0332 51.4492 34.0293 53.1947 34.0293 56.6855C34.0293 59.0462 32.4753 61.0013 29.3672 62.5508L35.5605 71H30.9941L25.0469 62.4824V60.8281C28.5104 60.2357 30.2422 58.8913 30.2422 56.7949C30.2422 55.3548 29.431 54.6348 27.8086 54.6348H22.8457V70.9727H19.1543ZM50.668 51.4492V54.5664H40.8789V59.4883H50.2031V62.7285H40.8379V67.8555H50.8594V71H37.2832V51.4492H50.668ZM53.8672 70.1797V66.8984C55.8268 67.6276 58.0417 67.9922 60.5117 67.9922C63.5104 67.9922 65.0098 66.9896 65.0098 64.9844C65.0098 63.526 64.0892 62.7969 62.248 62.7969H59.1855C55.1842 62.7969 53.1836 60.974 53.1836 57.3281C53.1836 53.3177 56.0319 51.3125 61.7285 51.3125C63.916 51.3125 65.9896 51.6315 67.9492 52.2695V55.5508C65.9896 54.8216 63.916 54.457 61.7285 54.457C58.4473 54.457 56.8066 55.4141 56.8066 57.3281C56.8066 58.7865 57.5996 59.5156 59.1855 59.5156H62.248C66.5046 59.5156 68.6328 61.3385 68.6328 64.9844C68.6328 69.0859 65.9258 71.1367 60.5117 71.1367C58.0417 71.1367 55.8268 70.8177 53.8672 70.1797ZM84.4922 51.4492V54.5938H78.8867V71H75.2637V54.5938H69.6582V51.4492H84.4922ZM94.7188 71H91L99.2988 51.4492H103.195L111.672 71H107.775L105.547 65.668H99.0527L100.297 62.5234H104.234L101.158 55.1816L94.7188 71ZM114.064 71V51.4492H122.814C126.807 51.4492 128.803 53.2858 128.803 56.959C128.803 60.9421 126.073 63.3529 120.613 64.1914L120.094 60.9648C123.375 60.3724 125.016 59.0736 125.016 57.0684C125.016 55.446 124.204 54.6348 122.582 54.6348H117.688V71H114.064ZM134.832 51.4492V71H131.209V51.4492H134.832Z" fill="black"/>
</g>
<defs>
<clipPath id="clip0_104_34">
<rect width="250" height="120" fill="white"/>
</clipPath>
</defs>
</svg>
