<svg width="250" height="120" viewBox="0 0 250 120" fill="none" xmlns="http://www.w3.org/2000/svg">
<g clip-path="url(#clip0_801_100)">
<rect width="250" height="120" rx="20" fill="white"/>
<circle cx="55" cy="60" r="75" fill="#F2F4FF"/>
<path d="M108.9 82.34H115.52V85H105.46V71.8H108.9V82.34ZM118.951 73.84C118.258 73.84 117.751 73.7133 117.431 73.46C117.125 73.1933 116.971 72.78 116.971 72.22C116.971 71.6467 117.125 71.2333 117.431 70.98C117.751 70.7133 118.258 70.58 118.951 70.58C119.631 70.58 120.131 70.7133 120.451 70.98C120.771 71.2333 120.931 71.6467 120.931 72.22C120.931 72.78 120.771 73.1933 120.451 73.46C120.131 73.7133 119.631 73.84 118.951 73.84ZM120.651 75V85H117.251V75H120.651ZM127.272 85.2C126.272 85.2 125.338 85.04 124.472 84.72C123.618 84.3867 122.912 83.9133 122.352 83.3L123.952 81.42C124.285 81.8467 124.725 82.2067 125.272 82.5C125.832 82.78 126.452 82.92 127.132 82.92C127.545 82.92 127.885 82.86 128.152 82.74C128.418 82.62 128.552 82.4333 128.552 82.18C128.552 81.9933 128.485 81.8467 128.352 81.74C128.218 81.62 127.952 81.52 127.552 81.44L126.152 81.16C124.898 80.9067 124.005 80.5333 123.472 80.04C122.952 79.5333 122.692 78.8733 122.692 78.06C122.692 77.5133 122.858 76.9933 123.192 76.5C123.525 75.9933 124.038 75.5867 124.732 75.28C125.425 74.96 126.312 74.8 127.392 74.8C128.405 74.8 129.298 74.9467 130.072 75.24C130.845 75.5333 131.458 75.96 131.912 76.52L130.292 78.36C129.972 77.96 129.558 77.6467 129.052 77.42C128.545 77.1933 128.038 77.08 127.532 77.08C127.212 77.08 126.938 77.1133 126.712 77.18C126.498 77.2333 126.338 77.3133 126.232 77.42C126.125 77.5267 126.072 77.66 126.072 77.82C126.072 77.9933 126.152 78.1467 126.312 78.28C126.485 78.4 126.798 78.5067 127.252 78.6L129.072 78.96C130.098 79.1467 130.838 79.4867 131.292 79.98C131.745 80.4733 131.972 81.0667 131.972 81.76C131.972 82.4133 131.798 83 131.452 83.52C131.105 84.04 130.585 84.4533 129.892 84.76C129.198 85.0533 128.325 85.2 127.272 85.2ZM137.916 71.82V81.44C137.916 81.92 138.029 82.2667 138.256 82.48C138.496 82.68 138.822 82.78 139.236 82.78C139.556 82.78 139.829 82.7467 140.056 82.68C140.296 82.6 140.509 82.4867 140.696 82.34L141.056 84.44C140.722 84.68 140.302 84.8667 139.796 85C139.289 85.1333 138.769 85.2 138.236 85.2C137.476 85.2 136.816 85.0933 136.256 84.88C135.709 84.6667 135.282 84.3267 134.976 83.86C134.682 83.3933 134.529 82.7733 134.516 82V72.76L137.916 71.82ZM140.896 75V77.42H132.796V75H140.896Z" fill="#101010"/>
<path d="M110.62 50.6C111.847 50.6 112.927 50.7933 113.86 51.18C114.807 51.5533 115.627 52.1067 116.32 52.84L114.66 55.06C114.087 54.46 113.467 54.0133 112.8 53.72C112.147 53.4133 111.4 53.26 110.56 53.26C110.067 53.26 109.667 53.3133 109.36 53.42C109.053 53.5267 108.833 53.6733 108.7 53.86C108.567 54.0467 108.5 54.26 108.5 54.5C108.5 54.78 108.627 55.02 108.88 55.22C109.147 55.4067 109.573 55.5667 110.16 55.7L112.38 56.2C113.7 56.5067 114.667 56.9533 115.28 57.54C115.893 58.1267 116.2 58.9067 116.2 59.88C116.2 60.8133 115.96 61.6067 115.48 62.26C115 62.9 114.34 63.3867 113.5 63.72C112.66 64.04 111.7 64.2 110.62 64.2C109.74 64.2 108.9 64.1067 108.1 63.92C107.3 63.72 106.58 63.44 105.94 63.08C105.3 62.72 104.76 62.3067 104.32 61.84L105.98 59.54C106.313 59.9267 106.72 60.2733 107.2 60.58C107.693 60.8733 108.227 61.1067 108.8 61.28C109.387 61.4533 109.98 61.54 110.58 61.54C111.047 61.54 111.433 61.4933 111.74 61.4C112.06 61.3067 112.293 61.1667 112.44 60.98C112.587 60.7933 112.66 60.5733 112.66 60.32C112.66 60.04 112.56 59.8067 112.36 59.62C112.16 59.42 111.78 59.2533 111.22 59.12L108.78 58.58C108.033 58.4067 107.367 58.18 106.78 57.9C106.207 57.6067 105.753 57.22 105.42 56.74C105.087 56.2467 104.92 55.6333 104.92 54.9C104.92 54.0733 105.147 53.34 105.6 52.7C106.053 52.0467 106.707 51.5333 107.56 51.16C108.413 50.7867 109.433 50.6 110.62 50.6ZM121.452 64.2C120.772 64.2 120.172 64.0867 119.652 63.86C119.145 63.62 118.745 63.24 118.452 62.72C118.158 62.2 118.012 61.52 118.012 60.68V54H121.412V59.88C121.412 60.52 121.538 60.9667 121.792 61.22C122.045 61.4733 122.405 61.6 122.872 61.6C123.112 61.6 123.338 61.56 123.552 61.48C123.765 61.3867 123.952 61.2533 124.112 61.08C124.272 60.8933 124.392 60.66 124.472 60.38C124.565 60.0867 124.612 59.7467 124.612 59.36V54H128.012V64H124.972L124.872 62.12C124.552 62.8267 124.105 63.3533 123.532 63.7C122.958 64.0333 122.265 64.2 121.452 64.2ZM130.454 68.2V54H133.514L133.694 57.62L133.294 57.2C133.388 56.5333 133.594 55.9467 133.914 55.44C134.234 54.9333 134.648 54.5333 135.154 54.24C135.661 53.9467 136.241 53.8 136.894 53.8C137.721 53.8 138.441 54.0067 139.054 54.42C139.668 54.82 140.141 55.4067 140.474 56.18C140.821 56.94 140.994 57.8667 140.994 58.96C140.994 60.0533 140.821 60.9933 140.474 61.78C140.128 62.5667 139.641 63.1667 139.014 63.58C138.401 63.9933 137.681 64.2 136.854 64.2C135.948 64.2 135.214 63.9333 134.654 63.4C134.094 62.8533 133.721 62.1667 133.534 61.34L133.854 60.86V68.2H130.454ZM135.694 61.7C136.281 61.7 136.741 61.4867 137.074 61.06C137.408 60.62 137.574 59.9333 137.574 59C137.574 58.0667 137.408 57.3867 137.074 56.96C136.754 56.52 136.301 56.3 135.714 56.3C135.341 56.3 135.014 56.4067 134.734 56.62C134.454 56.82 134.234 57.12 134.074 57.52C133.928 57.92 133.854 58.4133 133.854 59C133.854 59.56 133.921 60.0467 134.054 60.46C134.201 60.86 134.414 61.1667 134.694 61.38C134.974 61.5933 135.308 61.7 135.694 61.7ZM147.873 64.2C146.767 64.2 145.807 63.9933 144.993 63.58C144.193 63.1667 143.573 62.5733 143.133 61.8C142.693 61.0267 142.473 60.0933 142.473 59C142.473 57.9067 142.693 56.9733 143.133 56.2C143.573 55.4267 144.187 54.8333 144.973 54.42C145.773 54.0067 146.687 53.8 147.713 53.8C148.767 53.8 149.66 54.0067 150.393 54.42C151.14 54.82 151.707 55.38 152.093 56.1C152.48 56.8067 152.673 57.62 152.673 58.54C152.673 58.78 152.667 59.02 152.653 59.26C152.64 59.5 152.62 59.7 152.593 59.86H144.673V58.04H151.093L149.473 58.66C149.473 57.86 149.327 57.2467 149.033 56.82C148.753 56.3933 148.313 56.18 147.713 56.18C147.287 56.18 146.92 56.28 146.613 56.48C146.32 56.68 146.093 56.9933 145.933 57.42C145.787 57.8467 145.713 58.3933 145.713 59.06C145.713 59.7133 145.8 60.2467 145.973 60.66C146.147 61.06 146.393 61.3533 146.713 61.54C147.033 61.7133 147.42 61.8 147.873 61.8C148.38 61.8 148.78 61.7 149.073 61.5C149.38 61.3 149.607 61.02 149.753 60.66L152.473 61.56C152.287 62.1333 151.96 62.62 151.493 63.02C151.04 63.4067 150.493 63.7 149.853 63.9C149.227 64.1 148.567 64.2 147.873 64.2ZM154.575 64V54H157.575L157.715 56.16C157.969 55.4133 158.342 54.8333 158.835 54.42C159.342 54.0067 159.982 53.8 160.755 53.8C161.009 53.8 161.222 53.82 161.395 53.86C161.582 53.9 161.729 53.9533 161.835 54.02L161.495 56.82C161.362 56.7667 161.189 56.7267 160.975 56.7C160.775 56.66 160.529 56.64 160.235 56.64C159.835 56.64 159.462 56.7267 159.115 56.9C158.769 57.0733 158.489 57.3333 158.275 57.68C158.075 58.0133 157.975 58.44 157.975 58.96V64H154.575ZM163.169 64V54H166.209L166.309 55.94C166.629 55.2333 167.076 54.7 167.649 54.34C168.236 53.98 168.909 53.8 169.669 53.8C170.416 53.8 171.063 53.9667 171.609 54.3C172.156 54.6333 172.563 55.1267 172.829 55.78C173.043 55.34 173.316 54.9733 173.649 54.68C173.996 54.3867 174.389 54.1667 174.829 54.02C175.269 53.8733 175.723 53.8 176.189 53.8C176.856 53.8 177.443 53.9333 177.949 54.2C178.456 54.4533 178.856 54.8467 179.149 55.38C179.456 55.9 179.609 56.5533 179.609 57.34V64H176.209V58.12C176.209 57.48 176.083 57.0333 175.829 56.78C175.589 56.5267 175.263 56.4 174.849 56.4C174.516 56.4 174.209 56.4867 173.929 56.66C173.663 56.82 173.456 57.0667 173.309 57.4C173.163 57.7333 173.089 58.1533 173.089 58.66V64H169.689V58.12C169.689 57.48 169.563 57.0333 169.309 56.78C169.056 56.5267 168.729 56.4 168.329 56.4C168.023 56.4 167.729 56.48 167.449 56.64C167.183 56.8 166.969 57.0533 166.809 57.4C166.649 57.7333 166.569 58.1733 166.569 58.72V64H163.169ZM187.577 57.66C187.577 57.1933 187.444 56.8267 187.177 56.56C186.924 56.28 186.577 56.14 186.137 56.14C185.697 56.14 185.317 56.2533 184.997 56.48C184.691 56.6933 184.477 57.08 184.357 57.64L181.477 56.96C181.664 56 182.157 55.2333 182.957 54.66C183.757 54.0867 184.884 53.8 186.337 53.8C187.311 53.8 188.137 53.9467 188.817 54.24C189.511 54.52 190.037 54.9467 190.397 55.52C190.771 56.08 190.957 56.7733 190.957 57.6V61.26C190.957 61.78 191.191 62.04 191.657 62.04C191.897 62.04 192.091 62.0133 192.237 61.96L192.037 63.9C191.637 64.0867 191.151 64.18 190.577 64.18C190.057 64.18 189.597 64.1 189.197 63.94C188.797 63.7667 188.484 63.5133 188.257 63.18C188.031 62.8333 187.917 62.4 187.917 61.88V61.76L188.297 61.62C188.297 62.1933 188.124 62.6733 187.777 63.06C187.444 63.4467 187.004 63.7333 186.457 63.92C185.924 64.1067 185.364 64.2 184.777 64.2C184.097 64.2 183.504 64.0933 182.997 63.88C182.491 63.6667 182.097 63.36 181.817 62.96C181.551 62.5467 181.417 62.04 181.417 61.44C181.417 60.72 181.631 60.1267 182.057 59.66C182.497 59.18 183.184 58.8467 184.117 58.66L187.897 57.88L187.877 59.68L185.957 60.08C185.557 60.16 185.257 60.28 185.057 60.44C184.871 60.5867 184.777 60.8133 184.777 61.12C184.777 61.4133 184.884 61.6333 185.097 61.78C185.311 61.9267 185.564 62 185.857 62C186.084 62 186.297 61.9667 186.497 61.9C186.711 61.8333 186.897 61.7333 187.057 61.6C187.217 61.4533 187.344 61.2733 187.437 61.06C187.531 60.8467 187.577 60.5933 187.577 60.3V57.66ZM193.579 64V54H196.579L196.719 56.16C196.973 55.4133 197.346 54.8333 197.839 54.42C198.346 54.0067 198.986 53.8 199.759 53.8C200.013 53.8 200.226 53.82 200.399 53.86C200.586 53.9 200.733 53.9533 200.839 54.02L200.499 56.82C200.366 56.7667 200.193 56.7267 199.979 56.7C199.779 56.66 199.533 56.64 199.239 56.64C198.839 56.64 198.466 56.7267 198.119 56.9C197.773 57.0733 197.493 57.3333 197.279 57.68C197.079 58.0133 196.979 58.44 196.979 58.96V64H193.579ZM213.153 54L208.353 59.12L207.713 59.3L204.853 62.5L204.833 59.02L209.373 54H213.153ZM205.573 49.76V64H202.173V49.76H205.573ZM208.873 57L213.373 64H209.613L206.653 59L208.873 57ZM218.967 64.2C217.861 64.2 216.901 63.9933 216.087 63.58C215.287 63.1667 214.667 62.5733 214.227 61.8C213.787 61.0267 213.567 60.0933 213.567 59C213.567 57.9067 213.787 56.9733 214.227 56.2C214.667 55.4267 215.281 54.8333 216.067 54.42C216.867 54.0067 217.781 53.8 218.807 53.8C219.861 53.8 220.754 54.0067 221.487 54.42C222.234 54.82 222.801 55.38 223.187 56.1C223.574 56.8067 223.767 57.62 223.767 58.54C223.767 58.78 223.761 59.02 223.747 59.26C223.734 59.5 223.714 59.7 223.687 59.86H215.767V58.04H222.187L220.567 58.66C220.567 57.86 220.421 57.2467 220.127 56.82C219.847 56.3933 219.407 56.18 218.807 56.18C218.381 56.18 218.014 56.28 217.707 56.48C217.414 56.68 217.187 56.9933 217.027 57.42C216.881 57.8467 216.807 58.3933 216.807 59.06C216.807 59.7133 216.894 60.2467 217.067 60.66C217.241 61.06 217.487 61.3533 217.807 61.54C218.127 61.7133 218.514 61.8 218.967 61.8C219.474 61.8 219.874 61.7 220.167 61.5C220.474 61.3 220.701 61.02 220.847 60.66L223.567 61.56C223.381 62.1333 223.054 62.62 222.587 63.02C222.134 63.4067 221.587 63.7 220.947 63.9C220.321 64.1 219.661 64.2 218.967 64.2ZM229.732 50.82V60.44C229.732 60.92 229.845 61.2667 230.072 61.48C230.312 61.68 230.639 61.78 231.052 61.78C231.372 61.78 231.645 61.7467 231.872 61.68C232.112 61.6 232.325 61.4867 232.512 61.34L232.872 63.44C232.539 63.68 232.119 63.8667 231.612 64C231.105 64.1333 230.585 64.2 230.052 64.2C229.292 64.2 228.632 64.0933 228.072 63.88C227.525 63.6667 227.099 63.3267 226.792 62.86C226.499 62.3933 226.345 61.7733 226.332 61V51.76L229.732 50.82ZM232.712 54V56.42H224.612V54H232.712Z" fill="#101010"/>
<path d="M107.2 44L104.16 33.44H107.088L108.88 41.776L110.768 33.44H113.264L115.2 41.76L116.96 33.44H119.792L116.736 44H113.744L112.496 38.88L112.016 36.304H111.984L111.52 38.88L110.288 44H107.2ZM123.974 44.16C123.088 44.16 122.32 43.9947 121.67 43.664C121.03 43.3333 120.534 42.8587 120.182 42.24C119.83 41.6213 119.654 40.8747 119.654 40C119.654 39.1253 119.83 38.3787 120.182 37.76C120.534 37.1413 121.024 36.6667 121.654 36.336C122.294 36.0053 123.024 35.84 123.846 35.84C124.688 35.84 125.403 36.0053 125.99 36.336C126.587 36.656 127.04 37.104 127.35 37.68C127.659 38.2453 127.814 38.896 127.814 39.632C127.814 39.824 127.808 40.016 127.798 40.208C127.787 40.4 127.771 40.56 127.75 40.688H121.414V39.232H126.55L125.254 39.728C125.254 39.088 125.136 38.5973 124.902 38.256C124.678 37.9147 124.326 37.744 123.846 37.744C123.504 37.744 123.211 37.824 122.966 37.984C122.731 38.144 122.55 38.3947 122.422 38.736C122.304 39.0773 122.246 39.5147 122.246 40.048C122.246 40.5707 122.315 40.9973 122.454 41.328C122.592 41.648 122.79 41.8827 123.046 42.032C123.302 42.1707 123.611 42.24 123.974 42.24C124.379 42.24 124.699 42.16 124.934 42C125.179 41.84 125.36 41.616 125.478 41.328L127.654 42.048C127.504 42.5067 127.243 42.896 126.87 43.216C126.507 43.5253 126.07 43.76 125.558 43.92C125.056 44.08 124.528 44.16 123.974 44.16ZM134.471 44.16C133.949 44.16 133.485 44.0427 133.079 43.808C132.685 43.5733 132.359 43.2533 132.103 42.848C131.847 42.432 131.682 41.9627 131.607 41.44L131.863 41.104L131.719 44H129.335V32.608H132.055V38.512L131.799 38.128C131.949 37.4667 132.253 36.9227 132.711 36.496C133.17 36.0587 133.789 35.84 134.567 35.84C135.186 35.84 135.735 36.0053 136.215 36.336C136.706 36.6667 137.085 37.1467 137.351 37.776C137.629 38.3947 137.767 39.1467 137.767 40.032C137.767 40.896 137.629 41.6373 137.351 42.256C137.074 42.8747 136.69 43.3493 136.199 43.68C135.709 44 135.133 44.16 134.471 44.16ZM133.527 42.16C133.997 42.16 134.365 41.9893 134.631 41.648C134.898 41.296 135.031 40.7467 135.031 40C135.031 39.2533 134.898 38.7093 134.631 38.368C134.365 38.016 133.997 37.84 133.527 37.84C133.218 37.84 132.951 37.9307 132.727 38.112C132.514 38.2827 132.349 38.528 132.231 38.848C132.114 39.168 132.055 39.5573 132.055 40.016C132.055 40.4747 132.114 40.864 132.231 41.184C132.349 41.504 132.519 41.7493 132.743 41.92C132.967 42.08 133.229 42.16 133.527 42.16ZM153.377 44H150.545L149.809 41.616H146.193L145.441 44H142.673L146.385 33.44H149.681L153.377 44ZM146.705 39.744H149.297L148.001 35.472L146.705 39.744ZM154.414 47.36V36H156.862L157.006 38.896L156.686 38.56C156.76 38.0267 156.926 37.5573 157.182 37.152C157.438 36.7467 157.768 36.4267 158.174 36.192C158.579 35.9573 159.043 35.84 159.566 35.84C160.227 35.84 160.803 36.0053 161.294 36.336C161.784 36.656 162.163 37.1253 162.43 37.744C162.707 38.352 162.845 39.0933 162.845 39.968C162.845 40.8427 162.707 41.5947 162.43 42.224C162.152 42.8533 161.763 43.3333 161.262 43.664C160.771 43.9947 160.195 44.16 159.534 44.16C158.808 44.16 158.222 43.9467 157.774 43.52C157.326 43.0827 157.027 42.5333 156.878 41.872L157.134 41.488V47.36H154.414ZM158.606 42.16C159.075 42.16 159.443 41.9893 159.71 41.648C159.976 41.296 160.11 40.7467 160.11 40C160.11 39.2533 159.976 38.7093 159.71 38.368C159.454 38.016 159.091 37.84 158.622 37.84C158.323 37.84 158.062 37.9253 157.838 38.096C157.614 38.256 157.438 38.496 157.31 38.816C157.192 39.136 157.134 39.5307 157.134 40C157.134 40.448 157.187 40.8373 157.294 41.168C157.411 41.488 157.582 41.7333 157.806 41.904C158.03 42.0747 158.296 42.16 158.606 42.16ZM164.445 47.36V36H166.893L167.037 38.896L166.717 38.56C166.791 38.0267 166.957 37.5573 167.213 37.152C167.469 36.7467 167.799 36.4267 168.205 36.192C168.61 35.9573 169.074 35.84 169.597 35.84C170.258 35.84 170.834 36.0053 171.325 36.336C171.815 36.656 172.194 37.1253 172.461 37.744C172.738 38.352 172.877 39.0933 172.877 39.968C172.877 40.8427 172.738 41.5947 172.461 42.224C172.183 42.8533 171.794 43.3333 171.293 43.664C170.802 43.9947 170.226 44.16 169.565 44.16C168.839 44.16 168.253 43.9467 167.805 43.52C167.357 43.0827 167.058 42.5333 166.909 41.872L167.165 41.488V47.36H164.445ZM168.637 42.16C169.106 42.16 169.474 41.9893 169.741 41.648C170.007 41.296 170.141 40.7467 170.141 40C170.141 39.2533 170.007 38.7093 169.741 38.368C169.485 38.016 169.122 37.84 168.653 37.84C168.354 37.84 168.093 37.9253 167.869 38.096C167.645 38.256 167.469 38.496 167.341 38.816C167.223 39.136 167.165 39.5307 167.165 40C167.165 40.448 167.218 40.8373 167.325 41.168C167.442 41.488 167.613 41.7333 167.837 41.904C168.061 42.0747 168.327 42.16 168.637 42.16Z" fill="#7785DB"/>
<g filter="url(#filter0_d_801_100)">
<rect x="23" y="28" width="64" height="64" rx="20" fill="#7785DB"/>
</g>
<path d="M72.25 54.25H69.5283L62.4136 41.7993L60.75 42.75L59.0863 43.7007L65.1142 54.25H44.8857L50.9155 43.7007L47.5863 41.7993L40.4716 54.25H37.75C37.4554 54.2503 37.1648 54.3185 36.9008 54.4492C36.6368 54.5799 36.4064 54.7697 36.2276 55.0038C36.0487 55.2378 35.9262 55.51 35.8694 55.7991C35.8127 56.0881 35.8233 56.3864 35.9004 56.6707L41.2651 76.3434C41.4881 77.1538 41.9707 77.8687 42.6388 78.3786C43.3069 78.8885 44.1238 79.1653 44.9643 79.1667H65.0375C66.7587 79.1667 68.2805 78.0071 68.7367 76.3396L74.1015 56.6688C74.1795 56.3844 74.1907 56.0858 74.1342 55.7963C74.0777 55.5068 73.955 55.2343 73.7757 55.0001C73.5964 54.7659 73.3654 54.5764 73.1008 54.4462C72.8361 54.3161 72.5449 54.2489 72.25 54.25ZM65.0356 75.3333H44.9643L40.2608 58.0833H69.7391L65.0356 75.3333Z" fill="white"/>
<path d="M49.25 61.9166H53.0833V71.5H49.25V61.9166ZM56.9167 61.9166H60.75V71.5H56.9167V61.9166Z" fill="white"/>
</g>
<rect x="1" y="1" width="248" height="118" rx="19" stroke="#F2F4FF" stroke-width="2"/>
<defs>
<filter id="filter0_d_801_100" x="19" y="28" width="72" height="72" filterUnits="userSpaceOnUse" color-interpolation-filters="sRGB">
<feFlood flood-opacity="0" result="BackgroundImageFix"/>
<feColorMatrix in="SourceAlpha" type="matrix" values="0 0 0 0 0 0 0 0 0 0 0 0 0 0 0 0 0 0 127 0" result="hardAlpha"/>
<feOffset dy="4"/>
<feGaussianBlur stdDeviation="2"/>
<feComposite in2="hardAlpha" operator="out"/>
<feColorMatrix type="matrix" values="0 0 0 0 0 0 0 0 0 0 0 0 0 0 0 0 0 0 0.25 0"/>
<feBlend mode="normal" in2="BackgroundImageFix" result="effect1_dropShadow_801_100"/>
<feBlend mode="normal" in="SourceGraphic" in2="effect1_dropShadow_801_100" result="shape"/>
</filter>
<clipPath id="clip0_801_100">
<rect width="250" height="120" rx="20" fill="white"/>
</clipPath>
</defs>
</svg>
