<svg width="250" height="120" viewBox="0 0 250 120" fill="none" xmlns="http://www.w3.org/2000/svg">
<g clip-path="url(#clip0_201_14)">
<rect width="250" height="120" fill="#001D41"/>
<g clip-path="url(#clip1_201_14)">
<path d="M330.439 87.4279C330.465 87.4247 330.497 87.4226 330.524 87.4195L329.239 86.9618L328.316 86.4717C312.982 87.594 299.235 87.5313 286.29 86.2795C244.906 82.2783 220.703 66.9698 197.285 52.166C174.637 37.8481 153.258 24.3223 117.229 22.3975C102.5 21.6085 86.7684 22.7642 69.1204 25.9315C43.7655 30.686 20.1305 40.8952 -2.74035 50.7689C-30.0325 62.557 -58.2534 74.7453 -85.3969 75.249C-103.687 75.6084 -122.524 70.787 -142.401 65.7044C-175.633 57.2089 -216.996 46.6361 -278.597 54.2674L-277.381 54.6488C-277.827 54.7094 -278.268 54.7585 -278.713 54.8212L-277.44 55.1755C-277.901 55.2444 -278.358 55.3019 -278.82 55.373L-277.498 55.7032C-277.97 55.7805 -278.443 55.8453 -278.915 55.9257L-277.567 56.2319C-278.045 56.3176 -278.522 56.3886 -279 56.4775L-275.359 57.2392C-261.373 54.6436 -248.338 53.6279 -235.562 54.1295C-201.938 55.4513 -174.741 67.4056 -150.75 77.9522C-126.51 88.6066 -105.508 97.8397 -78.8472 97.8397C-78.2634 97.8397 -77.6743 97.8356 -77.0798 97.8261C-39.1458 97.2483 -25.1069 87.2607 -8.8495 75.6952C2.68409 67.4881 15.7569 58.1891 39.4027 51.5484C60.437 45.8963 79.2103 43.286 96.8159 43.5765C128.328 44.0927 153.268 53.8494 179.674 64.1798C207.635 75.1194 236.557 86.4289 277.983 88.9357C294.479 89.9347 312.096 89.43 330.317 87.4393C330.327 87.4393 330.338 87.4383 330.349 87.4373C330.381 87.4341 330.412 87.432 330.439 87.4279ZM-148.797 72.3012C-125.507 80.4371 -105.492 87.4602 -80.9915 87.0579C-46.8419 86.4874 -25.5687 75.1779 -3.04288 63.2059C14.085 54.1023 31.7967 44.6883 56.1165 39.1167C74.4121 34.9243 90.5634 33.1228 105.43 33.614C137.308 34.6631 160.413 46.099 184.876 58.2058C198.362 64.8789 212.093 71.6585 228.022 77.1424C213.118 72.3315 199.758 66.4735 186.622 60.7064C160.503 49.2307 135.817 38.3915 101.338 37.566C83.26 37.1292 64.3275 39.4605 43.5904 44.6873C18.8195 50.9277 3.58108 60.1776 -11.1477 69.1235C-29.5813 80.3138 -46.9852 90.8845 -79.4629 91.4018C-101.755 91.7759 -122.816 83.4706 -145.039 74.6983C-154.376 71.0117 -163.839 67.2823 -173.839 63.9624C-165.049 66.6344 -156.743 69.5279 -148.797 72.3012ZM-181.97 59.8516C-169.688 62.7252 -158.378 66.1401 -147.741 69.3638C-125.22 76.1852 -105.725 82.0725 -82.9448 81.6744C-50.8014 81.109 -26.3808 69.4881 -0.52707 57.1859C19.3184 47.7448 39.8326 37.9818 64.4443 32.9055C81.5722 29.3736 96.5717 27.9378 110.345 28.5209C142.701 29.8887 164.781 42.2139 188.156 55.2622C199.891 61.8119 211.812 68.4631 225.58 74.0828C212.752 69.1726 201.186 63.4556 189.806 57.8202C164.781 45.4323 141.14 33.731 106.317 32.5847C89.4594 32.0319 71.7052 33.9431 52.088 38.4374C27.1472 44.1502 9.27094 53.654 -8.02149 62.8444C-29.9422 74.4955 -50.6528 85.5041 -81.4427 86.0182C-102.371 86.3662 -122.705 79.2877 -144.174 71.7902C-155.825 67.7211 -168.239 63.394 -181.97 59.8516ZM-146.605 66.3428C-124.907 71.8905 -106.208 76.6858 -84.898 76.2908C-54.6973 75.7307 -27.1133 63.8172 2.08962 51.2057C24.7428 41.4229 48.1656 31.3078 72.7349 26.6995C88.8915 23.7998 102.994 22.7245 115.839 23.409C149.054 25.1833 170.014 38.4427 192.221 52.4816C202.842 59.1985 213.633 66.0137 226.191 71.8759C214.296 66.7013 203.654 60.768 193.161 54.9153C169.271 41.5828 146.708 28.9901 111.449 27.5C95.7331 26.8364 79.0935 28.3683 60.5962 32.1855C35.2945 37.4029 14.5892 47.2579 -5.43665 56.7878C-30.6588 68.788 -54.485 80.1247 -83.4225 80.6325C-103.029 80.9889 -122.609 75.0598 -143.298 68.7922C-156.923 64.6667 -171.604 60.2299 -188.26 56.9467C-173.138 59.5643 -159.535 63.0366 -146.605 66.3428ZM97.2564 42.5357C77.7029 42.2139 57.3373 44.9611 35.0875 50.9403C10.8845 57.7366 -2.31044 67.1297 -13.9661 75.4172C-29.6875 86.6034 -43.2698 96.264 -77.4885 96.7843C-101.256 97.1469 -122.943 87.617 -145.905 77.5238C-152.921 74.4391 -160.007 71.3273 -167.337 68.4014C-161.281 70.6334 -155.442 72.9323 -149.795 75.1643C-126.33 84.4268 -105.996 92.4593 -80.9119 92.4582C-80.2909 92.4582 -79.6646 92.453 -79.033 92.4426C-43.031 91.8689 -25.9137 81.4779 -6.10013 69.4443C8.49069 60.5852 23.5804 51.4241 47.7729 45.3299C67.2733 40.4166 84.6135 38.218 100.701 38.6026C132.202 39.357 156.294 49.934 181.787 61.1327C196.346 67.5268 211.181 74.0211 228.245 79.1508C212.534 74.7004 198.347 69.1611 184.414 63.7117C157.318 53.1117 131.724 43.1 97.2564 42.5357Z" fill="#003271"/>
</g>
<rect x="157" y="24" width="72" height="72" rx="16" fill="white"/>
<path d="M23.0927 75L18.32 57.5455H20.4677L24.1154 71.7614H24.2859L28.0018 57.5455H30.3881L34.104 71.7614H34.2745L37.9222 57.5455H40.07L35.2972 75H33.1154L29.2631 61.0909H29.1268L25.2745 75H23.0927ZM45.0643 75.3068C44.2347 75.3068 43.4819 75.1506 42.8058 74.8381C42.1296 74.5199 41.5927 74.0625 41.195 73.4659C40.7972 72.8636 40.5984 72.1364 40.5984 71.2841C40.5984 70.5341 40.7461 69.9261 41.0415 69.4602C41.337 68.9886 41.7319 68.6193 42.2262 68.3523C42.7205 68.0852 43.266 67.8864 43.8626 67.7557C44.4648 67.6193 45.07 67.5114 45.6779 67.4318C46.4734 67.3295 47.1183 67.2528 47.6126 67.2017C48.1126 67.1449 48.4762 67.0511 48.7035 66.9205C48.9364 66.7898 49.0529 66.5625 49.0529 66.2386V66.1705C49.0529 65.3295 48.8228 64.6761 48.3626 64.2102C47.908 63.7443 47.2177 63.5114 46.2915 63.5114C45.3313 63.5114 44.5785 63.7216 44.033 64.142C43.4876 64.5625 43.104 65.0114 42.8825 65.4886L40.9734 64.8068C41.3143 64.0114 41.7688 63.392 42.337 62.9489C42.9109 62.5 43.5359 62.1875 44.212 62.0114C44.8938 61.8295 45.5643 61.7386 46.2234 61.7386C46.6438 61.7386 47.1268 61.7898 47.6722 61.892C48.2234 61.9886 48.7546 62.1903 49.266 62.4972C49.783 62.804 50.212 63.267 50.5529 63.8864C50.8938 64.5057 51.0643 65.3352 51.0643 66.375V75H49.0529V73.2273H48.9506C48.8143 73.5114 48.587 73.8153 48.2688 74.1392C47.9506 74.4631 47.5273 74.7386 46.9989 74.9659C46.4705 75.1932 45.8256 75.3068 45.0643 75.3068ZM45.3711 73.5C46.1665 73.5 46.837 73.3438 47.3825 73.0312C47.9336 72.7188 48.3484 72.3153 48.6268 71.821C48.9109 71.3267 49.0529 70.8068 49.0529 70.2614V68.4205C48.9677 68.5227 48.7802 68.6165 48.4904 68.7017C48.2063 68.7812 47.8768 68.8523 47.5018 68.9148C47.1325 68.9716 46.7717 69.0227 46.4194 69.0682C46.0728 69.108 45.7915 69.142 45.5756 69.1705C45.0529 69.2386 44.5643 69.3494 44.1097 69.5028C43.6609 69.6506 43.2972 69.875 43.0188 70.1761C42.7461 70.4716 42.6097 70.875 42.6097 71.3864C42.6097 72.0852 42.8683 72.6136 43.3853 72.9716C43.908 73.3239 44.57 73.5 45.3711 73.5ZM56.7468 57.5455V75H54.7354V57.5455H56.7468ZM62.4421 57.5455V75H60.4308V57.5455H62.4421ZM71.6147 75.2727C70.3533 75.2727 69.2653 74.9943 68.3505 74.4375C67.4414 73.875 66.7397 73.0909 66.2454 72.0852C65.7567 71.0739 65.5124 69.8977 65.5124 68.5568C65.5124 67.2159 65.7567 66.0341 66.2454 65.0114C66.7397 63.983 67.4272 63.1818 68.3079 62.608C69.1942 62.0284 70.2283 61.7386 71.4102 61.7386C72.092 61.7386 72.7653 61.8523 73.43 62.0795C74.0948 62.3068 74.6999 62.6761 75.2454 63.1875C75.7908 63.6932 76.2255 64.3636 76.5494 65.1989C76.8732 66.0341 77.0352 67.0625 77.0352 68.2841V69.1364H66.9442V67.3977H74.9897C74.9897 66.6591 74.842 66 74.5465 65.4205C74.2567 64.8409 73.842 64.3835 73.3022 64.0483C72.7681 63.7131 72.1374 63.5455 71.4102 63.5455C70.609 63.5455 69.9158 63.7443 69.3306 64.142C68.7511 64.5341 68.305 65.0455 67.9925 65.6761C67.68 66.3068 67.5238 66.983 67.5238 67.7045V68.8636C67.5238 69.8523 67.6942 70.6903 68.0352 71.3778C68.3817 72.0597 68.8619 72.5795 69.4755 72.9375C70.0891 73.2898 70.8022 73.4659 71.6147 73.4659C72.1431 73.4659 72.6204 73.392 73.0465 73.2443C73.4783 73.0909 73.8505 72.8636 74.163 72.5625C74.4755 72.2557 74.717 71.875 74.8874 71.4205L76.8306 71.9659C76.6261 72.625 76.2823 73.2045 75.7994 73.7045C75.3164 74.1989 74.7198 74.5852 74.0096 74.8636C73.2994 75.1364 72.5011 75.2727 71.6147 75.2727ZM85.788 61.9091V63.6136H79.0039V61.9091H85.788ZM80.9812 58.7727H82.9925V71.25C82.9925 71.8182 83.0749 72.2443 83.2397 72.5284C83.4102 72.8068 83.6261 72.9943 83.8874 73.0909C84.1545 73.1818 84.4357 73.2273 84.7312 73.2273C84.9528 73.2273 85.1346 73.2159 85.2766 73.1932C85.4187 73.1648 85.5323 73.142 85.6175 73.125L86.0266 74.9318C85.8903 74.983 85.6999 75.0341 85.4556 75.0852C85.2113 75.142 84.9016 75.1705 84.5266 75.1705C83.9585 75.1705 83.4016 75.0483 82.8562 74.804C82.3164 74.5597 81.8675 74.1875 81.5096 73.6875C81.1573 73.1875 80.9812 72.5568 80.9812 71.7955V58.7727ZM96.5522 75H94.3363L100.745 57.5455H102.927L109.336 75H107.12L101.904 60.3068H101.768L96.5522 75ZM97.3704 68.1818H106.302V70.0568H97.3704V68.1818ZM111.782 79.9091V61.9091H113.725V63.9886H113.964C114.112 63.7614 114.316 63.4716 114.578 63.1193C114.845 62.7614 115.225 62.4432 115.72 62.1648C116.22 61.8807 116.896 61.7386 117.748 61.7386C118.85 61.7386 119.822 62.0142 120.663 62.5653C121.504 63.1165 122.16 63.8977 122.632 64.9091C123.103 65.9205 123.339 67.1136 123.339 68.4886C123.339 69.875 123.103 71.0767 122.632 72.0938C122.16 73.1051 121.507 73.8892 120.672 74.446C119.836 74.9972 118.873 75.2727 117.782 75.2727C116.941 75.2727 116.268 75.1335 115.762 74.8551C115.257 74.571 114.868 74.25 114.595 73.892C114.322 73.5284 114.112 73.2273 113.964 72.9886H113.794V79.9091H111.782ZM113.76 68.4545C113.76 69.4432 113.904 70.3153 114.194 71.071C114.484 71.821 114.907 72.4091 115.464 72.8352C116.021 73.2557 116.703 73.4659 117.51 73.4659C118.35 73.4659 119.052 73.2443 119.615 72.8011C120.183 72.3523 120.609 71.75 120.893 70.9943C121.183 70.233 121.328 69.3864 121.328 68.4545C121.328 67.5341 121.186 66.7045 120.902 65.9659C120.623 65.2216 120.2 64.6335 119.632 64.2017C119.069 63.7642 118.362 63.5455 117.51 63.5455C116.691 63.5455 116.004 63.7528 115.447 64.1676C114.89 64.5767 114.47 65.1506 114.186 65.8892C113.902 66.6222 113.76 67.4773 113.76 68.4545ZM126.407 79.9091V61.9091H128.35V63.9886H128.589C128.737 63.7614 128.941 63.4716 129.203 63.1193C129.47 62.7614 129.85 62.4432 130.345 62.1648C130.845 61.8807 131.521 61.7386 132.373 61.7386C133.475 61.7386 134.447 62.0142 135.288 62.5653C136.129 63.1165 136.785 63.8977 137.257 64.9091C137.728 65.9205 137.964 67.1136 137.964 68.4886C137.964 69.875 137.728 71.0767 137.257 72.0938C136.785 73.1051 136.132 73.8892 135.297 74.446C134.461 74.9972 133.498 75.2727 132.407 75.2727C131.566 75.2727 130.893 75.1335 130.387 74.8551C129.882 74.571 129.493 74.25 129.22 73.892C128.947 73.5284 128.737 73.2273 128.589 72.9886H128.419V79.9091H126.407ZM128.385 68.4545C128.385 69.4432 128.529 70.3153 128.819 71.071C129.109 71.821 129.532 72.4091 130.089 72.8352C130.646 73.2557 131.328 73.4659 132.135 73.4659C132.975 73.4659 133.677 73.2443 134.24 72.8011C134.808 72.3523 135.234 71.75 135.518 70.9943C135.808 70.233 135.953 69.3864 135.953 68.4545C135.953 67.5341 135.811 66.7045 135.527 65.9659C135.248 65.2216 134.825 64.6335 134.257 64.2017C133.694 63.7642 132.987 63.5455 132.135 63.5455C131.316 63.5455 130.629 63.7528 130.072 64.1676C129.515 64.5767 129.095 65.1506 128.811 65.8892C128.527 66.6222 128.385 67.4773 128.385 68.4545Z" fill="white"/>
<path d="M20.6399 54H18.3331L21.848 43.8182H24.6222L28.1321 54H25.8253L23.2749 46.1449H23.1953L20.6399 54ZM20.4957 49.9979H25.9446V51.6783H20.4957V49.9979ZM29.3576 54V43.8182H33.3746C34.1469 43.8182 34.8048 43.9657 35.3484 44.2607C35.8919 44.5523 36.3062 44.9583 36.5913 45.4787C36.8796 45.9957 37.0238 46.5923 37.0238 47.2685C37.0238 47.9446 36.878 48.5412 36.5863 49.0582C36.2946 49.5753 35.872 49.978 35.3185 50.2663C34.7683 50.5547 34.1022 50.6989 33.32 50.6989H30.7596V48.9737H32.9719C33.3862 48.9737 33.7276 48.9025 33.9961 48.7599C34.2679 48.6141 34.4701 48.4136 34.6026 48.1584C34.7385 47.8999 34.8065 47.6032 34.8065 47.2685C34.8065 46.9304 34.7385 46.6354 34.6026 46.3835C34.4701 46.1283 34.2679 45.9311 33.9961 45.7919C33.7243 45.6494 33.3796 45.5781 32.962 45.5781H31.5103V54H29.3576ZM40.5748 43.8182V54H38.4221V43.8182H40.5748ZM45.5861 54V43.8182H49.6032C50.3721 43.8182 51.0284 43.9557 51.5719 44.2308C52.1188 44.5026 52.5347 44.8887 52.8198 45.3892C53.1081 45.8864 53.2523 46.4714 53.2523 47.1442C53.2523 47.8203 53.1065 48.402 52.8148 48.8892C52.5231 49.3731 52.1006 49.7443 51.5471 50.0028C50.9969 50.2614 50.3307 50.3906 49.5485 50.3906H46.8588V48.6605H49.2005C49.6114 48.6605 49.9528 48.6042 50.2246 48.4915C50.4964 48.3788 50.6986 48.2098 50.8311 47.9844C50.967 47.759 51.035 47.4789 51.035 47.1442C51.035 46.8061 50.967 46.5211 50.8311 46.2891C50.6986 46.0571 50.4947 45.8814 50.2196 45.7621C49.9479 45.6394 49.6048 45.5781 49.1905 45.5781H47.7388V54H45.5861ZM51.0847 49.3665L53.6152 54H51.2388L48.763 49.3665H51.0847ZM54.7736 54V43.8182H61.6344V45.593H56.9263V48.0192H61.2814V49.794H56.9263V52.2251H61.6543V54H54.7736ZM68.8693 46.7464C68.8295 46.3454 68.6589 46.0339 68.3572 45.8118C68.0556 45.5897 67.6463 45.4787 67.1293 45.4787C66.7779 45.4787 66.4813 45.5284 66.2393 45.6278C65.9974 45.724 65.8118 45.8582 65.6825 46.0305C65.5566 46.2029 65.4936 46.3984 65.4936 46.6172C65.487 46.7995 65.5251 46.9586 65.608 47.0945C65.6941 47.2304 65.8118 47.348 65.9609 47.4474C66.1101 47.5436 66.2824 47.6281 66.478 47.701C66.6735 47.7706 66.8823 47.8303 67.1044 47.88L68.0192 48.0987C68.4633 48.1982 68.871 48.3307 69.2422 48.4964C69.6134 48.6622 69.9349 48.866 70.2067 49.108C70.4785 49.3499 70.6889 49.6349 70.8381 49.9631C70.9905 50.2912 71.0684 50.6674 71.0717 51.0916C71.0684 51.7147 70.9093 52.255 70.5945 52.7124C70.2829 53.1664 69.8321 53.5194 69.2422 53.7713C68.6555 54.0199 67.9479 54.1442 67.1193 54.1442C66.2973 54.1442 65.5814 54.0182 64.9716 53.7663C64.3651 53.5144 63.8911 53.1416 63.5497 52.6477C63.2116 52.1506 63.0343 51.5357 63.0178 50.8033H65.1009C65.1241 51.1446 65.2218 51.4297 65.3942 51.6584C65.5698 51.8838 65.8035 52.0545 66.0952 52.1705C66.3902 52.2831 66.7232 52.3395 67.0945 52.3395C67.459 52.3395 67.7756 52.2865 68.044 52.1804C68.3158 52.0743 68.5263 51.9268 68.6754 51.7379C68.8246 51.549 68.8991 51.3319 68.8991 51.0866C68.8991 50.858 68.8312 50.6657 68.6953 50.5099C68.5627 50.3542 68.3672 50.2216 68.1087 50.1122C67.8535 50.0028 67.5402 49.9034 67.169 49.8139L66.0604 49.5355C65.2019 49.3267 64.5241 49.0002 64.027 48.5561C63.5298 48.112 63.2829 47.5137 63.2862 46.7614C63.2829 46.1449 63.447 45.6063 63.7784 45.1456C64.1132 44.6849 64.5722 44.3253 65.1555 44.0668C65.7389 43.8082 66.4018 43.679 67.1442 43.679C67.8999 43.679 68.5594 43.8082 69.1229 44.0668C69.6896 44.3253 70.1304 44.6849 70.4453 45.1456C70.7602 45.6063 70.9226 46.1399 70.9325 46.7464H68.8693ZM72.1319 45.593V43.8182H80.4941V45.593H77.377V54H75.2491V45.593H72.1319Z" fill="#5BA6FF"/>
<g clip-path="url(#clip2_201_14)">
<path d="M213.168 65.3476C212.912 64.5729 212.242 64.0332 211.375 63.9036C210.967 63.8426 210.499 63.8687 209.945 63.9829C208.98 64.182 208.263 64.2578 207.741 64.2726C209.713 60.9417 211.318 57.1433 212.241 53.5678C213.734 47.7864 212.936 45.1526 212.004 43.9612C209.536 40.808 205.936 39.1139 201.592 39.062C199.275 39.0337 197.241 39.4912 196.18 39.8201C195.192 39.6459 194.129 39.5486 193.014 39.5305C190.925 39.4972 189.079 39.9527 187.501 40.8888C186.628 40.5935 185.226 40.1772 183.608 39.9115C179.801 39.2864 176.732 39.7735 174.488 41.359C171.77 43.2787 170.51 46.614 170.744 51.2723C170.817 52.7514 171.645 57.2513 172.948 61.519C173.696 63.9719 174.495 66.009 175.32 67.574C176.492 69.7931 177.745 71.1 179.151 71.5693C179.94 71.832 181.373 72.0159 182.88 70.7611C183.071 70.9923 183.325 71.2222 183.664 71.4356C184.093 71.7065 184.618 71.9278 185.143 72.059C187.033 72.5316 188.803 72.4133 190.314 71.7511C190.323 72.0197 190.33 72.2764 190.336 72.498C190.346 72.8575 190.356 73.21 190.37 73.5396C190.459 75.7687 190.611 77.5019 191.06 78.7145C191.085 78.7813 191.118 78.8829 191.153 78.9906C191.377 79.677 191.752 80.8259 192.705 81.7259C193.693 82.658 194.888 82.9439 195.982 82.9438C196.53 82.9438 197.054 82.8719 197.513 82.7734C199.15 82.4227 201.008 81.8883 202.353 79.9737C203.624 78.1637 204.242 75.4375 204.354 71.1419C204.369 71.0205 204.382 70.9045 204.395 70.794C204.404 70.7194 204.412 70.6431 204.421 70.567L204.721 70.5933L204.798 70.5986C206.465 70.6745 208.504 70.321 209.755 69.7395C210.745 69.2804 213.914 67.6071 213.168 65.3476Z" fill="black"/>
<path d="M210.318 65.7871C205.361 66.8095 205.02 65.1313 205.02 65.1313C210.254 57.3658 212.441 47.5086 210.553 45.0961C205.403 38.5153 196.487 41.6276 196.338 41.7084L196.29 41.717C195.311 41.5137 194.215 41.3926 192.983 41.3725C190.741 41.3357 189.039 41.9605 187.748 42.9394C187.748 42.9394 171.843 36.3872 172.583 51.1801C172.74 54.3272 177.094 74.9923 182.286 68.7505C184.184 66.4681 186.018 64.5382 186.018 64.5382C186.928 65.1432 188.019 65.4519 189.162 65.341L189.251 65.2656C189.223 65.549 189.236 65.8262 189.286 66.1543C187.949 67.6488 188.342 67.9112 185.668 68.4617C182.962 69.0193 184.551 70.0121 185.589 70.2715C186.847 70.5861 189.758 71.0318 191.725 68.2787L191.646 68.5928C192.17 69.0126 192.538 71.3234 192.477 73.4181C192.415 75.5129 192.374 76.9511 192.787 78.0744C193.2 79.1977 193.611 81.7252 197.127 80.972C200.064 80.3425 201.586 78.7113 201.798 75.9904C201.948 74.056 202.288 74.342 202.31 72.6126L202.582 71.7938C202.897 69.1716 202.632 68.3257 204.442 68.7192L204.882 68.7578C206.214 68.8184 207.957 68.5436 208.98 68.068C211.183 67.0456 212.49 65.3385 210.317 65.7871H210.318Z" fill="#336791"/>
<path d="M188.679 52.5875C188.233 52.5253 187.828 52.5829 187.624 52.7378C187.508 52.825 187.473 52.926 187.463 52.9956C187.438 53.1797 187.567 53.3833 187.646 53.4883C187.87 53.7856 188.198 53.99 188.522 54.035C188.569 54.0415 188.616 54.0447 188.662 54.0447C189.203 54.0447 189.695 53.6235 189.738 53.3126C189.793 52.9233 189.227 52.6638 188.679 52.5875Z" fill="white"/>
<path d="M203.477 52.5998C203.434 52.2947 202.891 52.2076 202.376 52.2793C201.861 52.351 201.362 52.5833 201.404 52.8891C201.437 53.127 201.866 53.5331 202.375 53.533C202.418 53.533 202.461 53.5301 202.505 53.524C202.844 53.477 203.093 53.2615 203.211 53.1372C203.392 52.9481 203.496 52.737 203.477 52.5998Z" fill="white"/>
<path d="M211.967 65.6709C211.778 65.0994 211.17 64.9154 210.159 65.1242C207.158 65.7435 206.084 65.3145 205.731 65.0547C208.063 61.5012 209.982 57.2061 211.017 53.1984C211.508 51.3001 211.778 49.5372 211.8 48.1003C211.825 46.5229 211.556 45.364 211.002 44.656C208.769 41.8018 205.49 40.2708 201.522 40.2288C198.794 40.1981 196.489 40.8964 196.042 41.0926C195.101 40.8586 194.075 40.7149 192.958 40.6966C190.91 40.6635 189.14 41.1538 187.674 42.1532C187.038 41.9163 185.392 41.3515 183.38 41.0274C179.901 40.4672 177.137 40.8916 175.165 42.2892C172.811 43.9568 171.724 46.9378 171.935 51.1491C172.005 52.566 172.813 56.9246 174.087 61.0989C175.764 66.5928 177.587 69.7031 179.505 70.3428C179.729 70.4176 179.988 70.4701 180.273 70.4701C180.973 70.4701 181.831 70.1546 182.724 69.0817C184.206 67.2982 185.59 65.8036 186.1 65.2606C186.854 65.6654 187.683 65.8913 188.53 65.914C188.531 65.9362 188.534 65.9583 188.536 65.9804C188.366 66.182 188.226 66.3587 188.107 66.5096C187.52 67.2547 187.398 67.4098 185.509 67.7989C184.971 67.9098 183.544 68.204 183.523 69.2047C183.5 70.2979 185.21 70.7571 185.405 70.8058C186.084 70.9758 186.738 71.0596 187.362 71.0596C188.879 71.0595 190.214 70.5609 191.281 69.5961C191.248 73.4938 191.411 77.3345 191.879 78.5047C192.262 79.4626 193.199 81.8038 196.156 81.8036C196.59 81.8036 197.068 81.7532 197.594 81.6406C200.68 80.9787 202.021 79.6144 202.539 76.6067C202.817 74.9992 203.293 71.1606 203.517 69.1017C203.99 69.2491 204.598 69.3166 205.256 69.3165C206.628 69.3165 208.211 69.025 209.204 68.5642C210.319 68.0462 212.332 66.7751 211.967 65.6709ZM204.616 51.7574C204.606 52.3653 204.522 52.9171 204.433 53.4932C204.338 54.1127 204.239 54.7532 204.215 55.5307C204.19 56.2874 204.284 57.0741 204.376 57.8348C204.561 59.3714 204.75 60.9534 204.016 62.5145C203.902 62.312 203.792 62.091 203.691 61.8464C203.6 61.6254 203.402 61.2703 203.128 60.7789C202.062 58.8663 199.564 54.3874 200.843 52.5597C201.223 52.0156 202.19 51.4564 204.616 51.7574ZM201.675 41.4597C205.231 41.5382 208.044 42.8684 210.035 45.413C211.562 47.3648 209.88 56.246 205.012 63.9078C204.964 63.8467 204.915 63.785 204.864 63.7217C204.844 63.6964 204.823 63.6707 204.802 63.6447C206.061 61.5668 205.814 59.511 205.596 57.6883C205.506 56.9403 205.421 56.2338 205.442 55.5702C205.465 54.8667 205.558 54.2635 205.647 53.6802C205.758 52.9613 205.871 52.2175 205.839 51.3406C205.863 51.2487 205.872 51.14 205.86 51.011C205.781 50.1701 204.821 47.6537 202.864 45.3759C201.794 44.1302 200.233 42.7359 198.102 41.7956C199.018 41.6056 200.272 41.4285 201.675 41.4597ZM181.779 68.2963C180.796 69.4786 180.117 69.252 179.893 69.1777C178.438 68.6923 176.75 65.617 175.261 60.7403C173.973 56.5206 173.221 52.2775 173.161 51.0877C172.973 47.3247 173.885 44.7022 175.873 43.2929C179.106 40.9994 184.424 42.3721 186.56 43.0684C186.529 43.0987 186.497 43.127 186.467 43.1578C182.961 46.6985 183.044 52.7479 183.053 53.1176C183.053 53.2603 183.064 53.4623 183.081 53.7402C183.141 54.7576 183.253 56.6513 182.954 58.7959C182.675 60.7887 183.289 62.7392 184.639 64.1473C184.778 64.2931 184.924 64.4299 185.075 64.5587C184.474 65.2021 183.169 66.6246 181.779 68.2963ZM185.526 63.2974C184.438 62.1626 183.944 60.5839 184.17 58.9659C184.487 56.7005 184.37 54.7274 184.307 53.6675C184.298 53.5192 184.29 53.3892 184.286 53.2866C184.798 52.8326 187.171 51.5608 188.864 51.9486C189.637 52.1256 190.107 52.6515 190.303 53.5562C191.316 58.24 190.437 60.1922 189.731 61.7609C189.585 62.0841 189.448 62.3896 189.33 62.7057L189.239 62.95C189.009 63.5677 188.795 64.142 188.662 64.6874C187.506 64.6839 186.381 64.19 185.526 63.2974ZM185.703 69.6142C185.365 69.5298 185.062 69.3833 184.884 69.2618C185.032 69.1917 185.297 69.0966 185.756 69.002C187.979 68.5443 188.323 68.2213 189.072 67.2695C189.244 67.0513 189.439 66.8039 189.709 66.5026L189.709 66.5022C190.111 66.0522 190.295 66.1285 190.628 66.2668C190.898 66.3786 191.161 66.7172 191.268 67.0898C191.319 67.2658 191.375 67.6 191.19 67.8598C189.624 70.0525 187.342 70.0243 185.703 69.6142ZM197.336 80.4396C194.617 81.0222 193.654 79.6347 193.019 78.0486C192.61 77.0245 192.409 72.4067 192.552 67.3073C192.553 67.2394 192.544 67.1739 192.525 67.1123C192.509 66.9934 192.484 66.8731 192.449 66.752C192.237 66.01 191.719 65.3893 191.098 65.132C190.852 65.0298 190.399 64.8423 189.855 64.9814C189.971 64.5034 190.172 63.9637 190.39 63.3792L190.482 63.1333C190.585 62.8561 190.714 62.569 190.851 62.2651C191.59 60.6236 192.602 58.3755 191.503 53.2966C191.092 51.3943 189.718 50.4654 187.636 50.6811C186.388 50.8103 185.245 51.314 184.676 51.6028C184.553 51.6649 184.441 51.7248 184.337 51.7833C184.496 49.8665 185.096 46.2846 187.343 44.0183C188.758 42.5915 190.642 41.8868 192.938 41.9248C197.461 41.9989 200.362 44.3202 201.999 46.2546C203.41 47.9216 204.174 49.6006 204.478 50.5062C202.186 50.2732 200.627 50.7257 199.836 51.8557C198.117 54.3136 200.777 59.0844 202.056 61.3771C202.29 61.7974 202.492 62.1605 202.556 62.3148C202.972 63.3238 203.511 63.9974 203.905 64.4892C204.026 64.6399 204.143 64.786 204.232 64.9136C203.537 65.1139 202.29 65.5763 202.404 67.8881C202.312 69.0482 201.66 74.4792 201.329 76.398C200.892 78.9329 199.959 79.8772 197.336 80.4396ZM208.687 67.4501C207.977 67.7797 206.789 68.0269 205.66 68.0799C204.413 68.1384 203.779 67.9403 203.629 67.8185C203.559 66.3779 204.096 66.2273 204.663 66.068C204.752 66.0429 204.839 66.0185 204.923 65.9892C204.975 66.0316 205.033 66.0738 205.095 66.1151C206.097 66.7765 207.884 66.8478 210.407 66.3271C210.417 66.3251 210.426 66.3233 210.435 66.3214C210.095 66.6396 209.513 67.0667 208.687 67.4501Z" fill="white"/>
</g>
</g>
<defs>
<clipPath id="clip0_201_14">
<rect width="250" height="120" rx="22" fill="white"/>
</clipPath>
<clipPath id="clip1_201_14">
<rect width="609.524" height="120" fill="white" transform="translate(-360)"/>
</clipPath>
<clipPath id="clip2_201_14">
<rect width="44" height="44" fill="white" transform="translate(170 39)"/>
</clipPath>
</defs>
</svg>
