<svg width="280" height="134" viewBox="0 0 280 134" fill="none" xmlns="http://www.w3.org/2000/svg">
<rect width="280" height="134" rx="22" fill="#F0F0F0"/>
<path d="M128.536 95C128.12 95 127.808 94.824 127.6 94.472C127.392 94.12 127.376 93.752 127.552 93.368L134.416 77.024C134.624 76.512 134.976 76.256 135.472 76.256C136 76.256 136.36 76.512 136.552 77.024L143.44 93.416C143.6 93.8 143.568 94.16 143.344 94.496C143.136 94.832 142.824 95 142.408 95C142.2 95 142 94.944 141.808 94.832C141.616 94.704 141.472 94.528 141.376 94.304L135.16 79.04H135.856L129.592 94.304C129.496 94.544 129.352 94.72 129.16 94.832C128.968 94.944 128.76 95 128.536 95ZM129.928 90.752L130.816 88.856H140.344L141.208 90.752H129.928ZM147.139 100.616C146.819 100.616 146.555 100.512 146.347 100.304C146.139 100.096 146.035 99.832 146.035 99.512V88.4C146.051 87.152 146.347 86.024 146.923 85.016C147.515 84.008 148.307 83.216 149.299 82.64C150.291 82.064 151.411 81.776 152.659 81.776C153.923 81.776 155.051 82.072 156.043 82.664C157.051 83.24 157.843 84.032 158.419 85.04C159.011 86.032 159.307 87.168 159.307 88.448C159.307 89.712 159.027 90.848 158.467 91.856C157.923 92.864 157.179 93.656 156.235 94.232C155.291 94.808 154.227 95.096 153.043 95.096C152.035 95.096 151.123 94.888 150.307 94.472C149.491 94.056 148.803 93.496 148.243 92.792V99.512C148.243 99.832 148.139 100.096 147.931 100.304C147.739 100.512 147.475 100.616 147.139 100.616ZM152.659 93.128C153.507 93.128 154.267 92.928 154.939 92.528C155.627 92.112 156.163 91.552 156.547 90.848C156.947 90.128 157.147 89.328 157.147 88.448C157.147 87.552 156.947 86.752 156.547 86.048C156.163 85.328 155.627 84.768 154.939 84.368C154.267 83.952 153.507 83.744 152.659 83.744C151.811 83.744 151.043 83.952 150.355 84.368C149.683 84.784 149.155 85.344 148.771 86.048C148.387 86.752 148.195 87.552 148.195 88.448C148.195 89.328 148.387 90.128 148.771 90.848C149.155 91.552 149.683 92.112 150.355 92.528C151.043 92.928 151.811 93.128 152.659 93.128ZM164.061 100.616C163.741 100.616 163.477 100.512 163.269 100.304C163.061 100.096 162.957 99.832 162.957 99.512V88.4C162.973 87.152 163.269 86.024 163.845 85.016C164.437 84.008 165.229 83.216 166.221 82.64C167.213 82.064 168.333 81.776 169.581 81.776C170.845 81.776 171.973 82.072 172.965 82.664C173.973 83.24 174.765 84.032 175.341 85.04C175.933 86.032 176.229 87.168 176.229 88.448C176.229 89.712 175.949 90.848 175.389 91.856C174.845 92.864 174.101 93.656 173.157 94.232C172.213 94.808 171.149 95.096 169.965 95.096C168.957 95.096 168.045 94.888 167.229 94.472C166.413 94.056 165.725 93.496 165.165 92.792V99.512C165.165 99.832 165.061 100.096 164.853 100.304C164.661 100.512 164.397 100.616 164.061 100.616ZM169.581 93.128C170.429 93.128 171.189 92.928 171.861 92.528C172.549 92.112 173.085 91.552 173.469 90.848C173.869 90.128 174.069 89.328 174.069 88.448C174.069 87.552 173.869 86.752 173.469 86.048C173.085 85.328 172.549 84.768 171.861 84.368C171.189 83.952 170.429 83.744 169.581 83.744C168.733 83.744 167.965 83.952 167.277 84.368C166.605 84.784 166.077 85.344 165.693 86.048C165.309 86.752 165.117 87.552 165.117 88.448C165.117 89.328 165.309 90.128 165.693 90.848C166.077 91.552 166.605 92.112 167.277 92.528C167.965 92.928 168.733 93.128 169.581 93.128Z" fill="#39526C"/>
<path d="M168.448 55.448C169 55.448 169.396 55.568 169.636 55.808C169.9 56.048 170.032 56.36 170.032 56.744C170.032 57.368 169.84 57.92 169.456 58.4C169.096 58.88 168.52 59.132 167.728 59.156C165.832 59.18 164.128 59.036 162.616 58.724C160.936 62.3 158.908 65.276 156.532 67.652C154.18 70.004 151.852 71.18 149.548 71.18C147.436 71.18 145.852 70.064 144.796 67.832C143.74 65.576 143.14 62.564 142.996 58.796C141.556 62.972 139.924 66.08 138.1 68.12C136.3 70.16 134.38 71.18 132.34 71.18C130.036 71.18 128.296 69.752 127.12 66.896C125.944 64.016 125.356 60.152 125.356 55.304C125.356 51.776 125.668 47.9 126.292 43.676C126.46 42.476 126.76 41.648 127.192 41.192C127.648 40.712 128.356 40.472 129.316 40.472C130.036 40.472 130.588 40.628 130.972 40.94C131.38 41.252 131.584 41.828 131.584 42.668C131.584 42.836 131.56 43.16 131.512 43.64C130.792 48.56 130.432 52.748 130.432 56.204C130.432 59.42 130.708 61.904 131.26 63.656C131.812 65.408 132.556 66.284 133.492 66.284C134.332 66.284 135.34 65.408 136.516 63.656C137.716 61.88 138.904 59.264 140.08 55.808C141.256 52.328 142.252 48.188 143.068 43.388C143.26 42.284 143.608 41.528 144.112 41.12C144.64 40.688 145.348 40.472 146.236 40.472C146.98 40.472 147.52 40.64 147.856 40.976C148.216 41.288 148.396 41.768 148.396 42.416C148.396 42.8 148.372 43.1 148.324 43.316C147.652 47.228 147.316 51.14 147.316 55.052C147.316 57.716 147.4 59.84 147.568 61.424C147.76 63.008 148.108 64.22 148.612 65.06C149.14 65.876 149.896 66.284 150.88 66.284C152.032 66.284 153.316 65.42 154.732 63.692C156.148 61.94 157.444 59.768 158.62 57.176C157.156 56.264 156.052 55.088 155.308 53.648C154.564 52.184 154.192 50.504 154.192 48.608C154.192 46.712 154.48 45.116 155.056 43.82C155.656 42.5 156.46 41.516 157.468 40.868C158.5 40.22 159.64 39.896 160.888 39.896C162.424 39.896 163.636 40.448 164.524 41.552C165.436 42.656 165.892 44.168 165.892 46.088C165.892 48.8 165.304 51.812 164.128 55.124C165.352 55.34 166.792 55.448 168.448 55.448ZM157.828 48.356C157.828 50.708 158.584 52.448 160.096 53.576C161.032 50.888 161.5 48.668 161.5 46.916C161.5 45.908 161.368 45.176 161.104 44.72C160.84 44.24 160.48 44 160.024 44C159.376 44 158.848 44.384 158.44 45.152C158.032 45.896 157.828 46.964 157.828 48.356ZM182.589 62.972C182.901 62.972 183.141 63.116 183.309 63.404C183.501 63.692 183.597 64.088 183.597 64.592C183.597 65.552 183.369 66.296 182.913 66.824C182.025 67.904 180.765 68.9 179.133 69.812C177.525 70.724 175.797 71.18 173.949 71.18C171.429 71.18 169.473 70.496 168.081 69.128C166.689 67.76 165.993 65.888 165.993 63.512C165.993 61.856 166.341 60.32 167.037 58.904C167.733 57.464 168.693 56.324 169.917 55.484C171.165 54.644 172.569 54.224 174.129 54.224C175.521 54.224 176.637 54.644 177.477 55.484C178.317 56.3 178.737 57.416 178.737 58.832C178.737 60.488 178.137 61.916 176.937 63.116C175.761 64.292 173.757 65.228 170.925 65.924C171.525 67.028 172.665 67.58 174.345 67.58C175.425 67.58 176.649 67.208 178.017 66.464C179.409 65.696 180.609 64.7 181.617 63.476C181.905 63.14 182.229 62.972 182.589 62.972ZM173.517 57.752C172.629 57.752 171.873 58.268 171.249 59.3C170.649 60.332 170.349 61.58 170.349 63.044V63.116C171.765 62.78 172.881 62.276 173.697 61.604C174.513 60.932 174.921 60.152 174.921 59.264C174.921 58.808 174.789 58.448 174.525 58.184C174.285 57.896 173.949 57.752 173.517 57.752ZM196.722 62.972C197.034 62.972 197.274 63.116 197.441 63.404C197.634 63.692 197.73 64.088 197.73 64.592C197.73 65.552 197.502 66.296 197.046 66.824C196.158 67.904 194.898 68.9 193.266 69.812C191.658 70.724 189.93 71.18 188.082 71.18C185.562 71.18 183.606 70.496 182.214 69.128C180.822 67.76 180.125 65.888 180.125 63.512C180.125 61.856 180.474 60.32 181.17 58.904C181.866 57.464 182.826 56.324 184.05 55.484C185.298 54.644 186.702 54.224 188.262 54.224C189.654 54.224 190.77 54.644 191.61 55.484C192.45 56.3 192.87 57.416 192.87 58.832C192.87 60.488 192.27 61.916 191.07 63.116C189.894 64.292 187.89 65.228 185.058 65.924C185.658 67.028 186.798 67.58 188.478 67.58C189.558 67.58 190.782 67.208 192.15 66.464C193.542 65.696 194.742 64.7 195.75 63.476C196.038 63.14 196.362 62.972 196.722 62.972ZM187.65 57.752C186.762 57.752 186.006 58.268 185.382 59.3C184.782 60.332 184.482 61.58 184.482 63.044V63.116C185.898 62.78 187.014 62.276 187.83 61.604C188.646 60.932 189.054 60.152 189.054 59.264C189.054 58.808 188.922 58.448 188.658 58.184C188.418 57.896 188.082 57.752 187.65 57.752ZM215.606 62.972C215.918 62.972 216.158 63.116 216.326 63.404C216.518 63.692 216.614 64.088 216.614 64.592C216.614 65.552 216.386 66.296 215.93 66.824C214.85 68.144 213.758 69.2 212.654 69.992C211.55 70.784 210.242 71.18 208.73 71.18C206.882 71.18 205.394 70.652 204.266 69.596C203.138 68.54 202.574 67.136 202.574 65.384C202.574 64.448 203.054 63.776 204.014 63.368C205.07 62.912 205.826 62.432 206.282 61.928C206.738 61.4 206.966 60.764 206.966 60.02C206.966 59.588 206.87 59.264 206.678 59.048C206.51 58.832 206.294 58.724 206.03 58.724C205.382 58.724 204.662 59.192 203.87 60.128C203.102 61.064 202.382 62.276 201.71 63.764C201.038 65.228 200.51 66.74 200.126 68.3C199.862 69.428 199.55 70.196 199.19 70.604C198.854 70.988 198.314 71.18 197.57 71.18C196.826 71.18 196.274 70.916 195.914 70.388C195.578 69.836 195.35 68.996 195.23 67.868C195.11 66.74 195.05 65.084 195.05 62.9C195.05 59.204 195.422 55.352 196.166 51.344C196.934 47.336 198.05 43.976 199.514 41.264C201.002 38.528 202.778 37.16 204.842 37.16C205.946 37.16 206.834 37.64 207.506 38.6C208.202 39.536 208.55 40.76 208.55 42.272C208.55 44.696 207.842 47.216 206.426 49.832C205.01 52.424 202.706 55.46 199.514 58.94C199.442 60.188 199.406 61.472 199.406 62.792C200.558 59.792 201.878 57.62 203.366 56.276C204.854 54.908 206.246 54.224 207.542 54.224C208.742 54.224 209.702 54.632 210.422 55.448C211.166 56.264 211.538 57.272 211.538 58.472C211.538 59.792 211.202 61.004 210.53 62.108C209.858 63.212 208.706 64.196 207.074 65.06C207.17 65.708 207.458 66.236 207.938 66.644C208.442 67.028 209.042 67.22 209.738 67.22C210.482 67.22 211.202 66.932 211.898 66.356C212.594 65.78 213.506 64.82 214.634 63.476C214.922 63.14 215.246 62.972 215.606 62.972ZM204.086 40.724C203.654 40.724 203.174 41.348 202.646 42.596C202.118 43.82 201.602 45.488 201.098 47.6C200.618 49.688 200.222 51.968 199.91 54.44C201.398 52.688 202.622 50.78 203.582 48.716C204.566 46.652 205.058 44.78 205.058 43.1C205.058 42.332 204.974 41.744 204.806 41.336C204.638 40.928 204.398 40.724 204.086 40.724ZM227.356 62.972C227.668 62.972 227.908 63.116 228.076 63.404C228.268 63.692 228.364 64.088 228.364 64.592C228.364 65.552 228.136 66.296 227.68 66.824C226.648 68.096 225.52 69.14 224.296 69.956C223.096 70.772 221.728 71.18 220.192 71.18C218.08 71.18 216.508 70.22 215.476 68.3C214.468 66.38 213.964 63.896 213.964 60.848C213.964 57.92 214.336 54.584 215.08 50.84C215.848 47.096 216.964 43.88 218.428 41.192C219.916 38.504 221.68 37.16 223.72 37.16C224.872 37.16 225.772 37.7 226.42 38.78C227.092 39.836 227.428 41.36 227.428 43.352C227.428 46.208 226.636 49.52 225.052 53.288C223.468 57.056 221.32 60.788 218.608 64.484C218.776 65.468 219.052 66.176 219.436 66.608C219.82 67.016 220.324 67.22 220.948 67.22C221.932 67.22 222.796 66.944 223.54 66.392C224.284 65.816 225.232 64.844 226.384 63.476C226.672 63.14 226.996 62.972 227.356 62.972ZM222.928 40.724C222.376 40.724 221.752 41.72 221.056 43.712C220.36 45.704 219.748 48.176 219.22 51.128C218.692 54.08 218.404 56.912 218.356 59.624C220.06 56.816 221.416 54.008 222.424 51.2C223.432 48.368 223.936 45.788 223.936 43.46C223.936 41.636 223.6 40.724 222.928 40.724ZM238.055 54.224C238.607 54.224 238.991 54.296 239.207 54.44C239.423 54.584 239.531 54.824 239.531 55.16C239.531 55.736 239.219 57.788 238.595 61.316C238.043 64.7 237.719 66.704 237.623 67.328C236.735 73.496 235.511 78.38 233.951 81.98C232.391 85.58 230.315 87.38 227.723 87.38C226.499 87.38 225.503 86.996 224.735 86.228C223.967 85.484 223.583 84.5 223.583 83.276C223.583 82.148 223.835 80.996 224.339 79.82C224.867 78.644 225.827 77.288 227.219 75.752C228.635 74.24 230.627 72.5 233.195 70.532L233.303 69.704C233.471 68.816 233.663 67.544 233.879 65.888C233.399 67.616 232.727 68.936 231.863 69.848C230.999 70.736 230.087 71.18 229.127 71.18C228.047 71.18 227.159 70.688 226.463 69.704C225.791 68.696 225.455 67.448 225.455 65.96C225.455 64.16 225.575 62.516 225.815 61.028C226.055 59.516 226.451 57.92 227.003 56.24C227.243 55.52 227.579 55.004 228.011 54.692C228.443 54.38 229.127 54.224 230.063 54.224C230.591 54.224 230.951 54.308 231.143 54.476C231.359 54.644 231.467 54.896 231.467 55.232C231.467 55.424 231.335 56.072 231.071 57.176C230.831 58.064 230.639 58.868 230.495 59.588C230.303 60.572 230.135 61.52 229.991 62.432C229.847 63.32 229.775 64.052 229.775 64.628C229.775 65.54 230.027 65.996 230.531 65.996C230.891 65.996 231.335 65.636 231.863 64.916C232.415 64.196 232.991 63.104 233.591 61.64C234.215 60.176 234.815 58.376 235.391 56.24C235.583 55.52 235.871 55.004 236.255 54.692C236.663 54.38 237.263 54.224 238.055 54.224ZM228.119 83.888C228.719 83.888 229.391 83.192 230.135 81.8C230.879 80.408 231.623 78.092 232.367 74.852C230.519 76.412 229.175 77.828 228.335 79.1C227.519 80.396 227.111 81.524 227.111 82.484C227.111 82.892 227.183 83.228 227.327 83.492C227.495 83.756 227.759 83.888 228.119 83.888Z" fill="#FFA07A"/>
<g filter="url(#filter0_d_208_2)">
<rect x="38" y="22" width="50" height="90" rx="7" fill="white"/>
<rect x="38.5" y="22.5" width="49" height="89" rx="6.5" stroke="#EAEAEA"/>
</g>
<path d="M59 57V60" stroke="#39526C" stroke-width="2.5" stroke-miterlimit="10" stroke-linecap="round" stroke-linejoin="round"/>
<path d="M67 57V60" stroke="#39526C" stroke-width="2.5" stroke-miterlimit="10" stroke-linecap="round" stroke-linejoin="round"/>
<path d="M54.5 64.09H71.5" stroke="#39526C" stroke-width="2.5" stroke-miterlimit="10" stroke-linecap="round" stroke-linejoin="round"/>
<path d="M72 63.5V72C72 75 70.5 77 67 77H59C55.5 77 54 75 54 72V63.5C54 60.5 55.5 58.5 59 58.5H67C70.5 58.5 72 60.5 72 63.5Z" stroke="#39526C" stroke-width="2.5" stroke-miterlimit="10" stroke-linecap="round" stroke-linejoin="round"/>
<path d="M66.6947 68.7H66.7036" stroke="#39526C" stroke-width="2.5" stroke-linecap="round" stroke-linejoin="round"/>
<path d="M66.6947 71.7H66.7036" stroke="#39526C" stroke-width="2.5" stroke-linecap="round" stroke-linejoin="round"/>
<path d="M62.9955 68.7H63.0044" stroke="#39526C" stroke-width="2.5" stroke-linecap="round" stroke-linejoin="round"/>
<path d="M62.9955 71.7H63.0044" stroke="#39526C" stroke-width="2.5" stroke-linecap="round" stroke-linejoin="round"/>
<path d="M59.2943 68.7H59.3032" stroke="#39526C" stroke-width="2.5" stroke-linecap="round" stroke-linejoin="round"/>
<path d="M59.2943 71.7H59.3032" stroke="#39526C" stroke-width="2.5" stroke-linecap="round" stroke-linejoin="round"/>
<path d="M53.625 22.625H73.375V25C73.375 26.3117 72.3117 27.375 71 27.375H56C54.6883 27.375 53.625 26.3117 53.625 25V22.625Z" stroke="#EAEAEA" stroke-width="1.25"/>
<defs>
<filter id="filter0_d_208_2" x="34" y="22" width="58" height="98" filterUnits="userSpaceOnUse" color-interpolation-filters="sRGB">
<feFlood flood-opacity="0" result="BackgroundImageFix"/>
<feColorMatrix in="SourceAlpha" type="matrix" values="0 0 0 0 0 0 0 0 0 0 0 0 0 0 0 0 0 0 127 0" result="hardAlpha"/>
<feOffset dy="4"/>
<feGaussianBlur stdDeviation="2"/>
<feComposite in2="hardAlpha" operator="out"/>
<feColorMatrix type="matrix" values="0 0 0 0 0 0 0 0 0 0 0 0 0 0 0 0 0 0 0.25 0"/>
<feBlend mode="normal" in2="BackgroundImageFix" result="effect1_dropShadow_208_2"/>
<feBlend mode="normal" in="SourceGraphic" in2="effect1_dropShadow_208_2" result="shape"/>
</filter>
</defs>
</svg>
