<svg width="280" height="134" viewBox="0 0 280 134" fill="none" xmlns="http://www.w3.org/2000/svg">
<rect width="280" height="134" rx="22" fill="#F0F0F0"/>
<path d="M133.384 95C133.128 95 132.896 94.92 132.688 94.76C132.496 94.6 132.352 94.376 132.256 94.088L127.408 77.84C127.264 77.36 127.272 76.976 127.432 76.688C127.608 76.4 127.896 76.256 128.296 76.256C128.536 76.256 128.752 76.328 128.944 76.472C129.152 76.6 129.304 76.816 129.4 77.12L133.672 92.072H133.144L137.152 77.36C137.216 77.136 137.344 76.96 137.536 76.832C137.744 76.688 137.976 76.616 138.232 76.616C138.456 76.616 138.672 76.68 138.88 76.808C139.104 76.92 139.24 77.104 139.288 77.36L143.32 92.072H142.816L147.136 77C147.28 76.504 147.648 76.256 148.24 76.256C148.64 76.256 148.904 76.416 149.032 76.736C149.16 77.04 149.168 77.408 149.056 77.84L144.208 94.064C144.112 94.352 143.96 94.584 143.752 94.76C143.56 94.92 143.336 95 143.08 95C142.808 95 142.568 94.912 142.36 94.736C142.168 94.56 142.032 94.344 141.952 94.088L137.968 79.04H138.544L134.536 94.064C134.44 94.352 134.288 94.584 134.08 94.76C133.888 94.92 133.656 95 133.384 95ZM155.131 95.096C153.803 95.096 152.627 94.816 151.603 94.256C150.595 93.68 149.803 92.896 149.227 91.904C148.651 90.896 148.363 89.744 148.363 88.448C148.363 87.136 148.635 85.984 149.179 84.992C149.723 83.984 150.475 83.2 151.435 82.64C152.395 82.064 153.507 81.776 154.771 81.776C156.003 81.776 157.067 82.056 157.963 82.616C158.859 83.16 159.547 83.92 160.027 84.896C160.507 85.856 160.747 86.968 160.747 88.232C160.747 88.504 160.651 88.736 160.459 88.928C160.283 89.104 160.043 89.192 159.739 89.192H149.875V87.416H159.763L158.779 88.112C158.763 87.264 158.595 86.504 158.275 85.832C157.955 85.16 157.499 84.632 156.907 84.248C156.315 83.864 155.603 83.672 154.771 83.672C153.859 83.672 153.067 83.88 152.395 84.296C151.739 84.712 151.235 85.28 150.883 86C150.531 86.72 150.355 87.536 150.355 88.448C150.355 89.36 150.555 90.176 150.955 90.896C151.371 91.6 151.931 92.16 152.635 92.576C153.355 92.992 154.187 93.2 155.131 93.2C155.643 93.2 156.171 93.104 156.715 92.912C157.275 92.72 157.715 92.496 158.035 92.24C158.259 92.064 158.499 91.976 158.755 91.976C159.011 91.96 159.235 92.032 159.427 92.192C159.667 92.416 159.795 92.664 159.811 92.936C159.827 93.192 159.715 93.416 159.475 93.608C158.931 94.04 158.251 94.4 157.435 94.688C156.635 94.96 155.867 95.096 155.131 95.096ZM170.495 95.096C169.247 95.096 168.119 94.808 167.111 94.232C166.119 93.656 165.335 92.864 164.759 91.856C164.183 90.848 163.887 89.72 163.871 88.472V77.36C163.871 77.024 163.975 76.76 164.183 76.568C164.391 76.36 164.655 76.256 164.975 76.256C165.311 76.256 165.575 76.36 165.767 76.568C165.975 76.76 166.079 77.024 166.079 77.36V84.08C166.639 83.376 167.327 82.816 168.143 82.4C168.959 81.984 169.871 81.776 170.879 81.776C172.063 81.776 173.127 82.072 174.071 82.664C175.015 83.24 175.759 84.032 176.303 85.04C176.863 86.032 177.143 87.16 177.143 88.424C177.143 89.688 176.847 90.824 176.255 91.832C175.679 92.84 174.887 93.64 173.879 94.232C172.887 94.808 171.759 95.096 170.495 95.096ZM170.495 93.128C171.343 93.128 172.103 92.928 172.775 92.528C173.463 92.112 173.999 91.552 174.383 90.848C174.783 90.128 174.983 89.32 174.983 88.424C174.983 87.528 174.783 86.728 174.383 86.024C173.999 85.32 173.463 84.768 172.775 84.368C172.103 83.952 171.343 83.744 170.495 83.744C169.647 83.744 168.879 83.952 168.191 84.368C167.519 84.768 166.991 85.32 166.607 86.024C166.223 86.728 166.031 87.528 166.031 88.424C166.031 89.32 166.223 90.128 166.607 90.848C166.991 91.552 167.519 92.112 168.191 92.528C168.879 92.928 169.647 93.128 170.495 93.128Z" fill="#39526C"/>
<path d="M168.448 55.448C169 55.448 169.396 55.568 169.636 55.808C169.9 56.048 170.032 56.36 170.032 56.744C170.032 57.368 169.84 57.92 169.456 58.4C169.096 58.88 168.52 59.132 167.728 59.156C165.832 59.18 164.128 59.036 162.616 58.724C160.936 62.3 158.908 65.276 156.532 67.652C154.18 70.004 151.852 71.18 149.548 71.18C147.436 71.18 145.852 70.064 144.796 67.832C143.74 65.576 143.14 62.564 142.996 58.796C141.556 62.972 139.924 66.08 138.1 68.12C136.3 70.16 134.38 71.18 132.34 71.18C130.036 71.18 128.296 69.752 127.12 66.896C125.944 64.016 125.356 60.152 125.356 55.304C125.356 51.776 125.668 47.9 126.292 43.676C126.46 42.476 126.76 41.648 127.192 41.192C127.648 40.712 128.356 40.472 129.316 40.472C130.036 40.472 130.588 40.628 130.972 40.94C131.38 41.252 131.584 41.828 131.584 42.668C131.584 42.836 131.56 43.16 131.512 43.64C130.792 48.56 130.432 52.748 130.432 56.204C130.432 59.42 130.708 61.904 131.26 63.656C131.812 65.408 132.556 66.284 133.492 66.284C134.332 66.284 135.34 65.408 136.516 63.656C137.716 61.88 138.904 59.264 140.08 55.808C141.256 52.328 142.252 48.188 143.068 43.388C143.26 42.284 143.608 41.528 144.112 41.12C144.64 40.688 145.348 40.472 146.236 40.472C146.98 40.472 147.52 40.64 147.856 40.976C148.216 41.288 148.396 41.768 148.396 42.416C148.396 42.8 148.372 43.1 148.324 43.316C147.652 47.228 147.316 51.14 147.316 55.052C147.316 57.716 147.4 59.84 147.568 61.424C147.76 63.008 148.108 64.22 148.612 65.06C149.14 65.876 149.896 66.284 150.88 66.284C152.032 66.284 153.316 65.42 154.732 63.692C156.148 61.94 157.444 59.768 158.62 57.176C157.156 56.264 156.052 55.088 155.308 53.648C154.564 52.184 154.192 50.504 154.192 48.608C154.192 46.712 154.48 45.116 155.056 43.82C155.656 42.5 156.46 41.516 157.468 40.868C158.5 40.22 159.64 39.896 160.888 39.896C162.424 39.896 163.636 40.448 164.524 41.552C165.436 42.656 165.892 44.168 165.892 46.088C165.892 48.8 165.304 51.812 164.128 55.124C165.352 55.34 166.792 55.448 168.448 55.448ZM157.828 48.356C157.828 50.708 158.584 52.448 160.096 53.576C161.032 50.888 161.5 48.668 161.5 46.916C161.5 45.908 161.368 45.176 161.104 44.72C160.84 44.24 160.48 44 160.024 44C159.376 44 158.848 44.384 158.44 45.152C158.032 45.896 157.828 46.964 157.828 48.356ZM182.589 62.972C182.901 62.972 183.141 63.116 183.309 63.404C183.501 63.692 183.597 64.088 183.597 64.592C183.597 65.552 183.369 66.296 182.913 66.824C182.025 67.904 180.765 68.9 179.133 69.812C177.525 70.724 175.797 71.18 173.949 71.18C171.429 71.18 169.473 70.496 168.081 69.128C166.689 67.76 165.993 65.888 165.993 63.512C165.993 61.856 166.341 60.32 167.037 58.904C167.733 57.464 168.693 56.324 169.917 55.484C171.165 54.644 172.569 54.224 174.129 54.224C175.521 54.224 176.637 54.644 177.477 55.484C178.317 56.3 178.737 57.416 178.737 58.832C178.737 60.488 178.137 61.916 176.937 63.116C175.761 64.292 173.757 65.228 170.925 65.924C171.525 67.028 172.665 67.58 174.345 67.58C175.425 67.58 176.649 67.208 178.017 66.464C179.409 65.696 180.609 64.7 181.617 63.476C181.905 63.14 182.229 62.972 182.589 62.972ZM173.517 57.752C172.629 57.752 171.873 58.268 171.249 59.3C170.649 60.332 170.349 61.58 170.349 63.044V63.116C171.765 62.78 172.881 62.276 173.697 61.604C174.513 60.932 174.921 60.152 174.921 59.264C174.921 58.808 174.789 58.448 174.525 58.184C174.285 57.896 173.949 57.752 173.517 57.752ZM196.722 62.972C197.034 62.972 197.274 63.116 197.441 63.404C197.634 63.692 197.73 64.088 197.73 64.592C197.73 65.552 197.502 66.296 197.046 66.824C196.158 67.904 194.898 68.9 193.266 69.812C191.658 70.724 189.93 71.18 188.082 71.18C185.562 71.18 183.606 70.496 182.214 69.128C180.822 67.76 180.125 65.888 180.125 63.512C180.125 61.856 180.474 60.32 181.17 58.904C181.866 57.464 182.826 56.324 184.05 55.484C185.298 54.644 186.702 54.224 188.262 54.224C189.654 54.224 190.77 54.644 191.61 55.484C192.45 56.3 192.87 57.416 192.87 58.832C192.87 60.488 192.27 61.916 191.07 63.116C189.894 64.292 187.89 65.228 185.058 65.924C185.658 67.028 186.798 67.58 188.478 67.58C189.558 67.58 190.782 67.208 192.15 66.464C193.542 65.696 194.742 64.7 195.75 63.476C196.038 63.14 196.362 62.972 196.722 62.972ZM187.65 57.752C186.762 57.752 186.006 58.268 185.382 59.3C184.782 60.332 184.482 61.58 184.482 63.044V63.116C185.898 62.78 187.014 62.276 187.83 61.604C188.646 60.932 189.054 60.152 189.054 59.264C189.054 58.808 188.922 58.448 188.658 58.184C188.418 57.896 188.082 57.752 187.65 57.752ZM215.606 62.972C215.918 62.972 216.158 63.116 216.326 63.404C216.518 63.692 216.614 64.088 216.614 64.592C216.614 65.552 216.386 66.296 215.93 66.824C214.85 68.144 213.758 69.2 212.654 69.992C211.55 70.784 210.242 71.18 208.73 71.18C206.882 71.18 205.394 70.652 204.266 69.596C203.138 68.54 202.574 67.136 202.574 65.384C202.574 64.448 203.054 63.776 204.014 63.368C205.07 62.912 205.826 62.432 206.282 61.928C206.738 61.4 206.966 60.764 206.966 60.02C206.966 59.588 206.87 59.264 206.678 59.048C206.51 58.832 206.294 58.724 206.03 58.724C205.382 58.724 204.662 59.192 203.87 60.128C203.102 61.064 202.382 62.276 201.71 63.764C201.038 65.228 200.51 66.74 200.126 68.3C199.862 69.428 199.55 70.196 199.19 70.604C198.854 70.988 198.314 71.18 197.57 71.18C196.826 71.18 196.274 70.916 195.914 70.388C195.578 69.836 195.35 68.996 195.23 67.868C195.11 66.74 195.05 65.084 195.05 62.9C195.05 59.204 195.422 55.352 196.166 51.344C196.934 47.336 198.05 43.976 199.514 41.264C201.002 38.528 202.778 37.16 204.842 37.16C205.946 37.16 206.834 37.64 207.506 38.6C208.202 39.536 208.55 40.76 208.55 42.272C208.55 44.696 207.842 47.216 206.426 49.832C205.01 52.424 202.706 55.46 199.514 58.94C199.442 60.188 199.406 61.472 199.406 62.792C200.558 59.792 201.878 57.62 203.366 56.276C204.854 54.908 206.246 54.224 207.542 54.224C208.742 54.224 209.702 54.632 210.422 55.448C211.166 56.264 211.538 57.272 211.538 58.472C211.538 59.792 211.202 61.004 210.53 62.108C209.858 63.212 208.706 64.196 207.074 65.06C207.17 65.708 207.458 66.236 207.938 66.644C208.442 67.028 209.042 67.22 209.738 67.22C210.482 67.22 211.202 66.932 211.898 66.356C212.594 65.78 213.506 64.82 214.634 63.476C214.922 63.14 215.246 62.972 215.606 62.972ZM204.086 40.724C203.654 40.724 203.174 41.348 202.646 42.596C202.118 43.82 201.602 45.488 201.098 47.6C200.618 49.688 200.222 51.968 199.91 54.44C201.398 52.688 202.622 50.78 203.582 48.716C204.566 46.652 205.058 44.78 205.058 43.1C205.058 42.332 204.974 41.744 204.806 41.336C204.638 40.928 204.398 40.724 204.086 40.724ZM227.356 62.972C227.668 62.972 227.908 63.116 228.076 63.404C228.268 63.692 228.364 64.088 228.364 64.592C228.364 65.552 228.136 66.296 227.68 66.824C226.648 68.096 225.52 69.14 224.296 69.956C223.096 70.772 221.728 71.18 220.192 71.18C218.08 71.18 216.508 70.22 215.476 68.3C214.468 66.38 213.964 63.896 213.964 60.848C213.964 57.92 214.336 54.584 215.08 50.84C215.848 47.096 216.964 43.88 218.428 41.192C219.916 38.504 221.68 37.16 223.72 37.16C224.872 37.16 225.772 37.7 226.42 38.78C227.092 39.836 227.428 41.36 227.428 43.352C227.428 46.208 226.636 49.52 225.052 53.288C223.468 57.056 221.32 60.788 218.608 64.484C218.776 65.468 219.052 66.176 219.436 66.608C219.82 67.016 220.324 67.22 220.948 67.22C221.932 67.22 222.796 66.944 223.54 66.392C224.284 65.816 225.232 64.844 226.384 63.476C226.672 63.14 226.996 62.972 227.356 62.972ZM222.928 40.724C222.376 40.724 221.752 41.72 221.056 43.712C220.36 45.704 219.748 48.176 219.22 51.128C218.692 54.08 218.404 56.912 218.356 59.624C220.06 56.816 221.416 54.008 222.424 51.2C223.432 48.368 223.936 45.788 223.936 43.46C223.936 41.636 223.6 40.724 222.928 40.724ZM238.055 54.224C238.607 54.224 238.991 54.296 239.207 54.44C239.423 54.584 239.531 54.824 239.531 55.16C239.531 55.736 239.219 57.788 238.595 61.316C238.043 64.7 237.719 66.704 237.623 67.328C236.735 73.496 235.511 78.38 233.951 81.98C232.391 85.58 230.315 87.38 227.723 87.38C226.499 87.38 225.503 86.996 224.735 86.228C223.967 85.484 223.583 84.5 223.583 83.276C223.583 82.148 223.835 80.996 224.339 79.82C224.867 78.644 225.827 77.288 227.219 75.752C228.635 74.24 230.627 72.5 233.195 70.532L233.303 69.704C233.471 68.816 233.663 67.544 233.879 65.888C233.399 67.616 232.727 68.936 231.863 69.848C230.999 70.736 230.087 71.18 229.127 71.18C228.047 71.18 227.159 70.688 226.463 69.704C225.791 68.696 225.455 67.448 225.455 65.96C225.455 64.16 225.575 62.516 225.815 61.028C226.055 59.516 226.451 57.92 227.003 56.24C227.243 55.52 227.579 55.004 228.011 54.692C228.443 54.38 229.127 54.224 230.063 54.224C230.591 54.224 230.951 54.308 231.143 54.476C231.359 54.644 231.467 54.896 231.467 55.232C231.467 55.424 231.335 56.072 231.071 57.176C230.831 58.064 230.639 58.868 230.495 59.588C230.303 60.572 230.135 61.52 229.991 62.432C229.847 63.32 229.775 64.052 229.775 64.628C229.775 65.54 230.027 65.996 230.531 65.996C230.891 65.996 231.335 65.636 231.863 64.916C232.415 64.196 232.991 63.104 233.591 61.64C234.215 60.176 234.815 58.376 235.391 56.24C235.583 55.52 235.871 55.004 236.255 54.692C236.663 54.38 237.263 54.224 238.055 54.224ZM228.119 83.888C228.719 83.888 229.391 83.192 230.135 81.8C230.879 80.408 231.623 78.092 232.367 74.852C230.519 76.412 229.175 77.828 228.335 79.1C227.519 80.396 227.111 81.524 227.111 82.484C227.111 82.892 227.183 83.228 227.327 83.492C227.495 83.756 227.759 83.888 228.119 83.888Z" fill="#FFA07A"/>
<g filter="url(#filter0_d_207_3)">
<rect x="32" y="31" width="72" height="72" rx="22" fill="white"/>
<rect x="32.5" y="31.5" width="71" height="71" rx="21.5" stroke="black" stroke-opacity="0.05"/>
</g>
<path d="M61.3333 50.2922V55.2304" stroke="#39526C" stroke-width="4" stroke-miterlimit="10" stroke-linecap="round" stroke-linejoin="round"/>
<path d="M74.6667 50.2922V55.2304" stroke="#39526C" stroke-width="4" stroke-miterlimit="10" stroke-linecap="round" stroke-linejoin="round"/>
<path d="M53.8333 61.9629H82.1667" stroke="#39526C" stroke-width="4" stroke-miterlimit="10" stroke-linecap="round" stroke-linejoin="round"/>
<path d="M83 60.9917V74.9835C83 79.9218 80.5 83.214 74.6667 83.214H61.3333C55.5 83.214 53 79.9218 53 74.9835V60.9917C53 56.0535 55.5 52.7613 61.3333 52.7613H74.6667C80.5 52.7613 83 56.0535 83 60.9917Z" stroke="#39526C" stroke-width="4" stroke-miterlimit="10" stroke-linecap="round" stroke-linejoin="round"/>
<path d="M74.1578 69.5515H74.1727" stroke="#39526C" stroke-width="4" stroke-linecap="round" stroke-linejoin="round"/>
<path d="M74.1578 74.4897H74.1727" stroke="#39526C" stroke-width="4" stroke-linecap="round" stroke-linejoin="round"/>
<path d="M67.9925 69.5515H68.0073" stroke="#39526C" stroke-width="4" stroke-linecap="round" stroke-linejoin="round"/>
<path d="M67.9925 74.4897H68.0073" stroke="#39526C" stroke-width="4" stroke-linecap="round" stroke-linejoin="round"/>
<path d="M61.8239 69.5515H61.8386" stroke="#39526C" stroke-width="4" stroke-linecap="round" stroke-linejoin="round"/>
<path d="M61.8239 74.4897H61.8386" stroke="#39526C" stroke-width="4" stroke-linecap="round" stroke-linejoin="round"/>
<defs>
<filter id="filter0_d_207_3" x="28" y="31" width="80" height="80" filterUnits="userSpaceOnUse" color-interpolation-filters="sRGB">
<feFlood flood-opacity="0" result="BackgroundImageFix"/>
<feColorMatrix in="SourceAlpha" type="matrix" values="0 0 0 0 0 0 0 0 0 0 0 0 0 0 0 0 0 0 127 0" result="hardAlpha"/>
<feOffset dy="4"/>
<feGaussianBlur stdDeviation="2"/>
<feComposite in2="hardAlpha" operator="out"/>
<feColorMatrix type="matrix" values="0 0 0 0 0 0 0 0 0 0 0 0 0 0 0 0 0 0 0.25 0"/>
<feBlend mode="normal" in2="BackgroundImageFix" result="effect1_dropShadow_207_3"/>
<feBlend mode="normal" in="SourceGraphic" in2="effect1_dropShadow_207_3" result="shape"/>
</filter>
</defs>
</svg>
