<svg width="280" height="134" viewBox="0 0 280 134" fill="none" xmlns="http://www.w3.org/2000/svg">
<rect width="280" height="134" rx="22" fill="#F0F0F0"/>
<path d="M128.536 95C128.12 95 127.808 94.824 127.6 94.472C127.392 94.12 127.376 93.752 127.552 93.368L134.416 77.024C134.624 76.512 134.976 76.256 135.472 76.256C136 76.256 136.36 76.512 136.552 77.024L143.44 93.416C143.6 93.8 143.568 94.16 143.344 94.496C143.136 94.832 142.824 95 142.408 95C142.2 95 142 94.944 141.808 94.832C141.616 94.704 141.472 94.528 141.376 94.304L135.16 79.04H135.856L129.592 94.304C129.496 94.544 129.352 94.72 129.16 94.832C128.968 94.944 128.76 95 128.536 95ZM129.928 90.752L130.816 88.856H140.344L141.208 90.752H129.928ZM147.139 100.616C146.819 100.616 146.555 100.512 146.347 100.304C146.139 100.096 146.035 99.832 146.035 99.512V88.4C146.051 87.152 146.347 86.024 146.923 85.016C147.515 84.008 148.307 83.216 149.299 82.64C150.291 82.064 151.411 81.776 152.659 81.776C153.923 81.776 155.051 82.072 156.043 82.664C157.051 83.24 157.843 84.032 158.419 85.04C159.011 86.032 159.307 87.168 159.307 88.448C159.307 89.712 159.027 90.848 158.467 91.856C157.923 92.864 157.179 93.656 156.235 94.232C155.291 94.808 154.227 95.096 153.043 95.096C152.035 95.096 151.123 94.888 150.307 94.472C149.491 94.056 148.803 93.496 148.243 92.792V99.512C148.243 99.832 148.139 100.096 147.931 100.304C147.739 100.512 147.475 100.616 147.139 100.616ZM152.659 93.128C153.507 93.128 154.267 92.928 154.939 92.528C155.627 92.112 156.163 91.552 156.547 90.848C156.947 90.128 157.147 89.328 157.147 88.448C157.147 87.552 156.947 86.752 156.547 86.048C156.163 85.328 155.627 84.768 154.939 84.368C154.267 83.952 153.507 83.744 152.659 83.744C151.811 83.744 151.043 83.952 150.355 84.368C149.683 84.784 149.155 85.344 148.771 86.048C148.387 86.752 148.195 87.552 148.195 88.448C148.195 89.328 148.387 90.128 148.771 90.848C149.155 91.552 149.683 92.112 150.355 92.528C151.043 92.928 151.811 93.128 152.659 93.128ZM164.373 95C164.037 95 163.765 94.896 163.557 94.688C163.349 94.48 163.245 94.216 163.245 93.896V82.976C163.245 82.64 163.349 82.376 163.557 82.184C163.765 81.976 164.037 81.872 164.373 81.872C164.693 81.872 164.957 81.976 165.165 82.184C165.373 82.376 165.477 82.64 165.477 82.976V93.896C165.477 94.216 165.373 94.48 165.165 94.688C164.957 94.896 164.693 95 164.373 95ZM164.349 79.592C163.949 79.592 163.605 79.448 163.317 79.16C163.029 78.872 162.885 78.52 162.885 78.104C162.885 77.688 163.029 77.344 163.317 77.072C163.621 76.784 163.973 76.64 164.373 76.64C164.757 76.64 165.093 76.784 165.381 77.072C165.685 77.344 165.837 77.688 165.837 78.104C165.837 78.52 165.693 78.872 165.405 79.16C165.117 79.448 164.765 79.592 164.349 79.592Z" fill="#39526C"/>
<path d="M168.448 55.448C169 55.448 169.396 55.568 169.636 55.808C169.9 56.048 170.032 56.36 170.032 56.744C170.032 57.368 169.84 57.92 169.456 58.4C169.096 58.88 168.52 59.132 167.728 59.156C165.832 59.18 164.128 59.036 162.616 58.724C160.936 62.3 158.908 65.276 156.532 67.652C154.18 70.004 151.852 71.18 149.548 71.18C147.436 71.18 145.852 70.064 144.796 67.832C143.74 65.576 143.14 62.564 142.996 58.796C141.556 62.972 139.924 66.08 138.1 68.12C136.3 70.16 134.38 71.18 132.34 71.18C130.036 71.18 128.296 69.752 127.12 66.896C125.944 64.016 125.356 60.152 125.356 55.304C125.356 51.776 125.668 47.9 126.292 43.676C126.46 42.476 126.76 41.648 127.192 41.192C127.648 40.712 128.356 40.472 129.316 40.472C130.036 40.472 130.588 40.628 130.972 40.94C131.38 41.252 131.584 41.828 131.584 42.668C131.584 42.836 131.56 43.16 131.512 43.64C130.792 48.56 130.432 52.748 130.432 56.204C130.432 59.42 130.708 61.904 131.26 63.656C131.812 65.408 132.556 66.284 133.492 66.284C134.332 66.284 135.34 65.408 136.516 63.656C137.716 61.88 138.904 59.264 140.08 55.808C141.256 52.328 142.252 48.188 143.068 43.388C143.26 42.284 143.608 41.528 144.112 41.12C144.64 40.688 145.348 40.472 146.236 40.472C146.98 40.472 147.52 40.64 147.856 40.976C148.216 41.288 148.396 41.768 148.396 42.416C148.396 42.8 148.372 43.1 148.324 43.316C147.652 47.228 147.316 51.14 147.316 55.052C147.316 57.716 147.4 59.84 147.568 61.424C147.76 63.008 148.108 64.22 148.612 65.06C149.14 65.876 149.896 66.284 150.88 66.284C152.032 66.284 153.316 65.42 154.732 63.692C156.148 61.94 157.444 59.768 158.62 57.176C157.156 56.264 156.052 55.088 155.308 53.648C154.564 52.184 154.192 50.504 154.192 48.608C154.192 46.712 154.48 45.116 155.056 43.82C155.656 42.5 156.46 41.516 157.468 40.868C158.5 40.22 159.64 39.896 160.888 39.896C162.424 39.896 163.636 40.448 164.524 41.552C165.436 42.656 165.892 44.168 165.892 46.088C165.892 48.8 165.304 51.812 164.128 55.124C165.352 55.34 166.792 55.448 168.448 55.448ZM157.828 48.356C157.828 50.708 158.584 52.448 160.096 53.576C161.032 50.888 161.5 48.668 161.5 46.916C161.5 45.908 161.368 45.176 161.104 44.72C160.84 44.24 160.48 44 160.024 44C159.376 44 158.848 44.384 158.44 45.152C158.032 45.896 157.828 46.964 157.828 48.356ZM182.589 62.972C182.901 62.972 183.141 63.116 183.309 63.404C183.501 63.692 183.597 64.088 183.597 64.592C183.597 65.552 183.369 66.296 182.913 66.824C182.025 67.904 180.765 68.9 179.133 69.812C177.525 70.724 175.797 71.18 173.949 71.18C171.429 71.18 169.473 70.496 168.081 69.128C166.689 67.76 165.993 65.888 165.993 63.512C165.993 61.856 166.341 60.32 167.037 58.904C167.733 57.464 168.693 56.324 169.917 55.484C171.165 54.644 172.569 54.224 174.129 54.224C175.521 54.224 176.637 54.644 177.477 55.484C178.317 56.3 178.737 57.416 178.737 58.832C178.737 60.488 178.137 61.916 176.937 63.116C175.761 64.292 173.757 65.228 170.925 65.924C171.525 67.028 172.665 67.58 174.345 67.58C175.425 67.58 176.649 67.208 178.017 66.464C179.409 65.696 180.609 64.7 181.617 63.476C181.905 63.14 182.229 62.972 182.589 62.972ZM173.517 57.752C172.629 57.752 171.873 58.268 171.249 59.3C170.649 60.332 170.349 61.58 170.349 63.044V63.116C171.765 62.78 172.881 62.276 173.697 61.604C174.513 60.932 174.921 60.152 174.921 59.264C174.921 58.808 174.789 58.448 174.525 58.184C174.285 57.896 173.949 57.752 173.517 57.752ZM196.722 62.972C197.034 62.972 197.274 63.116 197.441 63.404C197.634 63.692 197.73 64.088 197.73 64.592C197.73 65.552 197.502 66.296 197.046 66.824C196.158 67.904 194.898 68.9 193.266 69.812C191.658 70.724 189.93 71.18 188.082 71.18C185.562 71.18 183.606 70.496 182.214 69.128C180.822 67.76 180.125 65.888 180.125 63.512C180.125 61.856 180.474 60.32 181.17 58.904C181.866 57.464 182.826 56.324 184.05 55.484C185.298 54.644 186.702 54.224 188.262 54.224C189.654 54.224 190.77 54.644 191.61 55.484C192.45 56.3 192.87 57.416 192.87 58.832C192.87 60.488 192.27 61.916 191.07 63.116C189.894 64.292 187.89 65.228 185.058 65.924C185.658 67.028 186.798 67.58 188.478 67.58C189.558 67.58 190.782 67.208 192.15 66.464C193.542 65.696 194.742 64.7 195.75 63.476C196.038 63.14 196.362 62.972 196.722 62.972ZM187.65 57.752C186.762 57.752 186.006 58.268 185.382 59.3C184.782 60.332 184.482 61.58 184.482 63.044V63.116C185.898 62.78 187.014 62.276 187.83 61.604C188.646 60.932 189.054 60.152 189.054 59.264C189.054 58.808 188.922 58.448 188.658 58.184C188.418 57.896 188.082 57.752 187.65 57.752ZM215.606 62.972C215.918 62.972 216.158 63.116 216.326 63.404C216.518 63.692 216.614 64.088 216.614 64.592C216.614 65.552 216.386 66.296 215.93 66.824C214.85 68.144 213.758 69.2 212.654 69.992C211.55 70.784 210.242 71.18 208.73 71.18C206.882 71.18 205.394 70.652 204.266 69.596C203.138 68.54 202.574 67.136 202.574 65.384C202.574 64.448 203.054 63.776 204.014 63.368C205.07 62.912 205.826 62.432 206.282 61.928C206.738 61.4 206.966 60.764 206.966 60.02C206.966 59.588 206.87 59.264 206.678 59.048C206.51 58.832 206.294 58.724 206.03 58.724C205.382 58.724 204.662 59.192 203.87 60.128C203.102 61.064 202.382 62.276 201.71 63.764C201.038 65.228 200.51 66.74 200.126 68.3C199.862 69.428 199.55 70.196 199.19 70.604C198.854 70.988 198.314 71.18 197.57 71.18C196.826 71.18 196.274 70.916 195.914 70.388C195.578 69.836 195.35 68.996 195.23 67.868C195.11 66.74 195.05 65.084 195.05 62.9C195.05 59.204 195.422 55.352 196.166 51.344C196.934 47.336 198.05 43.976 199.514 41.264C201.002 38.528 202.778 37.16 204.842 37.16C205.946 37.16 206.834 37.64 207.506 38.6C208.202 39.536 208.55 40.76 208.55 42.272C208.55 44.696 207.842 47.216 206.426 49.832C205.01 52.424 202.706 55.46 199.514 58.94C199.442 60.188 199.406 61.472 199.406 62.792C200.558 59.792 201.878 57.62 203.366 56.276C204.854 54.908 206.246 54.224 207.542 54.224C208.742 54.224 209.702 54.632 210.422 55.448C211.166 56.264 211.538 57.272 211.538 58.472C211.538 59.792 211.202 61.004 210.53 62.108C209.858 63.212 208.706 64.196 207.074 65.06C207.17 65.708 207.458 66.236 207.938 66.644C208.442 67.028 209.042 67.22 209.738 67.22C210.482 67.22 211.202 66.932 211.898 66.356C212.594 65.78 213.506 64.82 214.634 63.476C214.922 63.14 215.246 62.972 215.606 62.972ZM204.086 40.724C203.654 40.724 203.174 41.348 202.646 42.596C202.118 43.82 201.602 45.488 201.098 47.6C200.618 49.688 200.222 51.968 199.91 54.44C201.398 52.688 202.622 50.78 203.582 48.716C204.566 46.652 205.058 44.78 205.058 43.1C205.058 42.332 204.974 41.744 204.806 41.336C204.638 40.928 204.398 40.724 204.086 40.724ZM227.356 62.972C227.668 62.972 227.908 63.116 228.076 63.404C228.268 63.692 228.364 64.088 228.364 64.592C228.364 65.552 228.136 66.296 227.68 66.824C226.648 68.096 225.52 69.14 224.296 69.956C223.096 70.772 221.728 71.18 220.192 71.18C218.08 71.18 216.508 70.22 215.476 68.3C214.468 66.38 213.964 63.896 213.964 60.848C213.964 57.92 214.336 54.584 215.08 50.84C215.848 47.096 216.964 43.88 218.428 41.192C219.916 38.504 221.68 37.16 223.72 37.16C224.872 37.16 225.772 37.7 226.42 38.78C227.092 39.836 227.428 41.36 227.428 43.352C227.428 46.208 226.636 49.52 225.052 53.288C223.468 57.056 221.32 60.788 218.608 64.484C218.776 65.468 219.052 66.176 219.436 66.608C219.82 67.016 220.324 67.22 220.948 67.22C221.932 67.22 222.796 66.944 223.54 66.392C224.284 65.816 225.232 64.844 226.384 63.476C226.672 63.14 226.996 62.972 227.356 62.972ZM222.928 40.724C222.376 40.724 221.752 41.72 221.056 43.712C220.36 45.704 219.748 48.176 219.22 51.128C218.692 54.08 218.404 56.912 218.356 59.624C220.06 56.816 221.416 54.008 222.424 51.2C223.432 48.368 223.936 45.788 223.936 43.46C223.936 41.636 223.6 40.724 222.928 40.724ZM238.055 54.224C238.607 54.224 238.991 54.296 239.207 54.44C239.423 54.584 239.531 54.824 239.531 55.16C239.531 55.736 239.219 57.788 238.595 61.316C238.043 64.7 237.719 66.704 237.623 67.328C236.735 73.496 235.511 78.38 233.951 81.98C232.391 85.58 230.315 87.38 227.723 87.38C226.499 87.38 225.503 86.996 224.735 86.228C223.967 85.484 223.583 84.5 223.583 83.276C223.583 82.148 223.835 80.996 224.339 79.82C224.867 78.644 225.827 77.288 227.219 75.752C228.635 74.24 230.627 72.5 233.195 70.532L233.303 69.704C233.471 68.816 233.663 67.544 233.879 65.888C233.399 67.616 232.727 68.936 231.863 69.848C230.999 70.736 230.087 71.18 229.127 71.18C228.047 71.18 227.159 70.688 226.463 69.704C225.791 68.696 225.455 67.448 225.455 65.96C225.455 64.16 225.575 62.516 225.815 61.028C226.055 59.516 226.451 57.92 227.003 56.24C227.243 55.52 227.579 55.004 228.011 54.692C228.443 54.38 229.127 54.224 230.063 54.224C230.591 54.224 230.951 54.308 231.143 54.476C231.359 54.644 231.467 54.896 231.467 55.232C231.467 55.424 231.335 56.072 231.071 57.176C230.831 58.064 230.639 58.868 230.495 59.588C230.303 60.572 230.135 61.52 229.991 62.432C229.847 63.32 229.775 64.052 229.775 64.628C229.775 65.54 230.027 65.996 230.531 65.996C230.891 65.996 231.335 65.636 231.863 64.916C232.415 64.196 232.991 63.104 233.591 61.64C234.215 60.176 234.815 58.376 235.391 56.24C235.583 55.52 235.871 55.004 236.255 54.692C236.663 54.38 237.263 54.224 238.055 54.224ZM228.119 83.888C228.719 83.888 229.391 83.192 230.135 81.8C230.879 80.408 231.623 78.092 232.367 74.852C230.519 76.412 229.175 77.828 228.335 79.1C227.519 80.396 227.111 81.524 227.111 82.484C227.111 82.892 227.183 83.228 227.327 83.492C227.495 83.756 227.759 83.888 228.119 83.888Z" fill="#FFA07A"/>
<g filter="url(#filter0_d_208_22)">
<rect x="32" y="31" width="72" height="72" rx="22" fill="white"/>
<rect x="32.5" y="31.5" width="71" height="71" rx="21.5" stroke="black" stroke-opacity="0.05"/>
</g>
<path d="M83.5143 73.0009V81.7188C83.5143 84.638 76.4617 86.9999 67.7571 86.9999C62.2438 86.9999 57.3873 86.0512 54.5741 84.6114C53.1278 83.875 52.2255 83.0125 52.0398 82.077C52.0132 81.9576 52 81.8382 52 81.7188V73.0009C52 72.9743 52 72.9478 52.0066 72.9213C52 72.9081 52 72.9014 52.0066 72.8948C52.0066 72.8483 52.0132 72.8019 52.0198 72.7555C52.0265 72.7356 52.0265 72.7156 52.0331 72.6957C52.0398 72.6426 52.053 72.5896 52.073 72.5365V72.5299C52.0995 72.4238 52.1393 72.3242 52.1858 72.2181C53.0616 70.3139 56.9694 68.7416 62.2106 68.0847C62.894 67.9984 63.6039 67.9255 64.327 67.8724H64.3669C65.4616 67.7861 66.5962 67.7463 67.7572 67.7463C68.9182 67.7463 70.0527 67.7861 71.1474 67.8724H71.1872C71.9103 67.9255 72.6202 67.9984 73.3036 68.0847C78.5449 68.7415 82.4527 70.3139 83.3284 72.2181C83.3749 72.3242 83.4147 72.4238 83.4413 72.5299V72.5365C83.4612 72.5896 83.4744 72.6426 83.481 72.6957C83.4943 72.762 83.5009 72.8217 83.5076 72.8948V72.9213C83.5143 72.9478 83.5143 72.9743 83.5143 73.0009Z" fill="#39526C"/>
<path opacity="0.1" d="M83.5143 73.0275V73.4455C83.5143 76.3647 76.4617 78.7332 67.7571 78.7332C59.0525 78.7332 52 76.3647 52 73.4455V73.0275C52 73.0939 52.0066 73.1535 52.0132 73.2133C52.2189 75.27 55.9409 77.0349 61.2287 77.8376C61.4145 77.8642 61.5936 77.8907 61.7794 77.9172C62.0779 77.9636 62.3765 78.0035 62.6816 78.0367C62.8077 78.0433 62.9404 78.0566 63.073 78.0764C63.8095 78.156 64.5725 78.2158 65.3553 78.2556C65.8795 78.2821 66.4102 78.302 66.9477 78.3086C67.213 78.3153 67.4851 78.3153 67.7571 78.3153C68.0291 78.3153 68.3011 78.3153 68.5665 78.3086C69.1039 78.302 69.6346 78.2821 70.1588 78.2556C70.9417 78.2158 71.7047 78.156 72.4411 78.0764C72.5738 78.0566 72.7065 78.0433 72.8325 78.0367C73.1377 78.0035 73.4363 77.9636 73.7348 77.9172C73.9205 77.8907 74.0997 77.8642 74.2855 77.8376C79.5733 77.0349 83.2952 75.27 83.5009 73.2133C83.5077 73.1535 83.5143 73.0939 83.5143 73.0275Z" fill="#E8E8E9"/>
<path d="M83.5143 72.9744V73.0276C83.5143 73.0939 83.5077 73.1536 83.501 73.2134C83.2223 75.2767 79.5202 77.0216 74.2855 77.8377C74.0998 77.8642 73.9206 77.8908 73.7348 77.9173C73.5491 77.9438 73.3633 77.9637 73.1776 77.9902C73.0648 78.0035 72.9453 78.0168 72.8326 78.0367C72.7066 78.0434 72.5738 78.0566 72.4412 78.0765C71.9502 78.1229 71.446 78.1694 70.9351 78.2026C70.6763 78.2225 70.4176 78.2423 70.1588 78.2556C69.6347 78.2755 69.1039 78.2954 68.5665 78.3087C68.3011 78.3153 68.0291 78.3153 67.7571 78.3153C67.4851 78.3153 67.213 78.3153 66.9477 78.3087C66.4102 78.2954 65.8795 78.2755 65.3553 78.2556C65.0966 78.2423 64.8378 78.2225 64.5791 78.2026C64.0682 78.1694 63.564 78.1229 63.073 78.0765C62.9403 78.0566 62.8076 78.0434 62.6816 78.0367C62.5688 78.0168 62.4494 78.0035 62.3366 77.9902C62.1508 77.9637 61.965 77.9438 61.7793 77.9173C61.5935 77.8908 61.4144 77.8642 61.2286 77.8377C55.994 77.0216 52.2919 75.2767 52.0132 73.2134C52.0066 73.1536 52 73.0939 52 73.0276V72.9744C52 72.9546 52 72.9413 52.0066 72.9215C52 72.9082 52 72.9016 52.0066 72.8949C52.0132 72.8219 52.0198 72.7622 52.0331 72.6959C52.0398 72.6627 52.0463 72.6295 52.0463 72.5963C52.0398 72.5831 52.0463 72.5698 52.053 72.5566C52.053 72.5433 52.053 72.5234 52.0596 72.5034C52.0729 72.4637 52.0795 72.4173 52.0995 72.3774C52.1194 72.3177 52.1459 72.2514 52.1724 72.185C52.9952 70.2941 56.7437 68.7284 61.8059 68.0317C62.4096 67.9455 63.0333 67.8725 63.6768 67.8194C63.6834 67.8128 63.6967 67.8128 63.7034 67.8128C64.9971 67.6934 66.3572 67.6337 67.7571 67.6337C69.157 67.6337 70.5171 67.6934 71.8109 67.8128C71.8175 67.8128 71.8308 67.8128 71.8374 67.8194C72.481 67.8725 73.1047 67.9455 73.7084 68.0317C78.7705 68.7284 82.5191 70.2941 83.3418 72.185C83.3882 72.2912 83.428 72.3973 83.4546 72.5034C83.4679 72.5698 83.4679 72.6295 83.4811 72.6959C83.4944 72.7622 83.501 72.8219 83.5077 72.8949V72.9215C83.5077 72.9347 83.5143 72.9546 83.5143 72.9744Z" fill="#CEDCE4"/>
<path d="M78.3043 80.3164V82.7531C77.035 83.1369 75.5786 83.4522 73.9854 83.6818V81.2452C75.5787 81.0155 77.035 80.7002 78.3043 80.3164Z" fill="#CEDCE4"/>
<path opacity="0.3" d="M83.4546 72.5034C83.4479 72.5167 83.4479 72.5234 83.4413 72.53V72.5366C82.6983 75.217 75.9641 77.3135 67.7572 77.3135C59.5501 77.3135 52.8161 75.217 52.0729 72.5366V72.53C52.0663 72.5234 52.0663 72.5167 52.0663 72.5101L52.0597 72.5034C52.0729 72.4637 52.0796 72.4173 52.0995 72.3774C52.1194 72.3177 52.146 72.2514 52.1725 72.185C52.9952 70.2941 56.7437 68.7284 61.8059 68.0317C62.4097 67.9455 63.0333 67.8725 63.6768 67.8194C63.6835 67.8128 63.6968 67.8128 63.7034 67.8128C64.9972 67.6934 66.3572 67.6337 67.7572 67.6337C69.1571 67.6337 70.5172 67.6934 71.8109 67.8128C71.8176 67.8128 71.8308 67.8128 71.8375 67.8194C72.4811 67.8725 73.1047 67.9455 73.7084 68.0317C78.7706 68.7284 82.5192 70.2941 83.3418 72.185C83.3883 72.2912 83.428 72.3973 83.4546 72.5034Z" fill="#040000"/>
<path d="M83.5143 62.6907V71.4021C83.5143 71.6674 83.4545 71.9328 83.3418 72.1849C83.3352 72.1982 83.3285 72.2114 83.3285 72.2181C82.1542 74.7525 75.6324 76.6832 67.7571 76.6832C59.8818 76.6832 53.36 74.7525 52.1857 72.2181C52.1857 72.2114 52.1791 72.1982 52.1724 72.1849C52.1459 72.1186 52.1194 72.0522 52.0995 71.9925C52.0795 71.9262 52.0596 71.8664 52.0463 71.8001C52.0463 71.8001 52.0463 71.7935 52.0463 71.7868C52.0265 71.7338 52.0198 71.674 52.0131 71.6143C52.0066 71.5413 52 71.475 52 71.402V62.6842C52 62.5315 52.0266 62.3723 52.0663 62.2264C52.073 62.2131 52.073 62.1998 52.0796 62.1932C52.1062 62.0937 52.1459 61.9942 52.1858 61.9013C53.0682 59.9971 56.9826 58.4248 62.2173 57.7679C62.9006 57.6817 63.6039 57.6087 64.327 57.5556C65.4284 57.4761 66.5762 57.4296 67.7572 57.4296C68.9381 57.4296 70.0859 57.4761 71.1873 57.5556C71.9104 57.6087 72.6137 57.6817 73.297 57.7679C78.5317 58.4247 82.4461 59.9971 83.3285 61.9013C83.3684 61.9942 83.4081 62.0937 83.4347 62.1932C83.4413 62.1998 83.4413 62.2131 83.448 62.2264C83.4877 62.3789 83.5143 62.5315 83.5143 62.6907Z" fill="#39526C"/>
<path opacity="0.1" d="M83.5143 62.7174V63.1355C83.5143 65.3447 79.4606 67.2356 73.7084 68.0317C73.5756 68.045 73.4363 68.0649 73.3037 68.0848C71.5787 68.2971 69.7077 68.4165 67.7572 68.4165C65.8066 68.4165 63.9356 68.2971 62.2106 68.0848C62.0779 68.0649 61.9386 68.045 61.8059 68.0317C56.0538 67.2356 52 65.3447 52 63.1355V62.7174C52 62.7772 52.0066 62.8435 52.0132 62.9032C52.2255 65.0064 56.1266 66.8044 61.6202 67.5806C61.6732 67.5873 61.7263 67.5939 61.7794 67.6005C62.204 67.6668 62.6286 67.7133 63.0731 67.7598C63.2722 67.7797 63.4713 67.7995 63.6769 67.8194C63.8892 67.8393 64.1081 67.8592 64.327 67.8725H64.3669C65.2028 67.9389 66.0653 67.9787 66.9477 67.9919C67.2131 67.9985 67.4852 67.9985 67.7572 67.9985C68.0292 67.9985 68.3012 67.9985 68.5666 67.9919C69.449 67.9787 70.3115 67.9389 71.1474 67.8725H71.1872C71.4062 67.8592 71.6251 67.8393 71.8373 67.8194C72.043 67.7995 72.242 67.7797 72.4411 67.7598C72.8856 67.7133 73.3102 67.6668 73.7348 67.6005L73.8941 67.5806C79.3876 66.8044 83.2887 65.0064 83.501 62.9032C83.5077 62.8435 83.5143 62.7772 83.5143 62.7174Z" fill="#E8E8E9"/>
<path d="M83.5143 62.6576V62.7173C83.5143 62.7771 83.5077 62.8434 83.501 62.9031C83.2157 65.0063 79.3345 66.791 73.8941 67.5805L73.7348 67.6004C73.5491 67.6269 73.3633 67.6468 73.1776 67.6733C72.9321 67.6999 72.6932 67.7265 72.4412 67.7597C72.2355 67.7796 72.0232 67.7994 71.8109 67.8127C71.5919 67.8326 71.373 67.8525 71.1474 67.8724C71.0745 67.8724 71.008 67.879 70.9351 67.8857C70.6763 67.9056 70.4176 67.9189 70.1588 67.9322C69.6347 67.9586 69.1039 67.9786 68.5665 67.9918H66.9477C66.4102 67.9786 65.8795 67.9586 65.3553 67.9322C65.0966 67.9189 64.8378 67.9056 64.5791 67.8857C64.5061 67.879 64.4398 67.8724 64.3667 67.8724C64.1412 67.8525 63.9222 67.8326 63.7033 67.8127C63.4909 67.7994 63.2787 67.7796 63.073 67.7597C62.8209 67.7265 62.582 67.6999 62.3366 67.6733C62.1508 67.6468 61.965 67.6269 61.7793 67.6004C61.7263 67.5938 61.6731 67.5872 61.6201 67.5805C56.1798 66.7909 52.2985 65.0063 52.0132 62.9031C52.0066 62.8434 52 62.7771 52 62.7173V62.6576C52 62.5913 52.0066 62.5249 52.0132 62.4586C52.0198 62.3922 52.0265 62.3259 52.0464 62.2596C52.0464 62.2397 52.053 62.2131 52.0597 62.1932H83.4546C83.4691 62.2485 83.467 62.3058 83.4763 62.3614C83.4925 62.4422 83.503 62.524 83.5078 62.6068C83.5083 62.624 83.5143 62.6402 83.5143 62.6576Z" fill="#CEDCE4"/>
<path d="M78.3043 70.0009V72.4375C77.035 72.8213 75.5786 73.1366 73.9854 73.3662V70.9296C75.5787 70.6999 77.035 70.3847 78.3043 70.0009Z" fill="#CEDCE4"/>
<path opacity="0.3" d="M83.448 62.1931V62.2263C82.685 64.9067 75.9575 67.0032 67.7572 67.0032C59.5568 67.0032 52.8294 64.9067 52.0663 62.2263V62.1931H83.448Z" fill="#040000"/>
<path d="M83.5143 52.374V61.0852C83.5143 61.3638 83.4479 61.636 83.3285 61.9013C83.2821 62.0008 83.229 62.0937 83.1693 62.1931C81.6566 64.5817 75.3338 66.373 67.7572 66.373C60.1805 66.373 53.8577 64.5817 52.345 62.1931C52.2853 62.0937 52.2322 62.0008 52.1858 61.9013C52.1858 61.8946 52.1791 61.8813 52.1725 61.8681C52.1459 61.8085 52.1195 61.742 52.0995 61.6757C52.0796 61.6227 52.0663 61.5695 52.053 61.5165C52.0464 61.4966 52.0398 61.4701 52.0398 61.4502C52.0266 61.397 52.0199 61.3506 52.0133 61.2976C52.0066 61.2245 52 61.1582 52 61.0852V52.3674C52.053 49.4614 59.0858 47.1194 67.7572 47.1194C73.1179 47.1194 77.855 48.0151 80.7013 49.3884C82.3599 50.1846 83.3816 51.1467 83.5011 52.1883C83.5077 52.2479 83.5143 52.3143 83.5143 52.374Z" fill="#39526C"/>
<path opacity="0.1" d="M83.5143 52.4006V52.8186C83.5143 55.0809 79.2681 57.0117 73.297 57.768C71.572 57.9803 69.7077 58.0997 67.7572 58.0997C65.8066 58.0997 63.9423 57.9803 62.2173 57.768C56.2461 57.0117 52 55.0809 52 52.8187V52.4007C52 54.7759 56.6575 56.7795 63.0731 57.443C63.4845 57.4828 63.9024 57.5226 64.327 57.5557C65.4284 57.6354 66.5762 57.6818 67.7572 57.6818C68.9381 57.6818 70.0859 57.6354 71.1873 57.5557C71.6119 57.5226 72.0298 57.4828 72.4413 57.443C78.8568 56.7795 83.5143 54.7758 83.5143 52.4006Z" fill="#E8E8E9"/>
<path d="M83.5143 52.3409V52.374C83.4745 54.7558 78.8302 56.7661 72.4412 57.4428C72.0298 57.4827 71.6119 57.5224 71.1872 57.5555C70.0859 57.6352 68.938 57.6816 67.7571 57.6816C66.5761 57.6816 65.4284 57.6352 64.327 57.5555C63.9023 57.5224 63.4844 57.4827 63.073 57.4428C56.6841 56.7661 52.0398 54.7558 52 52.374V52.3409C52 49.3951 59.0525 47 67.7572 47C73.0118 47 77.6627 47.8758 80.5288 49.2159C82.3201 50.0519 83.4148 51.0802 83.501 52.1883C83.5143 52.2347 83.5143 52.2877 83.5143 52.3409Z" fill="#CEDCE4"/>
<path d="M78.3043 59.6852V62.1218C77.035 62.5057 75.5786 62.821 73.9854 63.0506V60.6139C75.5787 60.3843 77.035 60.069 78.3043 59.6852Z" fill="#CEDCE4"/>
<path opacity="0.2" d="M67.7572 47V87C62.2438 87 57.3873 86.0513 54.5742 84.6115C53.1279 83.8751 52.2255 83.0126 52.0398 82.0771C52.0132 81.9577 52 81.8383 52 81.7188V72.9744C52 72.9545 52 72.9412 52.0066 72.9214C52 72.9081 52 72.9015 52.0066 72.8948C52.0066 72.8484 52.0132 72.802 52.0198 72.7555C52.0198 72.7024 52.0265 72.6493 52.0464 72.5962C52.0398 72.583 52.0464 72.5698 52.053 72.5565C52.053 72.5366 52.053 72.5233 52.0663 72.51C52.073 72.4636 52.0862 72.4238 52.0995 72.3773C52.1195 72.3176 52.146 72.2513 52.1725 72.1849C52.1459 72.1186 52.1195 72.0523 52.0995 71.9925C52.0796 71.9262 52.0597 71.8665 52.0464 71.8002C52.0464 71.8002 52.0464 71.7935 52.0464 71.7869C52.0266 71.7338 52.0198 71.6741 52.0132 71.6144C52.0066 71.5413 52 71.475 52 71.402V62.6577C52 62.5913 52.0066 62.5249 52.0132 62.4587C52.0198 62.3923 52.0265 62.3259 52.0464 62.2596C52.0464 62.2397 52.053 62.2198 52.0663 62.1932C52.0862 62.0871 52.126 61.9744 52.1725 61.8681C52.1459 61.8085 52.1195 61.7421 52.0995 61.6758C52.0796 61.6227 52.0663 61.5696 52.053 61.5166C52.0464 61.4966 52.0398 61.4702 52.0398 61.4502C52.0266 61.3971 52.0199 61.3507 52.0133 61.2977C52.0066 61.2245 52 61.1582 52 61.0852V52.3409C52 49.3951 59.0525 47 67.7572 47Z" fill="white"/>
<defs>
<filter id="filter0_d_208_22" x="28" y="31" width="80" height="80" filterUnits="userSpaceOnUse" color-interpolation-filters="sRGB">
<feFlood flood-opacity="0" result="BackgroundImageFix"/>
<feColorMatrix in="SourceAlpha" type="matrix" values="0 0 0 0 0 0 0 0 0 0 0 0 0 0 0 0 0 0 127 0" result="hardAlpha"/>
<feOffset dy="4"/>
<feGaussianBlur stdDeviation="2"/>
<feComposite in2="hardAlpha" operator="out"/>
<feColorMatrix type="matrix" values="0 0 0 0 0 0 0 0 0 0 0 0 0 0 0 0 0 0 0.25 0"/>
<feBlend mode="normal" in2="BackgroundImageFix" result="effect1_dropShadow_208_22"/>
<feBlend mode="normal" in="SourceGraphic" in2="effect1_dropShadow_208_22" result="shape"/>
</filter>
</defs>
</svg>
