<svg width="44" height="44" viewBox="0 0 44 44" fill="none" xmlns="http://www.w3.org/2000/svg">
<g clip-path="url(#clip0_1_50)">
<path d="M44 34.078C43.3596 34.3202 42.6527 34.3197 42.0127 34.0765C41.3727 33.8333 40.8438 33.3643 40.5258 32.758L34.2008 24.0112L33.2842 22.7883L25.9453 32.769C25.6465 33.3499 25.1463 33.8021 24.5382 34.0409C23.9302 34.2798 23.256 34.2891 22.6417 34.067L32.098 21.3803L23.3017 9.92017C23.9342 9.69224 24.6259 9.68922 25.2603 9.91161C25.8948 10.134 26.4332 10.5682 26.785 11.1412L33.341 19.9962L39.9337 11.1778C40.2348 10.6073 40.7352 10.1673 41.3395 9.94149C41.9439 9.71569 42.6102 9.71985 43.2117 9.95317L39.798 14.4833L35.1743 20.5022C35.0459 20.6167 34.9432 20.7571 34.8728 20.9141C34.8025 21.0711 34.7661 21.2413 34.7661 21.4133C34.7661 21.5854 34.8025 21.7555 34.8728 21.9125C34.9432 22.0696 35.0459 22.21 35.1743 22.3245L43.9817 34.0798L44 34.078ZM0.00365814 21.2227L0.773658 17.4185C2.88932 9.89634 11.5133 6.76684 17.446 11.4235C20.9202 14.1533 21.7873 18.018 21.6168 22.374H2.04599C1.72883 30.1528 7.34249 34.8498 14.52 32.45C15.6835 32.0312 16.725 31.3303 17.5511 30.4101C18.3773 29.4899 18.9622 28.3791 19.2537 27.1773C19.6332 25.9563 20.2583 25.7473 21.406 26.0993C21.2147 27.5887 20.6883 29.0153 19.8661 30.2718C19.044 31.5284 17.9476 32.5821 16.6595 33.3538C14.5318 34.5177 12.0905 34.979 9.6848 34.6718C7.2791 34.3645 5.03212 33.3046 3.26516 31.6433C1.51805 29.6769 0.462131 27.1929 0.258491 24.5703C0.258491 24.1395 0.111825 23.7362 0.0128248 23.3493C0.0039002 22.6411 -0.000377672 21.9328 -8.5244e-06 21.2245L0.00365814 21.2227ZM2.06982 20.6983H19.7688C19.6588 15.059 16.1003 11.0587 11.3538 11.022C6.07016 10.9487 2.28982 14.861 2.05699 20.6727L2.06982 20.6983Z" fill="black"/>
</g>
<defs>
<clipPath id="clip0_1_50">
<rect width="44" height="44" fill="white"/>
</clipPath>
</defs>
</svg>
