<svg width="256" height="168" viewBox="0 0 256 168" fill="none" xmlns="http://www.w3.org/2000/svg">
<path d="M1.66612 108.813V80.3228H37.2379V78.6567H1.66612V52.6661H39.4871V51H0V110.479H39.8204V108.813H1.66612ZM71.8933 67.6607L57.1481 87.0704L42.7361 67.6607H40.5701L56.1484 88.3199L39.0706 110.479H41.07L57.1481 89.5695L73.3095 110.479H75.3921L58.231 88.3199L73.8926 67.6607H71.8933ZM80.3905 125.14V98.4829H80.5571C81.5568 102.37 83.5284 105.494 86.4719 107.855C89.4154 110.215 93.1641 111.395 97.7182 111.395C100.662 111.395 103.272 110.798 105.549 109.604C107.826 108.41 109.728 106.786 111.255 104.731C112.783 102.676 113.949 100.288 114.754 97.5666C115.56 94.8453 115.962 91.9853 115.962 88.9863C115.962 85.7653 115.546 82.7941 114.713 80.0729C113.88 77.3516 112.672 74.9914 111.089 72.9921C109.506 70.9928 107.59 69.4378 105.341 68.3271C103.091 67.2164 100.551 66.661 97.7182 66.661C95.5522 66.661 93.539 66.9804 91.6785 67.619C89.818 68.2577 88.1658 69.1601 86.7218 70.3264C85.2778 71.4926 84.0282 72.8671 82.973 74.4499C81.9178 76.0327 81.1125 77.7681 80.5571 79.6564H80.3905V67.6607H78.7244V125.14H80.3905ZM97.7182 109.812C92.4976 109.812 88.3046 108.021 85.139 104.439C81.9733 100.857 80.3905 95.7062 80.3905 88.9863C80.3905 86.2095 80.7793 83.5716 81.5568 81.0725C82.3343 78.5734 83.4589 76.3798 84.9307 74.4916C86.4024 72.6033 88.2213 71.1039 90.3872 69.9932C92.5532 68.8825 94.9968 68.3271 97.7182 68.3271C100.495 68.3271 102.925 68.8825 105.007 69.9932C107.09 71.1039 108.812 72.6172 110.172 74.5332C111.533 76.4492 112.561 78.6428 113.255 81.1142C113.949 83.5855 114.296 86.2095 114.296 88.9863C114.296 91.4854 113.977 93.9706 113.338 96.442C112.699 98.9133 111.714 101.135 110.381 103.106C109.048 105.078 107.34 106.688 105.257 107.938C103.175 109.187 100.662 109.812 97.7182 109.812ZM125.126 110.479V86.2373C125.126 83.9048 125.459 81.6279 126.126 79.4064C126.792 77.185 127.82 75.2274 129.208 73.5336C130.596 71.8397 132.36 70.5069 134.498 69.535C136.636 68.5631 139.177 68.1605 142.12 68.3271V66.661C139.566 66.6055 137.33 66.8832 135.414 67.4941C133.498 68.105 131.846 68.938 130.458 69.9932C129.069 71.0483 127.958 72.284 127.125 73.7002C126.292 75.1163 125.681 76.6297 125.293 78.2402H125.126V67.6607H123.46V110.479H125.126ZM144.203 89.4029H180.025C180.136 86.4595 179.844 83.6272 179.15 80.9059C178.456 78.1847 177.345 75.7689 175.818 73.6585C174.29 71.5482 172.319 69.8543 169.903 68.577C167.487 67.2997 164.613 66.661 161.281 66.661C158.893 66.661 156.56 67.1608 154.283 68.1605C152.006 69.1601 150.007 70.6179 148.285 72.5339C146.563 74.4499 145.175 76.7963 144.12 79.5731C143.065 82.3498 142.537 85.5153 142.537 89.0696C142.537 92.2352 142.898 95.1924 143.62 97.9415C144.342 100.69 145.453 103.078 146.952 105.106C148.452 107.133 150.382 108.701 152.742 109.812C155.102 110.923 157.949 111.45 161.281 111.395C166.168 111.395 170.278 110.02 173.61 107.271C176.942 104.522 178.914 100.649 179.525 95.6506H177.859C177.137 100.371 175.29 103.912 172.319 106.272C169.348 108.632 165.613 109.812 161.114 109.812C158.06 109.812 155.477 109.285 153.367 108.229C151.256 107.174 149.535 105.73 148.202 103.898C146.869 102.065 145.883 99.913 145.244 97.4416C144.606 94.9703 144.259 92.2907 144.203 89.4029ZM178.359 87.7368H144.203C144.37 84.7378 144.925 82.0444 145.869 79.6564C146.813 77.2683 148.049 75.2274 149.576 73.5336C151.104 71.8397 152.881 70.5485 154.908 69.66C156.935 68.7714 159.115 68.3271 161.447 68.3271C164.224 68.3271 166.668 68.8408 168.778 69.8682C170.889 70.8956 172.652 72.2979 174.068 74.075C175.485 75.8522 176.554 77.9209 177.276 80.2811C177.998 82.6414 178.359 85.1266 178.359 87.7368ZM214.597 80.3228H216.263C216.263 75.5467 214.875 72.0758 212.098 69.9099C209.321 67.744 205.544 66.661 200.768 66.661C198.102 66.661 195.853 66.9942 194.02 67.6607C192.187 68.3271 190.688 69.1879 189.522 70.2431C188.355 71.2983 187.522 72.4645 187.022 73.7418C186.523 75.0191 186.273 76.2409 186.273 77.4072C186.273 79.7397 186.689 81.6001 187.522 82.9885C188.355 84.3769 189.66 85.4598 191.438 86.2373C192.66 86.7927 194.048 87.2925 195.603 87.7368C197.158 88.1811 198.963 88.6531 201.018 89.1529C202.851 89.5972 204.656 90.0415 206.433 90.4858C208.21 90.9301 209.779 91.5271 211.14 92.2768C212.5 93.0266 213.611 93.9845 214.472 95.1508C215.333 96.317 215.763 97.8443 215.763 99.7325C215.763 101.565 215.333 103.12 214.472 104.397C213.611 105.675 212.514 106.716 211.181 107.521C209.848 108.327 208.363 108.91 206.724 109.271C205.086 109.632 203.489 109.812 201.934 109.812C196.88 109.812 193.007 108.688 190.313 106.438C187.619 104.189 186.273 100.649 186.273 95.8172H184.607C184.607 101.204 186.064 105.147 188.98 107.646C191.896 110.145 196.214 111.395 201.934 111.395C203.767 111.395 205.614 111.187 207.474 110.77C209.335 110.354 211.001 109.673 212.473 108.729C213.944 107.785 215.138 106.563 216.055 105.064C216.971 103.564 217.429 101.732 217.429 99.5659C217.429 97.511 217.027 95.845 216.221 94.5677C215.416 93.2903 214.361 92.2352 213.056 91.4021C211.751 90.5691 210.279 89.9166 208.64 89.4445C207.002 88.9725 205.35 88.5143 203.684 88.07C201.351 87.4591 199.31 86.9315 197.561 86.4872C195.811 86.043 194.187 85.5154 192.687 84.9045C191.243 84.2936 190.091 83.4189 189.23 82.2804C188.369 81.1419 187.939 79.5175 187.939 77.4072C187.939 77.0184 188.05 76.3242 188.272 75.3246C188.494 74.3249 189.022 73.3114 189.855 72.284C190.688 71.2566 191.965 70.3403 193.687 69.535C195.409 68.7297 197.769 68.3271 200.768 68.3271C202.823 68.3271 204.697 68.5492 206.391 68.9935C208.085 69.4378 209.543 70.1459 210.765 71.1178C211.987 72.0896 212.931 73.3253 213.597 74.8248C214.264 76.3242 214.597 78.1569 214.597 80.3228ZM253.168 80.3228H254.834C254.834 75.5467 253.445 72.0758 250.668 69.9099C247.892 67.744 244.115 66.661 239.339 66.661C236.673 66.661 234.424 66.9942 232.591 67.6607C230.758 68.3271 229.259 69.1879 228.092 70.2431C226.926 71.2983 226.093 72.4645 225.593 73.7418C225.093 75.0191 224.843 76.2409 224.843 77.4072C224.843 79.7397 225.26 81.6001 226.093 82.9885C226.926 84.3769 228.231 85.4598 230.008 86.2373C231.23 86.7927 232.619 87.2925 234.174 87.7368C235.729 88.1811 237.534 88.6531 239.589 89.1529C241.421 89.5972 243.226 90.0415 245.004 90.4858C246.781 90.9301 248.35 91.5271 249.71 92.2768C251.071 93.0266 252.182 93.9845 253.043 95.1508C253.903 96.317 254.334 97.8443 254.334 99.7325C254.334 101.565 253.903 103.12 253.043 104.397C252.182 105.675 251.085 106.716 249.752 107.521C248.419 108.327 246.934 108.91 245.295 109.271C243.657 109.632 242.06 109.812 240.505 109.812C235.451 109.812 231.577 108.688 228.884 106.438C226.19 104.189 224.843 100.649 224.843 95.8172H223.177C223.177 101.204 224.635 105.147 227.551 107.646C230.467 110.145 234.785 111.395 240.505 111.395C242.338 111.395 244.184 111.187 246.045 110.77C247.905 110.354 249.572 109.673 251.043 108.729C252.515 107.785 253.709 106.563 254.625 105.064C255.542 103.564 256 101.732 256 99.5659C256 97.511 255.597 95.845 254.792 94.5677C253.987 93.2903 252.932 92.2352 251.626 91.4021C250.321 90.5691 248.85 89.9166 247.211 89.4445C245.573 88.9725 243.921 88.5143 242.254 88.07C239.922 87.4591 237.881 86.9315 236.131 86.4872C234.382 86.043 232.758 85.5154 231.258 84.9045C229.814 84.2936 228.662 83.4189 227.801 82.2804C226.94 81.1419 226.51 79.5175 226.51 77.4072C226.51 77.0184 226.621 76.3242 226.843 75.3246C227.065 74.3249 227.593 73.3114 228.426 72.284C229.259 71.2566 230.536 70.3403 232.258 69.535C233.979 68.7297 236.34 68.3271 239.339 68.3271C241.394 68.3271 243.268 68.5492 244.962 68.9935C246.656 69.4378 248.114 70.1459 249.336 71.1178C250.557 72.0896 251.501 73.3253 252.168 74.8248C252.834 76.3242 253.168 78.1569 253.168 80.3228Z" fill="#222222"/>
</svg>
