<svg width="250" height="250" viewBox="0 0 250 250" fill="none" xmlns="http://www.w3.org/2000/svg">
<path d="M17.1028 105.273L53.8282 45.9026C60.6626 34.8543 72.7284 28.1303 85.72 28.1303H164.28C177.272 28.1303 189.337 34.8543 196.172 45.9027L232.897 105.273C240.375 117.361 240.375 132.639 232.897 144.728L196.172 204.098C189.337 215.146 177.272 221.87 164.28 221.87H85.72C72.7284 221.87 60.6626 215.146 53.8282 204.098L17.1028 144.728C9.62474 132.639 9.62474 117.361 17.1028 105.273Z" stroke="#49DF97" stroke-width="10"/>
<path d="M78.4731 142.344C78.4731 143.831 76.9085 144.798 75.5787 144.133L50.3387 131.513C49.6612 131.174 49.2332 130.481 49.2332 129.724V125.396C49.2332 124.639 49.6612 123.946 50.3387 123.607L75.5787 110.987C76.9085 110.322 78.4731 111.289 78.4731 112.776V114.209C78.4731 114.972 78.0388 115.669 77.3536 116.005L57.3932 125.792C56.5318 126.2 55.7158 126.563 54.9452 126.88V126.88C54.5436 127.031 54.5432 127.817 54.9406 127.979C54.9868 127.997 55.0336 128.016 55.0812 128.036C55.8518 128.308 56.6225 128.648 57.3932 129.056L77.3583 138.91C78.0409 139.247 78.4731 139.942 78.4731 140.703V142.344ZM92.2198 157.48C90.8214 157.48 89.8547 156.082 90.3488 154.773L112.978 94.8534C113.272 94.0751 114.017 93.56 114.849 93.56H117.033C118.432 93.56 119.399 94.9584 118.904 96.2666L96.2751 156.187C95.9811 156.965 95.2361 157.48 94.4041 157.48H92.2198ZM133.46 150C132.355 150 131.46 149.105 131.46 148V102.36C131.46 101.255 132.355 100.36 133.46 100.36H158.7C159.805 100.36 160.7 101.255 160.7 102.36V103.936C160.7 105.041 159.805 105.936 158.7 105.936H139.444C138.339 105.936 137.444 106.831 137.444 107.936V120.392C137.444 121.497 138.339 122.392 139.444 122.392H156.932C158.037 122.392 158.932 123.287 158.932 124.392V125.968C158.932 127.073 158.037 127.968 156.932 127.968H139.58C138.475 127.968 137.58 128.863 137.58 129.968V148C137.58 149.105 136.685 150 135.58 150H133.46ZM174.447 144.133C173.118 144.798 171.553 143.831 171.553 142.344V140.911C171.553 140.148 171.987 139.451 172.673 139.115L192.633 129.328C193.495 128.92 194.288 128.58 195.013 128.308V128.308C195.43 128.136 195.411 127.316 194.985 127.166C194.972 127.162 194.959 127.157 194.945 127.152C194.175 126.835 193.404 126.472 192.633 126.064L172.668 116.21C171.985 115.873 171.553 115.178 171.553 114.417V112.776C171.553 111.289 173.118 110.322 174.447 110.987L199.687 123.607C200.365 123.946 200.793 124.639 200.793 125.396V129.724C200.793 130.481 200.365 131.174 199.687 131.513L174.447 144.133Z" fill="#A9A9A9"/>
</svg>
