<svg width="250" height="120" viewBox="0 0 250 120" fill="none" xmlns="http://www.w3.org/2000/svg">
<rect width="250" height="120" fill="#F2F4FF"/>
<path d="M43.678 55H37.672L35.362 48.238H24.736L22.426 55H16.504L26.626 27.28H33.556L43.678 55ZM26.038 43.954H34.06L30.028 31.858L26.038 43.954ZM59.4237 27.28C61.5517 27.28 63.3717 27.644 64.8837 28.372C66.3957 29.072 67.5577 30.094 68.3697 31.438C69.2097 32.754 69.6297 34.35 69.6297 36.226C69.6297 38.102 69.2097 39.712 68.3697 41.056C67.5577 42.372 66.3957 43.394 64.8837 44.122C63.3717 44.822 61.5517 45.172 59.4237 45.172H53.5857V55H47.7897V27.28H59.4237ZM58.5417 40.594C60.2777 40.594 61.5797 40.23 62.4477 39.502C63.3157 38.746 63.7497 37.654 63.7497 36.226C63.7497 34.77 63.3157 33.678 62.4477 32.95C61.5797 32.222 60.2777 31.858 58.5417 31.858H53.5857V40.594H58.5417ZM80.7381 27.28V55H74.9421V27.28H80.7381Z" fill="#7785DB"/>
<path d="M22.62 60.6C23.8467 60.6 24.9267 60.7933 25.86 61.18C26.8067 61.5533 27.6267 62.1067 28.32 62.84L26.66 65.06C26.0867 64.46 25.4667 64.0133 24.8 63.72C24.1467 63.4133 23.4 63.26 22.56 63.26C22.0667 63.26 21.6667 63.3133 21.36 63.42C21.0533 63.5267 20.8333 63.6733 20.7 63.86C20.5667 64.0467 20.5 64.26 20.5 64.5C20.5 64.78 20.6267 65.02 20.88 65.22C21.1467 65.4067 21.5733 65.5667 22.16 65.7L24.38 66.2C25.7 66.5067 26.6667 66.9533 27.28 67.54C27.8933 68.1267 28.2 68.9067 28.2 69.88C28.2 70.8133 27.96 71.6067 27.48 72.26C27 72.9 26.34 73.3867 25.5 73.72C24.66 74.04 23.7 74.2 22.62 74.2C21.74 74.2 20.9 74.1067 20.1 73.92C19.3 73.72 18.58 73.44 17.94 73.08C17.3 72.72 16.76 72.3067 16.32 71.84L17.98 69.54C18.3133 69.9267 18.72 70.2733 19.2 70.58C19.6933 70.8733 20.2267 71.1067 20.8 71.28C21.3867 71.4533 21.98 71.54 22.58 71.54C23.0467 71.54 23.4333 71.4933 23.74 71.4C24.06 71.3067 24.2933 71.1667 24.44 70.98C24.5867 70.7933 24.66 70.5733 24.66 70.32C24.66 70.04 24.56 69.8067 24.36 69.62C24.16 69.42 23.78 69.2533 23.22 69.12L20.78 68.58C20.0333 68.4067 19.3667 68.18 18.78 67.9C18.2067 67.6067 17.7533 67.22 17.42 66.74C17.0867 66.2467 16.92 65.6333 16.92 64.9C16.92 64.0733 17.1467 63.34 17.6 62.7C18.0533 62.0467 18.7067 61.5333 19.56 61.16C20.4133 60.7867 21.4333 60.6 22.62 60.6ZM33.4516 74.2C32.7716 74.2 32.1716 74.0867 31.6516 73.86C31.1449 73.62 30.7449 73.24 30.4516 72.72C30.1582 72.2 30.0116 71.52 30.0116 70.68V64H33.4116V69.88C33.4116 70.52 33.5382 70.9667 33.7916 71.22C34.0449 71.4733 34.4049 71.6 34.8716 71.6C35.1116 71.6 35.3382 71.56 35.5516 71.48C35.7649 71.3867 35.9516 71.2533 36.1116 71.08C36.2716 70.8933 36.3916 70.66 36.4716 70.38C36.5649 70.0867 36.6116 69.7467 36.6116 69.36V64H40.0116V74H36.9716L36.8716 72.12C36.5516 72.8267 36.1049 73.3533 35.5316 73.7C34.9582 74.0333 34.2649 74.2 33.4516 74.2ZM42.4544 78.2V64H45.5144L45.6944 67.62L45.2944 67.2C45.3877 66.5333 45.5944 65.9467 45.9144 65.44C46.2344 64.9333 46.6477 64.5333 47.1544 64.24C47.661 63.9467 48.241 63.8 48.8944 63.8C49.721 63.8 50.441 64.0067 51.0544 64.42C51.6677 64.82 52.141 65.4067 52.4744 66.18C52.821 66.94 52.9944 67.8667 52.9944 68.96C52.9944 70.0533 52.821 70.9933 52.4744 71.78C52.1277 72.5667 51.641 73.1667 51.0144 73.58C50.401 73.9933 49.681 74.2 48.8544 74.2C47.9477 74.2 47.2144 73.9333 46.6544 73.4C46.0944 72.8533 45.721 72.1667 45.5344 71.34L45.8544 70.86V78.2H42.4544ZM47.6944 71.7C48.281 71.7 48.741 71.4867 49.0744 71.06C49.4077 70.62 49.5744 69.9333 49.5744 69C49.5744 68.0667 49.4077 67.3867 49.0744 66.96C48.7544 66.52 48.301 66.3 47.7144 66.3C47.341 66.3 47.0144 66.4067 46.7344 66.62C46.4544 66.82 46.2344 67.12 46.0744 67.52C45.9277 67.92 45.8544 68.4133 45.8544 69C45.8544 69.56 45.921 70.0467 46.0544 70.46C46.201 70.86 46.4144 71.1667 46.6944 71.38C46.9744 71.5933 47.3077 71.7 47.6944 71.7ZM59.8734 74.2C58.7668 74.2 57.8068 73.9933 56.9934 73.58C56.1934 73.1667 55.5734 72.5733 55.1334 71.8C54.6934 71.0267 54.4734 70.0933 54.4734 69C54.4734 67.9067 54.6934 66.9733 55.1334 66.2C55.5734 65.4267 56.1868 64.8333 56.9734 64.42C57.7734 64.0067 58.6868 63.8 59.7134 63.8C60.7668 63.8 61.6601 64.0067 62.3934 64.42C63.1401 64.82 63.7068 65.38 64.0934 66.1C64.4801 66.8067 64.6734 67.62 64.6734 68.54C64.6734 68.78 64.6668 69.02 64.6534 69.26C64.6401 69.5 64.6201 69.7 64.5934 69.86H56.6734V68.04H63.0934L61.4734 68.66C61.4734 67.86 61.3268 67.2467 61.0334 66.82C60.7534 66.3933 60.3134 66.18 59.7134 66.18C59.2868 66.18 58.9201 66.28 58.6134 66.48C58.3201 66.68 58.0934 66.9933 57.9334 67.42C57.7868 67.8467 57.7134 68.3933 57.7134 69.06C57.7134 69.7133 57.8001 70.2467 57.9734 70.66C58.1468 71.06 58.3934 71.3533 58.7134 71.54C59.0334 71.7133 59.4201 71.8 59.8734 71.8C60.3801 71.8 60.7801 71.7 61.0734 71.5C61.3801 71.3 61.6068 71.02 61.7534 70.66L64.4734 71.56C64.2868 72.1333 63.9601 72.62 63.4934 73.02C63.0401 73.4067 62.4934 73.7 61.8534 73.9C61.2268 74.1 60.5668 74.2 59.8734 74.2ZM66.5755 74V64H69.5755L69.7155 66.16C69.9688 65.4133 70.3421 64.8333 70.8355 64.42C71.3421 64.0067 71.9821 63.8 72.7555 63.8C73.0088 63.8 73.2221 63.82 73.3955 63.86C73.5821 63.9 73.7288 63.9533 73.8355 64.02L73.4955 66.82C73.3621 66.7667 73.1888 66.7267 72.9755 66.7C72.7755 66.66 72.5288 66.64 72.2355 66.64C71.8355 66.64 71.4621 66.7267 71.1155 66.9C70.7688 67.0733 70.4888 67.3333 70.2755 67.68C70.0755 68.0133 69.9755 68.44 69.9755 68.96V74H66.5755ZM75.1692 74V64H78.2092L78.3092 65.94C78.6292 65.2333 79.0759 64.7 79.6492 64.34C80.2359 63.98 80.9092 63.8 81.6692 63.8C82.4159 63.8 83.0626 63.9667 83.6092 64.3C84.1559 64.6333 84.5626 65.1267 84.8292 65.78C85.0426 65.34 85.3159 64.9733 85.6492 64.68C85.9959 64.3867 86.3892 64.1667 86.8292 64.02C87.2692 63.8733 87.7226 63.8 88.1892 63.8C88.8559 63.8 89.4426 63.9333 89.9492 64.2C90.4559 64.4533 90.8559 64.8467 91.1492 65.38C91.4559 65.9 91.6092 66.5533 91.6092 67.34V74H88.2092V68.12C88.2092 67.48 88.0826 67.0333 87.8292 66.78C87.5892 66.5267 87.2626 66.4 86.8492 66.4C86.5159 66.4 86.2092 66.4867 85.9292 66.66C85.6626 66.82 85.4559 67.0667 85.3092 67.4C85.1626 67.7333 85.0892 68.1533 85.0892 68.66V74H81.6892V68.12C81.6892 67.48 81.5626 67.0333 81.3092 66.78C81.0559 66.5267 80.7292 66.4 80.3292 66.4C80.0226 66.4 79.7292 66.48 79.4492 66.64C79.1826 66.8 78.9692 67.0533 78.8092 67.4C78.6492 67.7333 78.5692 68.1733 78.5692 68.72V74H75.1692ZM99.5773 67.66C99.5773 67.1933 99.444 66.8267 99.1773 66.56C98.924 66.28 98.5773 66.14 98.1373 66.14C97.6973 66.14 97.3173 66.2533 96.9973 66.48C96.6907 66.6933 96.4773 67.08 96.3573 67.64L93.4773 66.96C93.664 66 94.1573 65.2333 94.9573 64.66C95.7573 64.0867 96.884 63.8 98.3373 63.8C99.3107 63.8 100.137 63.9467 100.817 64.24C101.511 64.52 102.037 64.9467 102.397 65.52C102.771 66.08 102.957 66.7733 102.957 67.6V71.26C102.957 71.78 103.191 72.04 103.657 72.04C103.897 72.04 104.091 72.0133 104.237 71.96L104.037 73.9C103.637 74.0867 103.151 74.18 102.577 74.18C102.057 74.18 101.597 74.1 101.197 73.94C100.797 73.7667 100.484 73.5133 100.257 73.18C100.031 72.8333 99.9173 72.4 99.9173 71.88V71.76L100.297 71.62C100.297 72.1933 100.124 72.6733 99.7773 73.06C99.444 73.4467 99.004 73.7333 98.4573 73.92C97.924 74.1067 97.364 74.2 96.7773 74.2C96.0973 74.2 95.504 74.0933 94.9973 73.88C94.4907 73.6667 94.0973 73.36 93.8173 72.96C93.5507 72.5467 93.4173 72.04 93.4173 71.44C93.4173 70.72 93.6307 70.1267 94.0573 69.66C94.4973 69.18 95.184 68.8467 96.1173 68.66L99.8973 67.88L99.8773 69.68L97.9573 70.08C97.5573 70.16 97.2573 70.28 97.0573 70.44C96.8707 70.5867 96.7773 70.8133 96.7773 71.12C96.7773 71.4133 96.884 71.6333 97.0973 71.78C97.3107 71.9267 97.564 72 97.8573 72C98.084 72 98.2973 71.9667 98.4973 71.9C98.7107 71.8333 98.8973 71.7333 99.0573 71.6C99.2173 71.4533 99.344 71.2733 99.4373 71.06C99.5307 70.8467 99.5773 70.5933 99.5773 70.3V67.66ZM105.579 74V64H108.579L108.719 66.16C108.973 65.4133 109.346 64.8333 109.839 64.42C110.346 64.0067 110.986 63.8 111.759 63.8C112.013 63.8 112.226 63.82 112.399 63.86C112.586 63.9 112.733 63.9533 112.839 64.02L112.499 66.82C112.366 66.7667 112.193 66.7267 111.979 66.7C111.779 66.66 111.533 66.64 111.239 66.64C110.839 66.64 110.466 66.7267 110.119 66.9C109.773 67.0733 109.493 67.3333 109.279 67.68C109.079 68.0133 108.979 68.44 108.979 68.96V74H105.579ZM125.153 64L120.353 69.12L119.713 69.3L116.853 72.5L116.833 69.02L121.373 64H125.153ZM117.573 59.76V74H114.173V59.76H117.573ZM120.873 67L125.373 74H121.613L118.653 69L120.873 67ZM130.967 74.2C129.861 74.2 128.901 73.9933 128.087 73.58C127.287 73.1667 126.667 72.5733 126.227 71.8C125.787 71.0267 125.567 70.0933 125.567 69C125.567 67.9067 125.787 66.9733 126.227 66.2C126.667 65.4267 127.281 64.8333 128.067 64.42C128.867 64.0067 129.781 63.8 130.807 63.8C131.861 63.8 132.754 64.0067 133.487 64.42C134.234 64.82 134.801 65.38 135.187 66.1C135.574 66.8067 135.767 67.62 135.767 68.54C135.767 68.78 135.761 69.02 135.747 69.26C135.734 69.5 135.714 69.7 135.687 69.86H127.767V68.04H134.187L132.567 68.66C132.567 67.86 132.421 67.2467 132.127 66.82C131.847 66.3933 131.407 66.18 130.807 66.18C130.381 66.18 130.014 66.28 129.707 66.48C129.414 66.68 129.187 66.9933 129.027 67.42C128.881 67.8467 128.807 68.3933 128.807 69.06C128.807 69.7133 128.894 70.2467 129.067 70.66C129.241 71.06 129.487 71.3533 129.807 71.54C130.127 71.7133 130.514 71.8 130.967 71.8C131.474 71.8 131.874 71.7 132.167 71.5C132.474 71.3 132.701 71.02 132.847 70.66L135.567 71.56C135.381 72.1333 135.054 72.62 134.587 73.02C134.134 73.4067 133.587 73.7 132.947 73.9C132.321 74.1 131.661 74.2 130.967 74.2ZM141.732 60.82V70.44C141.732 70.92 141.845 71.2667 142.072 71.48C142.312 71.68 142.639 71.78 143.052 71.78C143.372 71.78 143.645 71.7467 143.872 71.68C144.112 71.6 144.325 71.4867 144.512 71.34L144.872 73.44C144.539 73.68 144.119 73.8667 143.612 74C143.105 74.1333 142.585 74.2 142.052 74.2C141.292 74.2 140.632 74.0933 140.072 73.88C139.525 73.6667 139.099 73.3267 138.792 72.86C138.499 72.3933 138.345 71.7733 138.332 71V61.76L141.732 60.82ZM144.712 64V66.42H136.612V64H144.712ZM20.9 89.34H27.52V92H17.46V78.8H20.9V89.34ZM30.9513 80.84C30.2579 80.84 29.7513 80.7133 29.4313 80.46C29.1246 80.1933 28.9713 79.78 28.9713 79.22C28.9713 78.6467 29.1246 78.2333 29.4313 77.98C29.7513 77.7133 30.2579 77.58 30.9513 77.58C31.6313 77.58 32.1313 77.7133 32.4513 77.98C32.7713 78.2333 32.9313 78.6467 32.9313 79.22C32.9313 79.78 32.7713 80.1933 32.4513 80.46C32.1313 80.7133 31.6313 80.84 30.9513 80.84ZM32.6513 82V92H29.2513V82H32.6513ZM39.2716 92.2C38.2716 92.2 37.3382 92.04 36.4716 91.72C35.6182 91.3867 34.9116 90.9133 34.3516 90.3L35.9516 88.42C36.2849 88.8467 36.7249 89.2067 37.2716 89.5C37.8316 89.78 38.4516 89.92 39.1316 89.92C39.5449 89.92 39.8849 89.86 40.1516 89.74C40.4182 89.62 40.5516 89.4333 40.5516 89.18C40.5516 88.9933 40.4849 88.8467 40.3516 88.74C40.2182 88.62 39.9516 88.52 39.5516 88.44L38.1516 88.16C36.8982 87.9067 36.0049 87.5333 35.4716 87.04C34.9516 86.5333 34.6916 85.8733 34.6916 85.06C34.6916 84.5133 34.8582 83.9933 35.1916 83.5C35.5249 82.9933 36.0382 82.5867 36.7316 82.28C37.4249 81.96 38.3116 81.8 39.3916 81.8C40.4049 81.8 41.2982 81.9467 42.0716 82.24C42.8449 82.5333 43.4582 82.96 43.9116 83.52L42.2916 85.36C41.9716 84.96 41.5582 84.6467 41.0516 84.42C40.5449 84.1933 40.0382 84.08 39.5316 84.08C39.2116 84.08 38.9382 84.1133 38.7116 84.18C38.4982 84.2333 38.3382 84.3133 38.2316 84.42C38.1249 84.5267 38.0716 84.66 38.0716 84.82C38.0716 84.9933 38.1516 85.1467 38.3116 85.28C38.4849 85.4 38.7982 85.5067 39.2516 85.6L41.0716 85.96C42.0982 86.1467 42.8382 86.4867 43.2916 86.98C43.7449 87.4733 43.9716 88.0667 43.9716 88.76C43.9716 89.4133 43.7982 90 43.4516 90.52C43.1049 91.04 42.5849 91.4533 41.8916 91.76C41.1982 92.0533 40.3249 92.2 39.2716 92.2ZM49.9156 78.82V88.44C49.9156 88.92 50.029 89.2667 50.2556 89.48C50.4956 89.68 50.8223 89.78 51.2356 89.78C51.5556 89.78 51.829 89.7467 52.0556 89.68C52.2956 89.6 52.509 89.4867 52.6956 89.34L53.0556 91.44C52.7223 91.68 52.3023 91.8667 51.7956 92C51.289 92.1333 50.769 92.2 50.2356 92.2C49.4756 92.2 48.8156 92.0933 48.2556 91.88C47.709 91.6667 47.2823 91.3267 46.9756 90.86C46.6823 90.3933 46.529 89.7733 46.5156 89V79.76L49.9156 78.82ZM52.8956 82V84.42H44.7956V82H52.8956Z" fill="#101010"/>
<rect x="154" y="20" width="80" height="80" rx="8" fill="#7785DB"/>
<path d="M215.515 41.6761C214.901 40.2641 213.841 39.0482 212.497 38.0001C210.474 36.429 207.777 35.2028 204.621 34.3412C201.466 33.4825 197.849 33 194 33C188.134 33.0038 182.813 34.1125 178.829 35.9926C176.836 36.9375 175.17 38.0766 173.944 39.4428C173.334 40.1262 172.835 40.871 172.485 41.6762C172.137 42.4813 171.943 43.3495 171.944 44.238V75.7612C171.943 76.6496 172.137 77.5189 172.485 78.3231C173.099 79.7351 174.159 80.9508 175.503 82C177.526 83.5711 180.223 84.7974 183.379 85.659C186.534 86.5175 190.151 86.9992 194 87C199.867 86.9951 205.187 85.8877 209.171 84.0065C211.164 83.0617 212.83 81.9234 214.056 80.5564C214.667 79.8738 215.165 79.129 215.515 78.323C215.863 77.5189 216.057 76.6495 216.056 75.7611V44.2379C216.057 43.3494 215.863 42.4812 215.515 41.6761ZM213.014 75.7612C213.013 76.214 212.92 76.6554 212.722 77.1158C212.378 77.917 211.683 78.7786 210.627 79.599C209.049 80.833 206.686 81.9465 203.822 82.7237C200.958 83.5029 197.594 83.9586 194 83.9576C188.525 83.9625 183.578 82.8941 180.13 81.257C178.405 80.4433 177.065 79.4879 176.213 78.5296C175.784 78.051 175.476 77.5743 175.278 77.1157C175.08 76.6552 174.987 76.2139 174.986 75.7611V70.5552C176.745 72.1636 179.216 73.4482 182.171 74.398C185.578 75.4864 189.637 76.1115 194 76.1125C199.818 76.1096 205.091 75.0058 209.009 73.1563C210.583 72.4096 211.929 71.5354 213.014 70.5409L213.014 75.7612ZM213.014 66.8764C212.798 67.3406 212.489 67.806 212.071 68.2759C210.723 69.7942 208.283 71.2236 205.135 72.2249C201.987 73.2319 198.143 73.8312 194 73.8303C188.476 73.8332 183.482 72.7609 179.968 71.0934C178.209 70.2634 176.829 69.286 175.929 68.2759C175.512 67.806 175.202 67.3406 174.986 66.8774V60.0479C176.746 61.6562 179.216 62.9409 182.171 63.8905C185.579 64.978 189.638 65.6031 194 65.6042C199.818 65.6012 205.092 64.4976 209.009 62.6479C210.584 61.9012 211.93 61.0282 213.014 60.0335V66.8764ZM213.014 56.3689C212.798 56.8332 212.489 57.2984 212.071 57.7675C210.723 59.2858 208.283 60.716 205.135 61.7164C201.987 62.7235 198.143 63.3228 194 63.3218C188.476 63.3248 183.482 62.2526 179.968 60.5859C178.209 59.7558 176.829 58.7775 175.929 57.7675C175.512 57.2984 175.202 56.8332 174.986 56.3689V49.5394C176.746 51.1486 179.216 52.4324 182.171 53.383C185.579 54.4714 189.638 55.0965 194 55.0965C199.818 55.0937 205.092 53.9908 209.009 52.1404C210.584 51.3936 211.93 50.5206 213.014 49.5259V56.3689ZM213.014 45.8604C212.798 46.3248 212.489 46.791 212.071 47.2601C210.723 48.7794 208.283 50.2086 205.135 51.21C201.987 52.217 198.143 52.8163 194 52.8155C188.476 52.8183 183.482 51.746 179.968 50.0786C178.209 49.2476 176.829 48.2701 175.929 47.2602C175.512 46.7911 175.202 46.3249 174.986 45.8615V44.2379C174.987 43.785 175.08 43.3447 175.278 42.8842C175.623 42.0819 176.317 41.2214 177.373 40.4C178.951 39.166 181.314 38.0527 184.178 37.2763C187.042 36.4961 190.406 36.0414 194 36.0424C199.475 36.0375 204.422 37.106 207.87 38.743C209.595 39.5557 210.934 40.5112 211.787 41.4704C212.216 41.949 212.524 42.4249 212.722 42.8843C212.92 43.3448 213.013 43.7851 213.014 44.238V45.8604Z" fill="white"/>
</svg>
