<svg width="250" height="120" viewBox="0 0 250 120" fill="none" xmlns="http://www.w3.org/2000/svg">
<g clip-path="url(#clip0_101_5)">
<rect width="250" height="120" fill="white"/>
<rect width="250" height="120" fill="#F0F0F0"/>
<path d="M61.5702 43.448C62.1222 43.448 62.5182 43.568 62.7582 43.808C63.0222 44.048 63.1542 44.36 63.1542 44.744C63.1542 45.368 62.9622 45.92 62.5782 46.4C62.2182 46.88 61.6422 47.132 60.8502 47.156C58.9542 47.18 57.2502 47.036 55.7382 46.724C54.0582 50.3 52.0302 53.276 49.6542 55.652C47.3022 58.004 44.9742 59.18 42.6702 59.18C40.5582 59.18 38.9742 58.064 37.9182 55.832C36.8622 53.576 36.2622 50.564 36.1182 46.796C34.6782 50.972 33.0462 54.08 31.2222 56.12C29.4222 58.16 27.5022 59.18 25.4622 59.18C23.1582 59.18 21.4182 57.752 20.2422 54.896C19.0662 52.016 18.4782 48.152 18.4782 43.304C18.4782 39.776 18.7902 35.9 19.4142 31.676C19.5822 30.476 19.8822 29.648 20.3142 29.192C20.7702 28.712 21.4782 28.472 22.4382 28.472C23.1582 28.472 23.7102 28.628 24.0942 28.94C24.5022 29.252 24.7062 29.828 24.7062 30.668C24.7062 30.836 24.6822 31.16 24.6342 31.64C23.9142 36.56 23.5542 40.748 23.5542 44.204C23.5542 47.42 23.8302 49.904 24.3822 51.656C24.9342 53.408 25.6782 54.284 26.6142 54.284C27.4542 54.284 28.4622 53.408 29.6382 51.656C30.8382 49.88 32.0262 47.264 33.2022 43.808C34.3782 40.328 35.3742 36.188 36.1902 31.388C36.3822 30.284 36.7302 29.528 37.2342 29.12C37.7622 28.688 38.4702 28.472 39.3582 28.472C40.1022 28.472 40.6422 28.64 40.9782 28.976C41.3382 29.288 41.5182 29.768 41.5182 30.416C41.5182 30.8 41.4942 31.1 41.4462 31.316C40.7742 35.228 40.4382 39.14 40.4382 43.052C40.4382 45.716 40.5222 47.84 40.6902 49.424C40.8822 51.008 41.2302 52.22 41.7342 53.06C42.2622 53.876 43.0182 54.284 44.0022 54.284C45.1542 54.284 46.4382 53.42 47.8542 51.692C49.2702 49.94 50.5662 47.768 51.7422 45.176C50.2782 44.264 49.1742 43.088 48.4302 41.648C47.6862 40.184 47.3142 38.504 47.3142 36.608C47.3142 34.712 47.6022 33.116 48.1782 31.82C48.7782 30.5 49.5822 29.516 50.5902 28.868C51.6222 28.22 52.7622 27.896 54.0102 27.896C55.5462 27.896 56.7582 28.448 57.6462 29.552C58.5582 30.656 59.0142 32.168 59.0142 34.088C59.0142 36.8 58.4262 39.812 57.2502 43.124C58.4742 43.34 59.9142 43.448 61.5702 43.448ZM50.9502 36.356C50.9502 38.708 51.7062 40.448 53.2182 41.576C54.1542 38.888 54.6222 36.668 54.6222 34.916C54.6222 33.908 54.4902 33.176 54.2262 32.72C53.9622 32.24 53.6022 32 53.1462 32C52.4982 32 51.9702 32.384 51.5622 33.152C51.1542 33.896 50.9502 34.964 50.9502 36.356ZM75.7109 50.972C76.0229 50.972 76.2629 51.116 76.4309 51.404C76.6229 51.692 76.7189 52.088 76.7189 52.592C76.7189 53.552 76.4909 54.296 76.0349 54.824C75.1469 55.904 73.8869 56.9 72.2549 57.812C70.6469 58.724 68.9189 59.18 67.0709 59.18C64.5509 59.18 62.5949 58.496 61.2029 57.128C59.8109 55.76 59.1149 53.888 59.1149 51.512C59.1149 49.856 59.4629 48.32 60.1589 46.904C60.8549 45.464 61.8149 44.324 63.0389 43.484C64.2869 42.644 65.6909 42.224 67.2509 42.224C68.6429 42.224 69.7589 42.644 70.5989 43.484C71.4389 44.3 71.8589 45.416 71.8589 46.832C71.8589 48.488 71.2589 49.916 70.0589 51.116C68.8829 52.292 66.8789 53.228 64.0469 53.924C64.6469 55.028 65.7869 55.58 67.4669 55.58C68.5469 55.58 69.7709 55.208 71.1389 54.464C72.5309 53.696 73.7309 52.7 74.7389 51.476C75.0269 51.14 75.3509 50.972 75.7109 50.972ZM66.6389 45.752C65.7509 45.752 64.9949 46.268 64.3709 47.3C63.7709 48.332 63.4709 49.58 63.4709 51.044V51.116C64.8869 50.78 66.0029 50.276 66.8189 49.604C67.6349 48.932 68.0429 48.152 68.0429 47.264C68.0429 46.808 67.9109 46.448 67.6469 46.184C67.4069 45.896 67.0709 45.752 66.6389 45.752ZM89.8437 50.972C90.1557 50.972 90.3957 51.116 90.5637 51.404C90.7557 51.692 90.8517 52.088 90.8517 52.592C90.8517 53.552 90.6237 54.296 90.1677 54.824C89.2797 55.904 88.0197 56.9 86.3877 57.812C84.7797 58.724 83.0517 59.18 81.2037 59.18C78.6837 59.18 76.7277 58.496 75.3357 57.128C73.9437 55.76 73.2477 53.888 73.2477 51.512C73.2477 49.856 73.5957 48.32 74.2917 46.904C74.9877 45.464 75.9477 44.324 77.1717 43.484C78.4197 42.644 79.8237 42.224 81.3837 42.224C82.7757 42.224 83.8917 42.644 84.7317 43.484C85.5717 44.3 85.9917 45.416 85.9917 46.832C85.9917 48.488 85.3917 49.916 84.1917 51.116C83.0157 52.292 81.0117 53.228 78.1797 53.924C78.7797 55.028 79.9197 55.58 81.5997 55.58C82.6797 55.58 83.9037 55.208 85.2717 54.464C86.6637 53.696 87.8637 52.7 88.8717 51.476C89.1597 51.14 89.4837 50.972 89.8437 50.972ZM80.7717 45.752C79.8837 45.752 79.1277 46.268 78.5037 47.3C77.9037 48.332 77.6037 49.58 77.6037 51.044V51.116C79.0197 50.78 80.1357 50.276 80.9517 49.604C81.7677 48.932 82.1757 48.152 82.1757 47.264C82.1757 46.808 82.0437 46.448 81.7797 46.184C81.5397 45.896 81.2037 45.752 80.7717 45.752ZM108.729 50.972C109.041 50.972 109.281 51.116 109.449 51.404C109.641 51.692 109.737 52.088 109.737 52.592C109.737 53.552 109.509 54.296 109.053 54.824C107.973 56.144 106.881 57.2 105.777 57.992C104.673 58.784 103.365 59.18 101.853 59.18C100.005 59.18 98.5165 58.652 97.3885 57.596C96.2605 56.54 95.6965 55.136 95.6965 53.384C95.6965 52.448 96.1765 51.776 97.1365 51.368C98.1925 50.912 98.9485 50.432 99.4045 49.928C99.8605 49.4 100.089 48.764 100.089 48.02C100.089 47.588 99.9925 47.264 99.8005 47.048C99.6325 46.832 99.4165 46.724 99.1525 46.724C98.5045 46.724 97.7845 47.192 96.9925 48.128C96.2245 49.064 95.5045 50.276 94.8325 51.764C94.1605 53.228 93.6325 54.74 93.2485 56.3C92.9845 57.428 92.6725 58.196 92.3125 58.604C91.9765 58.988 91.4365 59.18 90.6925 59.18C89.9485 59.18 89.3965 58.916 89.0365 58.388C88.7005 57.836 88.4725 56.996 88.3525 55.868C88.2325 54.74 88.1725 53.084 88.1725 50.9C88.1725 47.204 88.5445 43.352 89.2885 39.344C90.0565 35.336 91.1725 31.976 92.6365 29.264C94.1245 26.528 95.9005 25.16 97.9645 25.16C99.0685 25.16 99.9565 25.64 100.629 26.6C101.325 27.536 101.673 28.76 101.673 30.272C101.673 32.696 100.965 35.216 99.5485 37.832C98.1325 40.424 95.8285 43.46 92.6365 46.94C92.5645 48.188 92.5285 49.472 92.5285 50.792C93.6805 47.792 95.0005 45.62 96.4885 44.276C97.9765 42.908 99.3685 42.224 100.665 42.224C101.865 42.224 102.825 42.632 103.545 43.448C104.289 44.264 104.661 45.272 104.661 46.472C104.661 47.792 104.325 49.004 103.653 50.108C102.981 51.212 101.829 52.196 100.197 53.06C100.293 53.708 100.581 54.236 101.061 54.644C101.565 55.028 102.165 55.22 102.861 55.22C103.605 55.22 104.325 54.932 105.021 54.356C105.717 53.78 106.629 52.82 107.757 51.476C108.045 51.14 108.369 50.972 108.729 50.972ZM97.2085 28.724C96.7765 28.724 96.2965 29.348 95.7685 30.596C95.2405 31.82 94.7245 33.488 94.2205 35.6C93.7405 37.688 93.3445 39.968 93.0325 42.44C94.5205 40.688 95.7445 38.78 96.7045 36.716C97.6885 34.652 98.1805 32.78 98.1805 31.1C98.1805 30.332 98.0965 29.744 97.9285 29.336C97.7605 28.928 97.5205 28.724 97.2085 28.724ZM120.479 50.972C120.791 50.972 121.031 51.116 121.199 51.404C121.391 51.692 121.487 52.088 121.487 52.592C121.487 53.552 121.259 54.296 120.803 54.824C119.771 56.096 118.643 57.14 117.419 57.956C116.219 58.772 114.851 59.18 113.315 59.18C111.203 59.18 109.631 58.22 108.599 56.3C107.591 54.38 107.087 51.896 107.087 48.848C107.087 45.92 107.459 42.584 108.203 38.84C108.971 35.096 110.087 31.88 111.551 29.192C113.039 26.504 114.803 25.16 116.843 25.16C117.995 25.16 118.895 25.7 119.543 26.78C120.215 27.836 120.551 29.36 120.551 31.352C120.551 34.208 119.759 37.52 118.175 41.288C116.591 45.056 114.443 48.788 111.731 52.484C111.899 53.468 112.175 54.176 112.559 54.608C112.943 55.016 113.447 55.22 114.071 55.22C115.055 55.22 115.919 54.944 116.663 54.392C117.407 53.816 118.355 52.844 119.507 51.476C119.795 51.14 120.119 50.972 120.479 50.972ZM116.051 28.724C115.499 28.724 114.875 29.72 114.179 31.712C113.483 33.704 112.871 36.176 112.343 39.128C111.815 42.08 111.527 44.912 111.479 47.624C113.183 44.816 114.539 42.008 115.547 39.2C116.555 36.368 117.059 33.788 117.059 31.46C117.059 29.636 116.723 28.724 116.051 28.724ZM131.177 42.224C131.729 42.224 132.113 42.296 132.329 42.44C132.545 42.584 132.653 42.824 132.653 43.16C132.653 43.736 132.341 45.788 131.717 49.316C131.165 52.7 130.841 54.704 130.745 55.328C129.857 61.496 128.633 66.38 127.073 69.98C125.513 73.58 123.437 75.38 120.845 75.38C119.621 75.38 118.625 74.996 117.857 74.228C117.089 73.484 116.705 72.5 116.705 71.276C116.705 70.148 116.957 68.996 117.461 67.82C117.989 66.644 118.949 65.288 120.341 63.752C121.757 62.24 123.749 60.5 126.317 58.532L126.425 57.704C126.593 56.816 126.785 55.544 127.001 53.888C126.521 55.616 125.849 56.936 124.985 57.848C124.121 58.736 123.209 59.18 122.249 59.18C121.169 59.18 120.281 58.688 119.585 57.704C118.913 56.696 118.577 55.448 118.577 53.96C118.577 52.16 118.697 50.516 118.937 49.028C119.177 47.516 119.573 45.92 120.125 44.24C120.365 43.52 120.701 43.004 121.133 42.692C121.565 42.38 122.249 42.224 123.185 42.224C123.713 42.224 124.073 42.308 124.265 42.476C124.481 42.644 124.589 42.896 124.589 43.232C124.589 43.424 124.457 44.072 124.193 45.176C123.953 46.064 123.761 46.868 123.617 47.588C123.425 48.572 123.257 49.52 123.113 50.432C122.969 51.32 122.897 52.052 122.897 52.628C122.897 53.54 123.149 53.996 123.653 53.996C124.013 53.996 124.457 53.636 124.985 52.916C125.537 52.196 126.113 51.104 126.713 49.64C127.337 48.176 127.937 46.376 128.513 44.24C128.705 43.52 128.993 43.004 129.377 42.692C129.785 42.38 130.385 42.224 131.177 42.224ZM121.241 71.888C121.841 71.888 122.513 71.192 123.257 69.8C124.001 68.408 124.745 66.092 125.489 62.852C123.641 64.412 122.297 65.828 121.457 67.1C120.641 68.396 120.233 69.524 120.233 70.484C120.233 70.892 120.305 71.228 120.449 71.492C120.617 71.756 120.881 71.888 121.241 71.888Z" fill="#FFA07A"/>
<path d="M92.4318 92.1429C91.7598 92.1429 91.2438 91.8549 90.8838 91.2789C90.5238 90.7029 90.4878 90.0909 90.7758 89.4429L100.892 65.2869C101.252 64.4469 101.84 64.0269 102.656 64.0269C103.52 64.0269 104.108 64.4469 104.42 65.2869L114.572 89.5149C114.836 90.1869 114.788 90.7989 114.428 91.3509C114.092 91.8789 113.576 92.1429 112.88 92.1429C112.52 92.1429 112.172 92.0469 111.836 91.8549C111.524 91.6389 111.296 91.3509 111.152 90.9909L102.224 68.8149H103.232L94.1598 90.9909C93.9918 91.3749 93.7398 91.6629 93.4038 91.8549C93.0918 92.0469 92.7678 92.1429 92.4318 92.1429ZM94.3398 85.9509L95.7798 82.8549H109.892L111.332 85.9509H94.3398ZM120.732 92.1429C120.204 92.1429 119.76 91.9629 119.4 91.6029C119.04 91.2429 118.86 90.7989 118.86 90.2709V65.8989C118.86 65.3469 119.04 64.9029 119.4 64.5669C119.76 64.2069 120.204 64.0269 120.732 64.0269H127.932C129.732 64.0269 131.328 64.4229 132.72 65.2149C134.112 66.0069 135.192 67.1109 135.96 68.5269C136.752 69.9189 137.148 71.5269 137.148 73.3509C137.148 75.1029 136.752 76.6629 135.96 78.0309C135.192 79.3989 134.112 80.4669 132.72 81.2349C131.328 82.0029 129.732 82.3869 127.932 82.3869H122.604V90.2709C122.604 90.7989 122.424 91.2429 122.064 91.6029C121.728 91.9629 121.284 92.1429 120.732 92.1429ZM122.604 78.9309H127.932C129.036 78.9309 130.008 78.6909 130.848 78.2109C131.688 77.7309 132.348 77.0709 132.828 76.2309C133.308 75.3909 133.548 74.4309 133.548 73.3509C133.548 72.1989 133.308 71.1909 132.828 70.3269C132.348 69.4389 131.688 68.7429 130.848 68.2389C130.008 67.7349 129.036 67.4829 127.932 67.4829H122.604V78.9309ZM143.162 92.1429C142.634 92.1429 142.19 91.9629 141.83 91.6029C141.47 91.2429 141.29 90.7989 141.29 90.2709V65.8989C141.29 65.3469 141.47 64.9029 141.83 64.5669C142.19 64.2069 142.634 64.0269 143.162 64.0269C143.714 64.0269 144.158 64.2069 144.494 64.5669C144.854 64.9029 145.034 65.3469 145.034 65.8989V90.2709C145.034 90.7989 144.854 91.2429 144.494 91.6029C144.158 91.9629 143.714 92.1429 143.162 92.1429Z" fill="#39526C"/>
<path d="M225.743 72.0019V89.4376C225.743 95.2761 211.638 100 194.229 100C183.202 100 173.489 98.1025 167.863 95.223C164.97 93.7501 163.165 92.0251 162.794 90.1542C162.741 89.9153 162.714 89.6766 162.714 89.4376V72.0019C162.714 71.9487 162.714 71.8958 162.727 71.8428C162.714 71.8162 162.714 71.803 162.727 71.7897C162.727 71.6967 162.741 71.6039 162.754 71.5111C162.767 71.4712 162.767 71.4314 162.781 71.3915C162.794 71.2853 162.82 71.1794 162.86 71.0731V71.0598C162.913 70.8476 162.993 70.6484 163.086 70.4362C164.837 66.6279 172.653 63.4833 183.136 62.1695C184.502 61.9969 185.922 61.8511 187.368 61.7448H187.448C189.637 61.5723 191.907 61.4928 194.229 61.4928C196.551 61.4928 198.82 61.5723 201.009 61.7448H201.089C202.535 61.8511 203.955 61.9969 205.321 62.1695C215.804 63.4831 223.62 66.6279 225.371 70.4362C225.464 70.6484 225.544 70.8476 225.597 71.0598V71.0731C225.637 71.1794 225.663 71.2853 225.676 71.3915C225.703 71.5242 225.716 71.6436 225.729 71.7897V71.8428C225.743 71.8958 225.743 71.9487 225.743 72.0019Z" fill="#39526C"/>
<path opacity="0.1" d="M225.743 72.055V72.8909C225.743 78.7294 211.638 83.4664 194.229 83.4664C176.819 83.4664 162.714 78.7294 162.714 72.8909V72.055C162.714 72.1876 162.727 72.307 162.741 72.4265C163.152 76.54 170.596 80.0697 181.172 81.6751C181.543 81.7283 181.901 81.7814 182.273 81.8344C182.87 81.9272 183.467 82.0069 184.078 82.0733C184.33 82.0866 184.595 82.1131 184.86 82.1528C186.333 82.312 187.859 82.4316 189.425 82.5111C190.473 82.5641 191.535 82.6039 192.61 82.6172C193.14 82.6305 193.684 82.6305 194.229 82.6305C194.773 82.6305 195.316 82.6305 195.847 82.6172C196.922 82.6039 197.984 82.5641 199.032 82.5111C200.598 82.4316 202.124 82.312 203.596 82.1528C203.862 82.1131 204.127 82.0866 204.379 82.0733C204.99 82.0069 205.587 81.9272 206.184 81.8344C206.555 81.7814 206.914 81.7283 207.285 81.6751C217.861 80.0697 225.305 76.54 225.716 72.4265C225.73 72.307 225.743 72.1876 225.743 72.055Z" fill="#E8E8E9"/>
<path d="M225.743 71.9488V72.055C225.743 72.1877 225.73 72.307 225.716 72.4266C225.159 76.5533 217.755 80.0431 207.285 81.6752C206.914 81.7283 206.556 81.7814 206.184 81.8344C205.812 81.8875 205.441 81.9272 205.069 81.9803C204.844 82.0069 204.605 82.0335 204.379 82.0733C204.127 82.0866 203.862 82.1131 203.597 82.1528C202.615 82.2456 201.606 82.3386 200.584 82.405C200.067 82.4449 199.549 82.4845 199.032 82.5111C197.984 82.551 196.922 82.5906 195.847 82.6172C195.316 82.6305 194.772 82.6305 194.229 82.6305C193.684 82.6305 193.14 82.6305 192.61 82.6172C191.535 82.5906 190.473 82.551 189.425 82.5111C188.907 82.4845 188.39 82.4449 187.872 82.405C186.851 82.3386 185.842 82.2456 184.86 82.1528C184.595 82.1131 184.329 82.0866 184.077 82.0733C183.852 82.0335 183.613 82.0069 183.387 81.9803C183.016 81.9272 182.644 81.8875 182.273 81.8344C181.901 81.7814 181.543 81.7283 181.171 81.6752C170.702 80.0431 163.298 76.5533 162.741 72.4266C162.727 72.307 162.714 72.1877 162.714 72.055V71.9488C162.714 71.9091 162.714 71.8825 162.727 71.8428C162.714 71.8163 162.714 71.803 162.727 71.7897C162.741 71.6436 162.754 71.5242 162.781 71.3916C162.794 71.3252 162.807 71.2589 162.807 71.1925C162.794 71.1661 162.807 71.1395 162.82 71.113C162.82 71.0864 162.82 71.0466 162.833 71.0067C162.86 70.9272 162.873 70.8344 162.913 70.7547C162.953 70.6352 163.006 70.5027 163.059 70.3699C164.705 66.5881 172.202 63.4566 182.326 62.0633C183.533 61.8909 184.781 61.7449 186.068 61.6388C186.081 61.6255 186.108 61.6255 186.121 61.6255C188.708 61.3866 191.429 61.2672 194.229 61.2672C197.028 61.2672 199.749 61.3866 202.336 61.6255C202.349 61.6255 202.376 61.6255 202.389 61.6388C203.676 61.7449 204.924 61.8909 206.131 62.0633C216.255 63.4566 223.753 66.5881 225.398 70.3699C225.491 70.5822 225.57 70.7945 225.624 71.0067C225.65 71.1395 225.65 71.2589 225.676 71.3916C225.703 71.5242 225.716 71.6436 225.73 71.7897V71.8428C225.73 71.8692 225.743 71.9091 225.743 71.9488Z" fill="#CEDCE4"/>
<path d="M215.323 86.6329V91.5062C212.784 92.2738 209.872 92.9045 206.685 93.3637V88.4904C209.872 88.0312 212.784 87.4006 215.323 86.6329Z" fill="#CEDCE4"/>
<path opacity="0.3" d="M225.623 71.0067C225.61 71.0333 225.61 71.0466 225.597 71.0599V71.0731C224.111 76.4339 210.643 80.6269 194.229 80.6269C177.815 80.6269 164.346 76.4339 162.86 71.0731V71.0599C162.847 71.0466 162.847 71.0333 162.847 71.02L162.834 71.0067C162.86 70.9272 162.873 70.8344 162.913 70.7547C162.953 70.6352 163.006 70.5027 163.059 70.3699C164.705 66.5881 172.202 63.4566 182.326 62.0633C183.534 61.8909 184.781 61.7449 186.068 61.6388C186.081 61.6255 186.108 61.6255 186.121 61.6255C188.709 61.3866 191.429 61.2672 194.229 61.2672C197.028 61.2672 199.749 61.3866 202.336 61.6255C202.349 61.6255 202.376 61.6255 202.389 61.6388C203.676 61.7449 204.924 61.8909 206.131 62.0633C216.256 63.4566 223.753 66.5881 225.398 70.3699C225.491 70.5822 225.57 70.7945 225.623 71.0067Z" fill="#040000"/>
<path d="M225.743 51.3815V68.8042C225.743 69.3348 225.623 69.8656 225.398 70.3698C225.385 70.3964 225.371 70.423 225.371 70.4362C223.023 75.505 209.979 79.3664 194.229 79.3664C178.478 79.3664 165.434 75.505 163.086 70.4362C163.086 70.423 163.072 70.3964 163.059 70.3698C163.006 70.2372 162.953 70.1045 162.913 69.985C162.873 69.8525 162.833 69.733 162.807 69.6003C162.807 69.6003 162.807 69.587 162.807 69.5737C162.767 69.4676 162.754 69.3481 162.741 69.2287C162.727 69.0826 162.714 68.95 162.714 68.8041V51.3684C162.714 51.0631 162.767 50.7447 162.847 50.4528C162.86 50.4262 162.86 50.3997 162.873 50.3864C162.927 50.1875 163.006 49.9884 163.086 49.8026C164.851 45.9944 172.679 42.8497 183.149 41.5359C184.516 41.3634 185.922 41.2175 187.368 41.1112C189.571 40.9522 191.867 40.8592 194.229 40.8592C196.591 40.8592 198.886 40.9522 201.089 41.1112C202.535 41.2175 203.942 41.3634 205.308 41.5359C215.778 42.8495 223.606 45.9944 225.371 49.8026C225.451 49.9884 225.531 50.1875 225.584 50.3864C225.597 50.3997 225.597 50.4262 225.61 50.4528C225.69 50.7578 225.743 51.0631 225.743 51.3815Z" fill="#39526C"/>
<path opacity="0.1" d="M225.743 51.4347V52.2708C225.743 56.6892 217.635 60.4711 206.131 62.0633C205.866 62.0899 205.587 62.1297 205.322 62.1696C201.872 62.5941 198.13 62.833 194.229 62.833C190.328 62.833 186.586 62.5941 183.136 62.1696C182.87 62.1297 182.591 62.0899 182.326 62.0633C170.822 60.4711 162.714 56.6892 162.714 52.2708V51.4347C162.714 51.5542 162.727 51.6869 162.741 51.8063C163.165 56.0127 170.968 59.6086 181.955 61.1611C182.061 61.1744 182.167 61.1877 182.273 61.201C183.122 61.3335 183.971 61.4264 184.861 61.5194C185.259 61.5592 185.657 61.5989 186.068 61.6388C186.493 61.6785 186.931 61.7183 187.368 61.7449H187.448C189.12 61.8777 190.845 61.9572 192.61 61.9838C193.141 61.9969 193.685 61.9969 194.229 61.9969C194.773 61.9969 195.317 61.9969 195.847 61.9838C197.612 61.9572 199.337 61.8777 201.009 61.7449H201.089C201.527 61.7183 201.964 61.6785 202.389 61.6388C202.8 61.5989 203.198 61.5592 203.596 61.5194C204.486 61.4264 205.335 61.3335 206.184 61.201L206.503 61.1611C217.489 59.6086 225.292 56.0127 225.716 51.8063C225.73 51.6869 225.743 51.5542 225.743 51.4347Z" fill="#E8E8E9"/>
<path d="M225.743 51.3153V51.4347C225.743 51.5542 225.73 51.6869 225.716 51.8063C225.146 56.0127 217.383 59.582 206.503 61.1611L206.184 61.201C205.812 61.2539 205.441 61.2938 205.069 61.3467C204.579 61.3999 204.101 61.453 203.597 61.5194C203.185 61.5592 202.761 61.5989 202.336 61.6255C201.898 61.6652 201.46 61.705 201.009 61.7449C200.863 61.7449 200.73 61.7581 200.584 61.7714C200.067 61.8113 199.549 61.8378 199.032 61.8644C197.984 61.9174 196.922 61.9572 195.847 61.9838H192.61C191.535 61.9572 190.473 61.9174 189.425 61.8644C188.907 61.8378 188.39 61.8113 187.872 61.7714C187.726 61.7581 187.594 61.7449 187.448 61.7449C186.997 61.705 186.559 61.6652 186.121 61.6255C185.696 61.5989 185.272 61.5592 184.86 61.5194C184.356 61.453 183.878 61.3999 183.387 61.3467C183.016 61.2938 182.644 61.2539 182.273 61.201C182.167 61.1877 182.061 61.1744 181.954 61.1611C171.074 59.5819 163.311 56.0127 162.741 51.8063C162.727 51.6869 162.714 51.5542 162.714 51.4347V51.3153C162.714 51.1827 162.727 51.0499 162.741 50.9174C162.754 50.7845 162.767 50.6519 162.807 50.5192C162.807 50.4794 162.82 50.4263 162.834 50.3864H225.624C225.652 50.497 225.648 50.6117 225.667 50.7228C225.699 50.8844 225.72 51.0481 225.73 51.2138C225.731 51.248 225.743 51.2805 225.743 51.3153Z" fill="#CEDCE4"/>
<path d="M215.323 66.0017V70.875C212.784 71.6427 209.872 72.2733 206.685 72.7325V67.8592C209.872 67.3999 212.784 66.7694 215.323 66.0017Z" fill="#CEDCE4"/>
<path opacity="0.3" d="M225.61 50.3862V50.4526C224.084 55.8134 210.629 60.0064 194.229 60.0064C177.828 60.0064 164.373 55.8134 162.847 50.4526V50.3862H225.61Z" fill="#040000"/>
<path d="M225.743 30.748V48.1705C225.743 48.7277 225.61 49.2719 225.371 49.8025C225.279 50.0016 225.172 50.1874 225.053 50.3863C222.027 55.1633 209.382 58.746 194.229 58.746C179.075 58.746 166.43 55.1633 163.404 50.3863C163.285 50.1874 163.179 50.0016 163.086 49.8025C163.086 49.7892 163.073 49.7627 163.059 49.7361C163.006 49.6169 162.953 49.4841 162.913 49.3514C162.873 49.2453 162.847 49.1391 162.82 49.033C162.807 48.9931 162.794 48.9402 162.794 48.9003C162.767 48.7941 162.754 48.7013 162.741 48.5952C162.727 48.4491 162.714 48.3164 162.714 48.1705V30.7347C162.82 24.9228 176.886 20.2388 194.229 20.2388C204.95 20.2388 214.424 22.0302 220.117 24.7769C223.434 26.3692 225.478 28.2933 225.716 30.3766C225.73 30.4958 225.743 30.6286 225.743 30.748Z" fill="#39526C"/>
<path opacity="0.1" d="M225.743 30.8012V31.6371C225.743 36.1618 217.251 40.0232 205.308 41.5359C201.858 41.9605 198.13 42.1993 194.229 42.1993C190.328 42.1993 186.599 41.9605 183.149 41.5359C171.206 40.0232 162.714 36.1618 162.714 31.6373V30.8013C162.714 35.5516 172.029 39.559 184.861 40.8859C185.683 40.9655 186.519 41.0451 187.368 41.1113C189.571 41.2707 191.867 41.3635 194.229 41.3635C196.591 41.3635 198.886 41.2707 201.089 41.1113C201.938 41.0451 202.774 40.9655 203.597 40.8859C216.428 39.5588 225.743 35.5515 225.743 30.8012Z" fill="#E8E8E9"/>
<path d="M225.743 30.6817V30.748C225.663 35.5116 216.375 39.5322 203.597 40.8856C202.774 40.9653 201.938 41.0448 201.089 41.1111C198.886 41.2705 196.59 41.3633 194.229 41.3633C191.866 41.3633 189.571 41.2705 187.368 41.1111C186.519 41.0448 185.683 40.9653 184.86 40.8856C172.082 39.5322 162.794 35.5116 162.714 30.748V30.6817C162.714 24.7902 176.819 20 194.229 20C204.738 20 214.04 21.7516 219.772 24.4319C223.354 26.1038 225.544 28.1605 225.716 30.3766C225.743 30.4694 225.743 30.5755 225.743 30.6817Z" fill="#CEDCE4"/>
<path d="M215.323 45.3703V50.2436C212.784 51.0113 209.872 51.6419 206.685 52.1011V47.2278C209.872 46.7686 212.784 46.138 215.323 45.3703Z" fill="#CEDCE4"/>
<path opacity="0.2" d="M194.229 20V100C183.202 100 173.489 98.1025 167.863 95.223C164.97 93.7502 163.165 92.0252 162.794 90.1542C162.741 89.9153 162.714 89.6766 162.714 89.4377V71.9487C162.714 71.9091 162.714 71.8825 162.727 71.8428C162.714 71.8163 162.714 71.803 162.727 71.7897C162.727 71.6967 162.741 71.6039 162.754 71.5111C162.754 71.4048 162.767 71.2986 162.807 71.1925C162.794 71.1661 162.807 71.1395 162.82 71.113C162.82 71.0731 162.82 71.0466 162.847 71.02C162.86 70.9272 162.887 70.8477 162.913 70.7547C162.953 70.6352 163.006 70.5027 163.059 70.3698C163.006 70.2372 162.953 70.1045 162.913 69.985C162.873 69.8525 162.834 69.733 162.807 69.6003C162.807 69.6003 162.807 69.587 162.807 69.5738C162.767 69.4677 162.754 69.3481 162.741 69.2287C162.727 69.0827 162.714 68.95 162.714 68.8041V51.3153C162.714 51.1827 162.727 51.0498 162.741 50.9173C162.754 50.7845 162.767 50.6519 162.807 50.5192C162.807 50.4794 162.82 50.4395 162.847 50.3864C162.887 50.1742 162.966 49.9487 163.059 49.7362C163.006 49.617 162.953 49.4842 162.913 49.3516C162.873 49.2455 162.847 49.1392 162.82 49.0331C162.807 48.9933 162.794 48.9403 162.794 48.9005C162.767 48.7942 162.754 48.7014 162.741 48.5953C162.727 48.4491 162.714 48.3164 162.714 48.1705V30.6817C162.714 24.7902 176.819 20 194.229 20Z" fill="white"/>
</g>
<defs>
<clipPath id="clip0_101_5">
<rect width="250" height="120" fill="white"/>
</clipPath>
</defs>
</svg>
