<svg width="24" height="24" viewBox="0 0 24 24" fill="none" xmlns="http://www.w3.org/2000/svg">
<path d="M19 2H5C3.34315 2 2 3.34315 2 5V19C2 20.6569 3.34315 22 5 22H19C20.6569 22 22 20.6569 22 19V5C22 3.34315 20.6569 2 19 2Z" fill="#F1DC50"/>
<path d="M12 11.1667C12 15.1244 12 17.3466 12 17.8334C12 18.5636 11.5643 19.5001 10.3333 19.5001C8.34551 19.5001 8.25 17.8334 8.25 17.8334M19.325 13.2634C18.8249 12.4212 18.162 12.0001 17.3363 12.0001C16.047 12.0001 15.3333 12.8334 15.3333 13.6667C15.3333 14.5001 15.75 15.3334 17.4237 15.7501C18.4887 16.0152 19.5 16.5834 19.5 17.8334C19.5 19.0834 18.4038 19.5001 17.4167 19.5001C16.1551 19.5001 15.3218 18.9445 14.9167 17.8334" stroke="#333333" stroke-width="2"/>
</svg>
