<svg width="42" height="42" viewBox="0 0 42 42" fill="none" xmlns="http://www.w3.org/2000/svg">
<path d="M21.8138 39.375L20.8281 39.0482C20.8281 39.0482 20.9593 34.0607 19.1546 33.7103C17.9734 32.3348 19.3292 -25.0123 23.6473 33.5147C22.828 33.9303 22.2011 34.6465 21.8978 35.5136C21.7351 36.7943 21.707 38.0885 21.8138 39.375Z" fill="url(#paint0_linear_1_114)"/>
<path d="M22.3466 34.5568C24.9711 32.5812 26.9809 29.9013 28.1426 26.8287C29.3043 23.756 29.5701 20.4168 28.9091 17.199C26.9797 8.68745 22.4109 5.8892 21.9188 4.82083C21.4941 4.15556 21.1316 3.45259 20.8359 2.72083L21.1995 26.4364C21.1995 26.4364 20.4461 33.684 22.3466 34.5568Z" fill="url(#paint1_linear_1_114)"/>
<path d="M20.3267 34.8718C20.3267 34.8718 12.2929 29.4 12.7575 19.7203C12.8008 16.8022 13.4699 13.9273 14.7196 11.2899C15.9692 8.65248 17.7703 6.31397 20.0012 4.43231C20.2619 4.21082 20.469 3.93314 20.607 3.62011C20.745 3.30709 20.8102 2.96686 20.7979 2.625C21.2979 3.70125 21.2166 18.6939 21.2691 20.4474C21.4725 27.2685 20.8897 33.5842 20.3267 34.8718Z" fill="url(#paint2_linear_1_114)"/>
<defs>
<linearGradient id="paint0_linear_1_114" x1="15.1878" y1="21.3312" x2="26.5168" y2="25.1756" gradientUnits="userSpaceOnUse">
<stop offset="0.231" stop-color="#999875"/>
<stop offset="0.563" stop-color="#9B9977"/>
<stop offset="0.683" stop-color="#A09F7E"/>
<stop offset="0.768" stop-color="#A9A889"/>
<stop offset="0.837" stop-color="#B7B69A"/>
<stop offset="0.896" stop-color="#C9C7B0"/>
<stop offset="0.948" stop-color="#DEDDCB"/>
<stop offset="0.994" stop-color="#F8F6EB"/>
<stop offset="1" stop-color="#FBF9EF"/>
</linearGradient>
<linearGradient id="paint1_linear_1_114" x1="19.3422" y1="2.55136" x2="24.3508" y2="33.8269" gradientUnits="userSpaceOnUse">
<stop stop-color="#48A547"/>
<stop offset="1" stop-color="#3F9143"/>
</linearGradient>
<linearGradient id="paint2_linear_1_114" x1="12.0664" y1="20.6785" x2="25.5072" y2="16.1771" gradientUnits="userSpaceOnUse">
<stop stop-color="#41A247"/>
<stop offset="0.352" stop-color="#4BA74B"/>
<stop offset="0.956" stop-color="#67B554"/>
<stop offset="1" stop-color="#69B655"/>
</linearGradient>
</defs>
</svg>
