<svg width="44" height="44" viewBox="0 0 44 44" fill="none" xmlns="http://www.w3.org/2000/svg">
<path d="M29.9569 29.6395C31.4791 29.4845 32.634 28.1944 32.5815 26.646C32.5291 25.0979 31.2166 23.8593 29.6418 23.8593H29.5369C27.9095 23.9108 26.6498 25.2527 26.7024 26.8525C26.7549 27.6266 27.0698 28.2975 27.5422 28.762C25.7575 32.2198 23.0278 34.7486 18.9335 36.8646C16.1513 38.3096 13.2643 38.8257 10.3773 38.4645C8.01512 38.1549 6.17789 37.1228 5.02289 35.4194C3.34323 32.8907 3.18581 30.1554 4.60313 27.4202C5.60054 25.4591 7.17513 24.014 8.17254 23.2914C7.9626 22.6205 7.64757 21.4852 7.49015 20.6595C-0.121282 26.0784 0.666174 33.4069 2.97586 36.8646C4.70803 39.445 8.22507 41.045 12.1095 41.045C13.1593 41.045 14.2091 40.9416 15.2591 40.6838C21.9781 39.3935 27.0699 35.4711 29.9569 29.6395ZM39.1956 23.24C35.2062 18.6468 29.327 16.118 22.6079 16.118H21.7682C21.2957 15.1891 20.2983 14.5696 19.196 14.5696H19.0909C17.4637 14.6213 16.2041 15.9631 16.2565 17.563C16.309 19.1113 17.6212 20.3499 19.196 20.3499H19.3009C20.4557 20.2983 21.4532 19.5757 21.8731 18.5951H22.8179C26.8074 18.5951 30.5867 19.7304 33.9989 21.9497C36.6234 23.6527 38.5132 25.872 39.563 28.5556C40.4554 30.7231 40.4029 32.8391 39.458 34.6455C37.9882 37.3806 35.5212 38.8773 32.2666 38.8773C30.1668 38.8773 28.1722 38.258 27.1223 37.7935C26.5449 38.3096 25.495 39.1352 24.76 39.6516C27.0174 40.6836 29.327 41.2514 31.5316 41.2514C36.5709 41.2514 40.298 38.5159 41.7153 35.7808C43.2374 32.7874 43.1324 27.6266 39.1956 23.24ZM12.5294 30.5166C12.582 32.0649 13.8942 33.3033 15.469 33.3033H15.5741C17.2012 33.2519 18.461 31.91 18.4085 30.3102C18.3561 28.7618 17.0437 27.5234 15.469 27.5234H15.3641C15.2591 27.5234 15.1015 27.5234 14.9967 27.5748C12.8444 24.0655 11.9521 20.2466 12.2671 16.1179C12.4769 13.0213 13.5268 10.3376 15.3641 8.11841C16.8862 6.20888 19.8258 5.27994 21.8207 5.22846C27.3848 5.12517 29.7467 11.9375 29.9043 14.6728C30.5867 14.8276 31.7416 15.1889 32.5291 15.447C31.899 7.0865 26.6498 2.75134 21.6107 2.75134C16.8862 2.75134 12.5294 6.10592 10.7971 11.0603C8.38251 17.6661 9.95725 24.014 12.8968 29.0201C12.6345 29.3813 12.4769 29.9489 12.5294 30.5166Z" fill="#764ABC"/>
</svg>
