<svg width="24" height="16" viewBox="0 0 24 16" fill="none" xmlns="http://www.w3.org/2000/svg">
<path d="M16.214 2L16.139 2.39115C16.023 3.13243 16.065 3.34451 16.383 3.61962L16.69 3.87372L16.372 5.29226C16.182 6.13858 15.949 6.84785 15.801 7.08094C15.674 7.28201 15.526 7.57813 15.494 7.73719C15.441 7.92726 15.261 8.11833 14.986 8.2874C14.743 8.42545 14.266 8.79559 13.928 9.09271C13.658 9.3358 13.472 9.48486 13.371 9.54888L13.041 9.80998C12.935 9.98005 12.875 10.1171 12.852 10.2211C12.829 10.3282 12.842 10.3992 12.876 10.4512C12.909 10.5012 12.966 10.5363 13.044 10.5583C13.1363 10.5799 13.2314 10.5877 13.326 10.5813C13.5401 10.5666 13.7519 10.5291 13.958 10.4692C14.028 10.4502 14.083 10.4322 14.131 10.4162C14.205 10.3252 14.376 10.1531 14.679 9.854C15.483 9.06069 15.79 8.62653 15.473 8.74357C15.356 8.78559 15.409 8.67955 15.61 8.46747C16.034 8.05431 16.277 7.43007 16.785 5.47232C17.187 3.92673 17.187 3.90473 17.483 3.90473C17.622 3.90473 18.015 3.92874 18.015 3.92874V2H17.113H16.214ZM20.053 5.16621C19.989 5.16621 19.883 5.26224 19.82 5.36828C19.704 5.55836 19.841 5.6744 21.587 6.76482C22.624 7.42207 23.46 7.98228 23.439 8.0253C23.418 8.05631 22.571 8.60752 21.556 9.24276C19.714 10.3852 19.704 10.3962 19.873 10.6293C20.085 10.9044 19.873 10.9994 22.264 9.50686L24 8.39544V7.55912L22.063 6.36266C21.016 5.70641 20.106 5.17721 20.053 5.16621ZM3.968 5.28325C3.915 5.28325 3.005 5.82346 1.958 6.46871L0 7.66516V8.50148L1.947 9.71894C3.027 10.3852 3.937 10.9364 3.979 10.9364C4.021 10.9364 4.106 10.8404 4.191 10.7243C4.318 10.5233 4.211 10.4382 2.423 9.30579C0.72 8.23638 0.54 8.08832 0.71 7.97228C0.816 7.89825 1.62 7.40006 2.488 6.86085C4.467 5.64339 4.361 5.72742 4.202 5.47333C4.139 5.36829 4.032 5.27325 3.969 5.28325H3.968ZM12.652 5.30626C12.36 5.30426 11.732 5.74943 9.852 7.28502C9.771 7.47809 9.764 7.61114 9.801 7.69717C9.825 7.7562 9.869 7.79721 9.93 7.82722C9.99 7.85723 10.068 7.87524 10.154 7.88224C10.325 7.89725 10.527 7.87024 10.69 7.83823L10.8 7.81322C10.8377 7.76271 10.8871 7.72218 10.944 7.69517C11.06 7.63115 11.547 7.18698 12.034 6.7108C12.891 5.84247 13.092 5.45032 12.743 5.32327C12.7144 5.31187 12.6828 5.3061 12.652 5.30626ZM14.848 5.90949C14.591 5.91649 14.128 6.21461 13.335 6.84785C12.937 7.17097 12.685 7.34504 12.55 7.38105L12.026 7.79521C11.829 8.15535 11.8 8.37843 11.852 8.50148C11.865 8.53183 11.8839 8.55931 11.9076 8.58232C11.9313 8.60532 11.9593 8.62341 11.99 8.63553C12.0664 8.66571 12.1479 8.68099 12.23 8.68055C12.4263 8.67846 12.6214 8.64985 12.81 8.59552C12.9083 8.56913 13.0054 8.53842 13.101 8.50348L13.13 8.49148L13.183 8.46347C13.283 8.33442 13.513 8.09132 13.801 7.81122C14.711 6.93288 15.176 6.30864 15.081 6.07556C15.038 5.96251 14.964 5.90549 14.848 5.90949ZM12.424 6.9899C12.35 6.99791 12.184 7.12596 11.885 7.38806C11.453 7.7702 10.982 7.99029 10.819 7.89225C10.7811 7.90081 10.7431 7.90881 10.705 7.91626C10.539 7.94927 10.332 7.97628 10.147 7.96127C10.0598 7.95599 9.9744 7.93463 9.895 7.89825C9.82011 7.864 9.76035 7.8035 9.727 7.72819C9.69 7.63815 9.69 7.52611 9.732 7.38305L9.082 7.91726L7.611 9.13472V11.1085L12.431 7.31003C12.4301 7.26844 12.4355 7.22695 12.447 7.18698C12.484 7.05293 12.482 6.9849 12.424 6.9909V6.9899ZM14.498 7.62915C14.425 7.62915 14.303 7.73219 14.108 7.93927C13.843 8.22237 13.426 8.49648 13.205 8.5525L13.171 8.57051C13.1347 8.5855 13.098 8.59951 13.061 8.61252C13.001 8.63253 12.923 8.65654 12.833 8.68055C12.653 8.72957 12.429 8.77459 12.229 8.76958C12.1347 8.76946 12.0413 8.75112 11.954 8.71556C11.8717 8.68162 11.8057 8.61708 11.77 8.53549C11.712 8.39644 11.735 8.20137 11.862 7.92426L7.61 11.2745V12.48H9.478L13.44 9.36681C13.543 9.25277 13.698 9.09671 13.907 8.90163C14.467 8.38244 14.594 8.20337 14.594 7.93827C14.594 7.73219 14.571 7.62815 14.498 7.62815V7.62915ZM15.441 9.57989L15.102 9.91802C14.912 10.0981 14.573 10.3202 14.341 10.4152L14.295 10.4352L14.292 10.4402L14.282 10.4502C14.273 10.4572 14.269 10.4582 14.262 10.4612C14.1694 10.4963 14.0753 10.5273 13.98 10.5543C13.7681 10.616 13.5502 10.6545 13.33 10.6693C13.2259 10.676 13.1214 10.6669 13.02 10.6423C12.932 10.6229 12.8543 10.5716 12.802 10.4982C12.754 10.4242 12.74 10.3252 12.767 10.2031C12.7885 10.1162 12.8204 10.0323 12.862 9.95303L9.665 12.48H13.917L14.425 11.8978C15.123 11.0835 15.441 10.5012 15.441 10.0031V9.57989Z" fill="black"/>
</svg>
