<svg width="512" height="256" viewBox="0 0 512 256" fill="none" xmlns="http://www.w3.org/2000/svg">
<path d="M255.42 98.975C235.427 98.975 221.012 112.014 221.012 131.572C221.012 151.13 237.238 164.169 257.231 164.169C269.311 164.169 279.959 159.388 286.551 151.329L272.697 143.325C269.039 147.327 263.479 149.663 257.231 149.663C248.557 149.663 241.186 145.136 238.452 137.892H289.195C289.594 135.864 289.829 133.763 289.829 131.554C289.829 112.014 275.414 98.975 255.42 98.975ZM238.289 125.234C240.552 118.008 246.746 113.463 255.402 113.463C264.077 113.463 270.271 118.008 272.516 125.234H238.289ZM450.427 98.975C430.433 98.975 416.018 112.014 416.018 131.572C416.018 151.13 432.244 164.169 452.238 164.169C464.317 164.169 474.965 159.388 481.557 151.329L467.703 143.325C464.045 147.327 458.486 149.663 452.238 149.663C443.563 149.663 436.192 145.136 433.458 137.892H484.201C484.6 135.864 484.835 133.763 484.835 131.554C484.835 112.014 470.42 98.975 450.427 98.975ZM433.313 125.234C435.577 118.008 441.77 113.463 450.427 113.463C459.101 113.463 465.295 118.008 467.54 125.234H433.313ZM362.63 131.572C362.63 142.438 369.729 149.681 380.74 149.681C388.201 149.681 393.797 146.295 396.677 140.771L410.585 148.794C404.826 158.392 394.033 164.169 380.74 164.169C360.729 164.169 346.332 151.13 346.332 131.572C346.332 112.014 360.747 98.975 380.74 98.975C394.033 98.975 404.808 104.752 410.585 114.35L396.677 122.372C393.797 116.849 388.201 113.463 380.74 113.463C369.748 113.463 362.63 120.706 362.63 131.572ZM512 79.0547V162.358H495.701V79.0547H512ZM66.9157 70L133.831 185.9H0L66.9157 70ZM234.214 79.0547L184.032 165.98L133.849 79.0547H152.666L184.032 133.383L215.398 79.0547H234.214ZM340.899 100.786V118.334C339.088 117.809 337.168 117.447 335.104 117.447C324.582 117.447 316.994 124.69 316.994 135.556V162.358H300.695V100.786H316.994V117.447C316.994 108.247 327.697 100.786 340.899 100.786Z" fill="black"/>
</svg>
